<svg xmlns="http://www.w3.org/2000/svg" width="746" height="107" viewBox="0 0 746 107" fill="none"><g opacity="0.15" clip-path="url(#clip0_397_859)"><path d="M111.083 81.1674C102.518 74.1582 87.6691 67.3981 66.9256 61.0898C65.1659 60.5602 63.3594 60.0306 61.5218 59.5321C50.8619 56.4169 38.785 52.9512 30.7414 45.903L30.3443 45.5058C26.6924 41.8454 24.2864 39.4233 24.2864 30.6695C24.2864 24.5325 25.9605 4.5171 47.576 4.5171C69.0358 4.5171 84.8737 11.7055 93.4 25.3347C98.4896 33.2341 102.917 41.5412 106.637 50.1709L107.151 51.3624H111.044V0H106.489V1.99377C106.559 3.07576 106.341 4.15692 105.857 5.12698C105.372 6.09703 104.639 6.92124 103.733 7.51552C98.5469 10.9501 86.758 9.4314 78.8157 6.05915C67.206 1.05141 55.456 0 47.5682 0C35.0396 0 23.9204 3.83954 14.5298 11.4018C5.13921 18.964 0.381619 29.1664 0.381619 41.7753C0.381619 56.487 5.34167 67.3202 15.5499 74.8903C25.1507 82.0086 34.7982 86.2453 52.3959 91.0505C69.8067 95.8791 81.8992 100.708 88.3699 105.42C94.8405 110.131 97.6748 113.504 97.6748 122.997C97.6748 143.192 84.5856 153.869 59.8243 153.869C29.8616 153.869 4.53965 128.169 4.53965 97.7249V95.7078H0.0234375V158.332H4.38391V156.338C4.38391 152.319 5.54411 149.633 7.91902 148.137C13.4319 144.656 24.7458 147.896 32.7582 151.735C42.3512 156.299 50.6673 158.332 59.8476 158.332C81.5332 158.332 97.8772 153.986 108.397 145.427C119.158 136.821 124.609 125.303 124.609 111.191C124.647 98.4804 120.077 88.3792 111.083 81.1674Z" fill="#88AEEC"></path><path d="M279.149 103.208C276.19 130.988 254.099 142.857 234.407 144.703C211.273 146.868 183.974 136.198 176.561 111.627C174.022 103.06 172.551 92.5537 172.068 79.4697L283.291 44.6414L281.781 40.0152L281.672 40.0542C279.016 33.5278 274.578 27.0558 267.843 19.8597C256.264 7.39872 237.475 0.015625 217.565 0.015625C193.333 0.015625 171.453 8.4657 155.95 23.816C140.914 38.6991 132.637 59.0649 132.637 81.1753C132.637 102.156 140.797 121.494 155.615 135.622C171.188 150.481 192.43 158.34 216.996 158.34C234.906 158.34 250.736 153.215 262.688 143.542C274.804 133.721 282.077 119.929 283.712 103.652L283.93 101.455H279.328L279.149 103.208ZM171.928 74.3919C171.928 72.6629 171.873 71.0897 171.873 69.5555L172.107 68.4495V68.2003C172.481 60.9885 174.233 42.4996 182.299 26.721C189.829 11.9859 200.341 4.51714 213.547 4.51714C243.253 4.51714 247.699 28.8393 247.932 50.6382L171.928 74.3919Z" fill="#88AEEC"></path><path d="M407.876 45.1242V155.637H443.235V155.139H443.274V51.1911C443.274 36.2302 439.046 24.0419 430.698 14.961C421.596 5.04673 408.67 0.015625 392.272 0.015625C368.967 0.015625 346.082 14.5482 332.198 37.6243V2.71809H329.395L298.132 26.0434H296.762V153.129V155.637H332.23L332.144 153.145V46.8921C332.884 45.6694 333.538 44.47 334.215 43.2161C336.434 39.104 338.949 34.4468 346.199 26.2303C355.916 15.1635 372.089 6.14485 382.258 6.14485C404.543 6.14485 407.876 30.5683 407.876 45.1242Z" fill="#88AEEC"></path><path d="M521.816 158.34C543.494 158.34 559.838 153.994 570.366 145.435C581.15 136.821 586.624 125.303 586.624 111.167C586.624 98.457 582.061 88.3559 573.068 81.1441C564.502 74.1348 549.653 67.3747 528.91 61.0664C527.158 60.5368 525.344 60.0072 523.506 59.5088C512.846 56.3935 500.769 52.9278 492.726 45.8796L492.337 45.4824C488.685 41.822 486.271 39.3999 486.271 30.6461C486.271 24.5091 487.953 4.49374 509.56 4.49374C531.02 4.49374 546.858 11.6821 555.384 25.3113C560.474 33.2108 564.901 41.5179 568.622 50.1475L569.143 51.3391H573.037V0H568.489V1.99377C568.559 3.07661 568.34 4.15855 567.854 5.12881C567.368 6.09907 566.634 6.92277 565.725 7.51552C560.539 10.9501 548.758 9.4314 540.808 6.05915C529.198 1.05141 517.448 0 509.56 0C497.032 0 485.913 3.83954 476.522 11.4018C467.131 18.964 462.374 29.1664 462.374 41.7753C462.374 56.487 467.334 67.3202 477.542 74.8903C487.143 82.0086 496.79 86.2453 514.396 91.0505C531.807 95.8791 543.899 100.708 550.362 105.42C556.825 110.131 559.706 113.504 559.706 122.997C559.706 143.192 546.617 153.869 521.855 153.869C491.893 153.869 466.571 128.169 466.571 97.7249V95.7078H462.016V158.332H466.384V156.338C466.384 152.319 467.536 149.633 469.911 148.137C475.432 144.656 486.738 147.896 494.758 151.735C504.312 156.307 512.667 158.34 521.816 158.34Z" fill="#88AEEC"></path><path d="M726.813 19.5717C714.354 7.93634 698.781 2.25883 680.561 2.39902C662.34 2.5392 646.899 8.45036 634.425 20.3116C622.107 32.1339 615.94 46.8768 616.072 64.7037C616.205 82.5306 622.605 97.1411 635.103 108.777C647.756 120.412 663.282 126.089 681.511 125.91C699.739 125.731 715.172 119.859 727.498 108.037C739.957 96.2065 746.132 81.4637 745.999 63.6445C745.867 45.8254 739.458 31.2071 726.813 19.5717ZM681.503 125.49C649.485 125.739 644.766 90.4433 644.571 64.4311C644.392 40.9734 647.772 3.0688 680.561 2.81958C712.431 2.57815 717.306 37.9906 717.5 63.8704C717.679 87.1801 714.136 125.225 681.503 125.474V125.49Z" fill="#88AEEC"></path></g><defs><clipPath id="clip0_397_859"><rect width="746" height="107" fill="white"></rect></clipPath></defs></svg>