<svg xmlns="http://www.w3.org/2000/svg" width="623" height="320" fill="none"><g clip-path="url(#a)" fill="#FAF9F5"><path d="M388.822-164.924c-55.343-23.85-113.922-24.148-174.351-1.919S109.756-106.497 82.45-52.117C55.614 1.947 52.728 58.386 74.479 117.566c21.75 59.18 60.502 100.168 115.974 123.971 55.99 23.617 114.413 23.971 174.822 1.603 60.408-22.368 104.715-60.347 131.576-114.42 27.292-54.257 30.204-110.705 8.463-169.86-21.741-59.154-60.528-100.158-116.492-123.784Zm-24.076 406.673C258.56 280.821 200.675 168.972 168.932 82.621c-28.636-77.867-62.708-208.072 46.042-248.064C320.678-204.312 379.22-92.26 410.804-6.35c28.46 77.375 62.156 208.241-46.076 248.047l.018.052ZM394.234 368.391c18.32-6.58 27.833-26.781 21.246-45.121-6.586-18.34-26.777-27.874-45.098-21.295-18.321 6.58-27.834 26.781-21.247 45.121 6.586 18.341 26.778 27.874 45.099 21.295Z"/></g><defs><clipPath id="a"><path fill="#fff" transform="rotate(-19.755 -257.926 -44.91)" d="M0 0h459.121v564.493H0z"/></clipPath></defs></svg>