<svg xmlns="http://www.w3.org/2000/svg" width="746" height="107" fill="none"><g opacity=".15" clip-path="url(#a)" fill="#FAF9F5"><path d="M111.083 81.167c-8.565-7.009-23.414-13.769-44.157-20.077-1.76-.53-3.567-1.06-5.404-1.558-10.66-3.115-22.737-6.58-30.78-13.629l-.398-.397c-3.652-3.66-6.058-6.083-6.058-14.837 0-6.137 1.674-26.152 23.29-26.152 21.46 0 37.298 7.189 45.824 20.818a170.39 170.39 0 0 1 13.237 24.836l.514 1.191h3.893V0h-4.555v1.994a6.131 6.131 0 0 1-2.756 5.522C98.547 10.95 86.758 9.43 78.816 6.059 67.206 1.051 55.456 0 47.568 0 35.04 0 23.92 3.84 14.53 11.402 5.14 18.964.382 29.166.382 41.775c0 14.712 4.96 25.545 15.168 33.115 9.6 7.119 19.248 11.355 36.846 16.16 17.41 4.83 29.503 9.658 35.974 14.37 6.47 4.711 9.305 8.084 9.305 17.577 0 20.195-13.09 30.872-37.85 30.872-29.963 0-55.285-25.7-55.285-56.144v-2.017H.023v62.624h4.36v-1.994c0-4.019 1.161-6.705 3.536-8.201 5.513-3.481 16.827-.241 24.84 3.598 9.592 4.564 17.908 6.597 27.089 6.597 21.685 0 38.03-4.346 48.549-12.905 10.761-8.606 16.212-20.124 16.212-34.236.038-12.71-4.532-22.812-13.526-30.024ZM279.149 103.208c-2.959 27.78-25.05 39.649-44.742 41.495-23.134 2.165-50.433-8.505-57.846-33.076-2.539-8.567-4.01-19.073-4.493-32.157L283.291 44.64l-1.51-4.626-.109.04c-2.656-6.527-7.094-13-13.829-20.195C256.264 7.399 237.475.016 217.565.016c-24.232 0-46.112 8.45-61.615 23.8-15.036 14.883-23.313 35.249-23.313 57.36 0 20.98 8.16 40.318 22.978 54.446 15.573 14.859 36.815 22.718 61.381 22.718 17.91 0 33.74-5.125 45.692-14.798 12.116-9.821 19.389-23.613 21.024-39.89l.218-2.197h-4.602l-.179 1.753ZM171.928 74.392c0-1.73-.055-3.302-.055-4.837l.234-1.106V68.2c.374-7.212 2.126-25.7 10.192-41.479 7.53-14.735 18.042-22.204 31.248-22.204 29.706 0 34.152 24.322 34.385 46.121l-76.004 23.754ZM407.876 45.124v110.513h35.359v-.498h.039V51.191c0-14.96-4.228-27.15-12.576-36.23C421.596 5.047 408.67.016 392.272.016c-23.305 0-46.19 14.532-60.074 37.608V2.718h-2.803l-31.263 23.325h-1.37v129.594h35.468l-.086-2.492V46.892c.74-1.223 1.394-2.422 2.071-3.676 2.219-4.112 4.734-8.77 11.984-16.986 9.717-11.066 25.89-20.085 36.059-20.085 22.285 0 25.618 24.423 25.618 38.98ZM521.816 158.34c21.678 0 38.022-4.346 48.55-12.905 10.784-8.614 16.258-20.132 16.258-34.268 0-12.71-4.563-22.811-13.556-30.023-8.566-7.01-23.415-13.77-44.158-20.078-1.752-.53-3.566-1.059-5.404-1.557-10.66-3.115-22.737-6.581-30.78-13.63l-.389-.397c-3.652-3.66-6.066-6.082-6.066-14.836 0-6.137 1.682-26.152 23.289-26.152 21.46 0 37.298 7.188 45.824 20.817 5.09 7.9 9.517 16.207 13.238 24.837l.521 1.191h3.894V0h-4.548v1.994a6.118 6.118 0 0 1-2.764 5.522c-5.186 3.434-16.967 1.915-24.917-1.457C529.198 1.051 517.448 0 509.56 0c-12.528 0-23.647 3.84-33.038 11.402-9.391 7.562-14.148 17.764-14.148 30.373 0 14.712 4.96 25.545 15.168 33.115 9.601 7.119 19.248 11.355 36.854 16.16 17.411 4.83 29.503 9.658 35.966 14.37 6.463 4.711 9.344 8.084 9.344 17.577 0 20.195-13.089 30.872-37.851 30.872-29.962 0-55.284-25.7-55.284-56.144v-2.017h-4.555v62.624h4.368v-1.994c0-4.019 1.152-6.705 3.527-8.201 5.521-3.481 16.827-.241 24.847 3.598 9.554 4.572 17.909 6.605 27.058 6.605ZM726.813 19.572C714.354 7.936 698.781 2.259 680.561 2.399c-18.221.14-33.662 6.051-46.136 17.913-12.318 11.822-18.485 26.565-18.353 44.392.133 17.827 6.533 32.437 19.031 44.073 12.653 11.635 28.179 17.312 46.408 17.133 18.228-.179 33.661-6.051 45.987-17.873 12.459-11.83 18.634-26.573 18.501-44.393-.132-17.819-6.541-32.437-19.186-44.072Zm-45.31 105.918c-32.018.249-36.737-35.047-36.932-61.059-.179-23.458 3.201-61.362 35.99-61.611 31.87-.242 36.745 35.17 36.939 61.05.179 23.31-3.364 61.355-35.997 61.604v.016Z"/></g><defs><clipPath id="a"><path fill="#fff" d="M0 0h746v107H0z"/></clipPath></defs></svg>