<svg xmlns="http://www.w3.org/2000/svg" width="204" height="433" fill="none"><path d="M203.935 152.436v-.821a5.908 5.908 0 0 0-.246-2.272 2.737 2.737 0 0 0-1.068-1.56 1.661 1.661 0 0 0-1.395 0c-.689.269-1.357.589-1.998.958-.685.383-1.341.766-1.998 1.204l-1.916 1.423-1.807 1.396-3.722 3.038c-1.286 1.068-2.518 2.163-3.832 3.175l-1.149.767c-1.451.766-3.038 1.341-4.571 1.97a44.75 44.75 0 0 0-4.872 2.053c-.76.376-1.492.806-2.19 1.287-.683.42-1.316.916-1.888 1.478a12.307 12.307 0 0 0-1.588 1.779 22.49 22.49 0 0 0-1.45 2.134 42.199 42.199 0 0 0-2.327 4.407c-.711 1.533-1.368 3.12-2.217 4.598-.328.493-.629.986-.958 1.451a29.295 29.295 0 0 0-4.762 8.868c-.876 3.175-1.615 6.377-2.491 9.552v.274c-.52 1.916-1.149 3.777-1.642 5.693a196.819 196.819 0 0 1-1.396 5.227c-.492 1.725-.766 2.737-1.231 3.914a77.479 77.479 0 0 1-1.451 3.449c-.849 1.943-1.779 3.832-2.737 5.693-.958 1.861-2.162 3.886-3.284 5.802-.356.575-.685 1.177-1.068 1.752s-.629.547-.903.848a45.84 45.84 0 0 0-3.503 3.805 51.833 51.833 0 0 0-3.175 4.27c-.438.711-.876 1.396-1.287 2.107l-1.396 1.752a40.046 40.046 0 0 1-1.368 1.642c-2.381 2.737-4.927 5.474-7.418 8.211l-3.284 3.586c.848-1.752 1.67-3.504 2.463-5.283 1.04-2.381 1.971-4.79 2.874-7.253a73.053 73.053 0 0 0 1.232-3.449l1.149-3.886c.767-2.737 1.506-5.474 2.245-8.211.739-2.737 1.505-5.474 2.244-8.211.739-2.737 1.451-5.721 2.162-8.594l.411-1.697a13.514 13.514 0 0 0 2.107-1.205 13.565 13.565 0 0 0 2.19-1.998c.657-.711 1.286-1.45 1.916-2.162a81.046 81.046 0 0 0 6.706-8.868 38.652 38.652 0 0 0 2.737-4.954 43.1 43.1 0 0 0 1.094-2.6c.329-.876.63-1.752.904-2.737.273-.985.574-1.752.821-2.737.246-.985.492-1.724.766-2.6.575-1.779 1.204-3.558 1.779-5.337s1.15-3.449 1.697-5.201c.547-1.751 1.095-3.421 1.56-5.145l.247-.876a.575.575 0 0 0-.603-.684 2.125 2.125 0 0 0-.821.191l-.766.356-.849.438-1.478.876c-.51.303-.98.671-1.395 1.095a9.766 9.766 0 0 0-.685.821c.053-.133.117-.261.192-.383l.821-1.889c.219-.575.465-1.177.657-1.779.465-1.396.876-2.737 1.204-4.27.329-1.532.63-2.737.931-4.105.301-1.369.574-2.737.793-3.887.219-1.149.493-2.928.657-4.379.165-1.451.192-2.737.219-4.023v-.904a45.383 45.383 0 0 0-.191-4.707c0-.767-.164-1.533-.274-2.272-.104-.72-.25-1.433-.438-2.135a50.5 50.5 0 0 0-.629-2.162c-.219-.712-.274-.712-.384-1.04a8.413 8.413 0 0 0-.383-.876 32.243 32.243 0 0 0-1.806-3.476c-1.396-2.409-2.901-4.762-4.27-7.198a146.952 146.952 0 0 1-2.737-5.474c-.876-1.834-1.697-3.914-2.545-5.858-1.068-2.49-2.135-4.981-3.367-7.39-.629-1.231-1.259-2.49-1.998-3.667l-.575-.849a4.222 4.222 0 0 0-.656-.739 1.317 1.317 0 0 0-.603-.328 1.12 1.12 0 0 0-.793 0c-.209.116-.373.3-.466.52a5.123 5.123 0 0 0-.219.93c-.52 2.546-.93 5.146-1.314 7.719-.218 1.341-.41 2.737-.656 3.969-.247 1.231-.52 2.737-.767 4.078-.246 1.341-.492 2.737-.766 4.023a101.98 101.98 0 0 1-1.013 4.215c-.711 2.737-1.478 5.31-2.217 7.992v-.219c-.739 2.737-1.478 5.255-2.162 7.91-.684 2.655-1.341 5.474-1.806 8.211a86.827 86.827 0 0 0-.685 4.544v3.886a47.19 47.19 0 0 0 .384 8.567c.4 2.773.985 5.516 1.751 8.211a74.994 74.994 0 0 0 2.573 7.718l-.958.247h-.274.165a11.83 11.83 0 0 0-2.163.711c-.711.329-1.423.712-2.107 1.095l-1.095.684-1.095.849c-.739.629-1.423 1.286-2.107 1.943a16.654 16.654 0 0 0-1.807 2.108 47.75 47.75 0 0 0-1.505 2.299 1.218 1.218 0 0 0 0 .191l-.219.356a54.178 54.178 0 0 0-3.284 6.542l-.384.876a32.404 32.404 0 0 0-1.587 4.488c-.411 1.615-.712 3.257-.985 4.899 0 .904-.219 1.807-.301 2.737-.083.931 0 1.916 0 2.874 0 .958 0 1.807.164 2.737 0 .466 0 .904.191 1.342.192.437 0 .957.219 1.423v-.164.136c-.328.575-.657 1.15-.958 1.725-.301.574-.875 1.642-1.259 2.463-.383.821-.848 1.67-1.231 2.491l-1.177 2.737a71.115 71.115 0 0 0-1.04 2.572l-.657 1.67c0 .356-.246.712-.383 1.095s-.247.766-.384 1.149c-.136.384-.301 1.123-.465 1.67l-.301 1.122c0 .411-.219.821-.301 1.232-.082.41-.246 1.04-.356 1.56v-1.56c0-2.354-.137-4.735-.273-7.089-.137-2.354-.22-4.845-.247-7.281V177.863v.191V173.1v.219c0-2.299 0-4.598.164-6.897v-1.861l.165-1.916c0-1.04.219-2.08.328-3.12l.164-1.177c.329-2.327.712-4.626 1.095-6.952.383-2.327.739-4.845 1.204-7.226.876-4.653 2.026-9.196 3.285-13.685.356-1.204.711-2.408 1.095-3.613.383-1.204.793-2.49 1.204-3.722l1.286-1.478 1.533-1.834a59.596 59.596 0 0 1 1.779-1.943c.602-.63 1.122-1.15 1.67-1.724l.848-.794c1.15-1.095 2.381-2.135 3.64-3.175l3.914-3.093.958-.794 1.122-.985.904-.876c.269-.251.525-.516.766-.794.274-.273.547-.547.794-.848l.985-1.15.301-.41.52-.684.657-.904.629-.93.74-1.177.738-1.26.466-.82c.876-1.588 1.752-3.175 2.573-4.763l1.122-2.135c.191-.383.356-.793.547-1.204.192-.41.329-.657.465-.985l.63-1.478c0-.329.274-.684.383-1.013l.411-1.067.492-1.506c.247-.848.466-1.697.712-2.545.246-.848.383-1.56.575-2.354.191-.794.355-1.533.52-2.299.164-.766.356-1.533.493-2.326.136-.794.355-1.697.492-2.573.137-.876.329-1.807.465-2.737.274-1.642.493-3.257.739-4.9 0-.52.137-1.04.192-1.532.192-1.615.383-3.23.547-4.872 0-.821.192-1.642.247-2.49v-1.205a6.034 6.034 0 0 1 0-.712 7.535 7.535 0 0 0 0-.766v-.766a.82.82 0 0 0-.438-.52.717.717 0 0 0-.575 0 1.069 1.069 0 0 0-.575.164 2.406 2.406 0 0 0-.41.328l-1.15 1.013-1.122.958-2.545 2.108c-1.314 1.04-2.737 2.107-3.942 3.174l-3.914 3.285c-1.286 1.067-2.6 2.107-3.914 3.147l-.93.712-1.04.794-2.053 1.505-2.326 1.642-1.506 1.04-1.231.904-.411.328-.356.274-.684.602c-.438.438-.849.876-1.259 1.341a19.86 19.86 0 0 0-1.642 2.053c-.466.575-.904 1.204-1.341 1.806a136.876 136.876 0 0 0-2.737 4.188l-1.123 1.86a31.683 31.683 0 0 0-2.217 4.544 41.616 41.616 0 0 0-1.45 4.763 87.488 87.488 0 0 0-1.095 4.653 38.484 38.484 0 0 0-.821 4.981c0 .876 0 1.724-.137 2.6-.137.876 0 1.725 0 2.573v2.436c.058.835.158 1.666.301 2.491.137.793.329 1.587.52 2.353.192.767.411 1.615.63 2.409.219.794.492 1.724.766 2.737.274 1.013.465 1.478.657 2.244.138.523.248 1.053.328 1.588v.164c-.93 2.737-1.861 5.474-2.737 8.211-1.04 3.64-2.025 7.281-2.737 10.948a177.433 177.433 0 0 0-1.478 8.02c-.191-.794-.356-1.588-.602-2.354-.246-.767-.793-2.217-1.231-3.285a150.196 150.196 0 0 0-3.039-6.76 55.527 55.527 0 0 0-1.642-3.093c-.273-.493-.52-.958-.82-1.423-.274-1.67-.576-3.312-.822-4.981-.328-2.163-.63-4.325-.985-6.487a71.063 71.063 0 0 0-1.232-5.94 130.174 130.174 0 0 0-.848-3.476c-.302-1.149-.466-1.998-.685-3.01l-.328-1.588-.246-1.231c-.192-1.15-.411-2.299-.63-3.449l-1.067-5.474c0-.52.164-1.013.273-1.533.192-1.094.383-2.162.548-3.257.246-1.943.492-3.886.766-5.83 0-.656.192-1.34.329-2.025.136-.684.273-1.396.437-2.108.165-.711.302-1.286.493-1.915.192-.63.329-1.26.52-1.916.192-.657.192-.657.301-1.013a31.51 31.51 0 0 1 1.095-3.065l1.314-3.23c.903-2.108 1.697-4.243 2.518-6.377.191-.548.41-1.095.602-1.615s.383-1.095.575-1.615c.191-.52.356-1.122.52-1.67.164-.547.3-1.15.438-1.724.136-.575.219-.985.328-1.478.11-.493.192-.93.274-1.396l.41-2.135c0-.465.192-.958.274-1.423.192-1.231.41-2.436.602-3.667.015-.2.015-.402 0-.603V43.34c0-1.15-.191-2.3-.328-3.449-.274-2.19-.821-4.352-1.314-6.514-.493-2.162-.958-4.434-1.286-6.678-.329-2.245-.603-4.462-.904-6.679-.164-1.15-.328-2.271-.52-3.393-.191-1.123-.355-2.163-.574-3.258l-.329-1.67c-.137-.574-.274-1.176-.438-1.778-.164-.602-.246-1.068-.41-1.615-.165-.547-.274-1.067-.438-1.615-.356-1.067-.712-2.162-1.15-3.202 0-.356-.3-.712-.465-1.068a6.68 6.68 0 0 0-.383-.766 2.734 2.734 0 0 0-.41-.547.903.903 0 0 0-.986-.22c-.137.091-.25.213-.329.357-.097.21-.17.43-.219.656-.21.7-.466 1.386-.766 2.053-.63 1.396-1.314 2.737-1.97 4.16l-.986 2.053c-.164.356-.328.712-.52 1.068l-.164.383a37.732 37.732 0 0 1-1.095 1.751l-1.834 2.737c-.328.466-.656.931-.958 1.424-.3.492-.657.958-.958 1.478l-.547.958a4.235 4.235 0 0 0-.329.602l-.82 1.56-1.424 2.983c-.985 2.053-1.97 4.078-2.737 6.159-.766 2.08-1.751 4.187-2.737 6.267-.985 2.08-1.834 4.27-2.737 6.432-.191.493-.41.986-.575 1.478-.164.493-.41 1.15-.574 1.725-.165.574-.356 1.122-.493 1.724l-.41 1.834c0 .63-.247 1.259-.384 1.888l-.246 1.506c-.109.506-.191 1.017-.246 1.532l-.165 1.232v4.926a6.167 6.167 0 0 0 0 .712v1.67c0 .547 0 1.204.165 1.806.164.602 0 1.204.218 1.807.137 1.067.329 2.134.548 3.174 0 .52.219 1.068.356 1.588l.328 1.177.164.52.657 1.861.247.575c.136.356.3.684.438 1.04a37.453 37.453 0 0 0 1.505 2.956c.547.958 1.067 1.943 1.67 2.737.273.438.547.876.848 1.286l1.204 1.725c.301.465.657.876 1.013 1.34l.876 1.096 1.286 1.505c.41.493.849.958 1.287 1.45.438.493 1.395 1.56 2.052 2.354l2.3 2.737 1.094 1.314 1.068 1.314.219.328.246 1.861c.137 1.013.274 2.026.438 3.039.164 1.012.328 2.244.52 3.366 0 .438 0 .876.219 1.314.219.438.164.958.273 1.45.274 1.068.493 2.163.767 3.23.575 2.108 1.177 4.215 1.724 6.35v-.164l.575 2.299c.192.739.328 1.451.493 2.162.164.712.438 1.916.657 2.874.219.958.273 1.232.437 1.861l-.793-1.56c-.493-.876-1.013-1.752-1.533-2.737-.52-.985-1.067-1.642-1.615-2.463-1.013-1.56-2.135-3.038-3.23-4.544a42.814 42.814 0 0 0-2.9-3.749l-.575-.63-.575-.575-1.15-1.04c-.766-.657-1.587-1.259-2.408-1.861a39.711 39.711 0 0 0-2.217-1.505l-2.464-1.697a36.548 36.548 0 0 0-5.008-2.901l-.52-.219-.247-.301a18.755 18.755 0 0 1-.848-1.177l-.986-1.341c-.3-.438-.63-.849-.93-1.26l-.41-.52-.411-.492-.74-.849a1.883 1.883 0 0 0-.3-.355V97.285l-.274-.3-.164-.192-.192-.22-.137-.136-.63.027-.738-.712-.794-.739c-.301-.3-.657-.574-.985-.848l-.794-.657-.739-.547-.383-.274-1.122-.766-.904-.52-1.313-.712a20.367 20.367 0 0 0-3.23-1.286 24.77 24.77 0 0 0-3.421-.794c-1.807-.274-3.64-.41-5.474-.548l-2.272-.164h-2.463a9.512 9.512 0 0 0-1.232.164l-1.505.192-2.3.712c-1.477.492-2.955 1.012-4.46 1.423l-1.342.274-1.45.219c-.657 0-1.287.136-1.944.164h-2.052c-1.56 0-3.12 0-4.708.3l-4.762.52-2.519.22H2.491c-.29.014-.571.098-.82.246-.233.11-.432.28-.576.493a1.751 1.751 0 0 0-.273.657 1.916 1.916 0 0 0 0 .684 4.46 4.46 0 0 0 .52 1.615c.188.403.398.796.63 1.177l1.231 2.025c.93 1.423 1.861 2.737 2.737 4.27l1.369 2.053c.246.355.492.711.711 1.067.085.124.176.242.274.356l.492.629.822 1.068c.328.41.684.794 1.04 1.177.361.421.745.823 1.15 1.204a27.156 27.156 0 0 0 5.473 4.16 28.535 28.535 0 0 0 3.203 1.533 29.118 29.118 0 0 0 6.815 1.943c1.022.174 2.056.266 3.092.274H34.242l1.012-.137 1.04-.137.685-.137 1.094-.219c.794-.164 1.56-.383 2.327-.602.41-.089.812-.208 1.204-.356l.958-.273 2.737-.794 2.08-.629 2.737-.822 2.272-.766c1.533-.493 3.093-.93 4.626-1.368l1.998-.438 1.888-.329h1.478c2.691.041 5.378.233 8.047.575.525.071 1.046.172 1.56.301h.301l.684.356.849.575c.328.219.63.465.985.657.297.164.609.301.93.41l1.862 2.463 1.998 2.737c1.368 1.916 2.737 3.86 4.105 5.721l2.053 2.737 2.245 2.737.985 1.45c.328.466.602.958.903 1.451.301.493.301.602.466.903.355.821.738 1.642 1.094 2.491l.438.903.329 1.533c0 .438.246.876.355 1.341.11.465.302 1.095.52 1.642a.489.489 0 0 0 .438.274h.192c.383 1.013.766 1.998 1.122 3.038.657 1.806 1.205 3.64 1.697 5.474.22.985.465 1.971.63 2.983.164 1.013.328 1.971.465 2.956.137.986 0 1.314.191 1.944a6.55 6.55 0 0 1 0 1.012v1.013c.032.334.097.664.192.985a3.526 3.526 0 0 0 0 .52v5.146c0 2.491.164 4.981.274 7.499.11 2.518.219 4.817.3 7.226.275 9.397.366 18.776.275 28.136v12.071c0 2.107 0 3.941.191 5.912.192 1.97 0 3.749 0 5.638 0 3.23-.164 6.459-.465 9.689-.465 4.817-1.013 9.607-1.588 14.397a736.098 736.098 0 0 1-1.833 14.123c-.302 1.998-.603 3.996-.986 5.966a201.397 201.397 0 0 1-1.231 5.857c-.849 3.695-1.807 7.39-2.737 10.948-.74 2.518-1.615 4.982-2.409 7.472-.602 1.834-1.177 3.641-1.861 5.475-1.314 1.614-2.6 3.257-3.805 4.954l-2.354 3.366c-.766 1.122-1.532 2.272-2.326 3.394a326.296 326.296 0 0 1-3.558 4.954v-.356c.383-1.642.684-3.312.958-4.981.274-1.67.547-3.285.794-4.9.52-3.366.985-6.76 1.286-10.154.164-1.697.301-3.394.438-5.118.137-1.724.219-3.394.301-5.091.164-3.312.356-6.623.657-9.935.301-3.312.383-6.651.52-9.963 0-1.697 0-3.394.164-5.091v-2.244a1.069 1.069 0 0 0 .766-.329c.204-.231.337-.516.384-.821v-.629c0-.192 0-.712.136-1.068l.165-1.505c.137-1.149.274-2.299.438-3.449.328-2.107.657-4.187 1.04-6.295.383-2.107.848-4.844 1.34-7.253.494-2.408.931-4.488 1.506-6.705l.247-.794c0-.247.136-.493.218-.712.083-.219.411-.985.603-1.505.848-1.916 1.779-3.805 2.737-5.693.547-1.122 1.095-2.217 1.587-3.339.247-.517.466-1.047.657-1.588.126-.285.236-.578.329-.876.085-.205.158-.415.218-.629.165-.602.356-1.177.493-1.807.093-.294.157-.596.192-.903l.191-1.013c0-.602.165-1.204.22-1.806.054-.602 0-1.04.136-1.56.137-.52 0-1.259 0-1.889v-1.751c-.096-1.2-.288-2.39-.575-3.558a24.96 24.96 0 0 0-.492-1.779 14.176 14.176 0 0 0-1.26-2.491c-.656-1.04-1.34-2.08-1.915-3.148a13.572 13.572 0 0 1-.794-1.697 14.358 14.358 0 0 1-.602-1.833l-.246-.931c0-.465-.192-.931-.274-1.396a29.452 29.452 0 0 0-.22-1.149c0-.821-.245-1.615-.355-2.436-.11-.821-.192-1.533-.328-2.299-.137-.767 0-.931-.22-1.369l-.246-1.368c0-.52-.246-1.068-.383-1.588a11.566 11.566 0 0 0-.465-1.587 47.344 47.344 0 0 0-.63-1.807c-.219-.602-.492-1.177-.711-1.751-.22-.575-.41-.931-.63-1.369a25.663 25.663 0 0 0-1.478-2.545 34.953 34.953 0 0 0-2.572-3.093c-1.588-1.779-3.175-3.558-4.708-5.474l-2.327-2.737c-.711-.849-1.478-1.697-2.217-2.518-.739-.821-1.505-1.697-2.271-2.518a15.515 15.515 0 0 0-1.15-1.177 16.839 16.839 0 0 0-1.368-1.068c-.93-.629-1.916-1.204-2.902-1.779a1.505 1.505 0 0 0-1.04-.219H59.695a.63.63 0 0 0-.41.466l-.165.656c0 .411-.191.822-.273 1.232l-.575 2.546c-.41 1.779-.849 3.558-1.314 5.474-.164.492-.301 1.012-.465 1.532-.165.52-.329 1.013-.493 1.506a86.48 86.48 0 0 1-.493 1.423l-.684 1.669a4.203 4.203 0 0 0-.219.521.217.217 0 0 0 0 .136v.438c-.191.438-.383.849-.602 1.287-.985 2.08-2.053 4.16-3.01 6.267a103.628 103.628 0 0 0-1.56 3.613 67.605 67.605 0 0 0-1.233 3.285c-.383 1.094-.739 2.08-1.067 3.12-.328 1.04-.739 2.381-1.04 3.585-.301 1.205-.465 2.354-.63 3.531a51.162 51.162 0 0 0-.383 3.64c-.082 1.232 0 2.354 0 3.558.033 1.209.133 2.416.301 3.613.165 1.15.383 2.272.63 3.422.246 1.149.52 2.271.82 3.393.603 2.272 1.233 4.571 2.026 6.788a48.775 48.775 0 0 0 1.287 3.312c.465 1.095.93 2.217 1.478 3.257a10.94 10.94 0 0 0 1.34 1.971c.29.348.6.677.931.985.384.411.796.795 1.232 1.15.493.383.958.793 1.478 1.177l1.588 1.176c.903.657 1.888 1.287 2.737 1.916.848.63 1.86 1.314 2.737 1.998l1.313 1.122 1.26 1.232.875.985.821 1.041a32.496 32.496 0 0 1 2.108 3.339c.356.657.657 1.313.985 1.998.329.684.849 2.08 1.314 3.12.465 1.04.958 2.107 1.478 3.147.52 1.041 1.122 2.053 1.642 3.066.52 1.013.93 1.971 1.341 2.983a1.757 1.757 0 0 0 0 .192v.137a97.97 97.97 0 0 1 .383 4.954c.083 1.669 0 3.065 0 4.57v4.818c0 1.587 0 3.311-.219 4.926-.219 1.615-.355 3.449-.574 5.173-.41 3.285-.74 6.596-1.15 9.908a269.114 269.114 0 0 1-1.095 6.788 699.76 699.76 0 0 0-1.587 10.537c-.493 3.504-.712 6.569-1.15 9.854-.274 1.998-.63 3.996-1.012 5.966l-2.354 3.422c-1.588 2.299-3.203 4.598-4.763 6.897a127.984 127.984 0 0 0-2.299 3.503 78.407 78.407 0 0 0-2.08 3.504c-.356.574-.684 1.177-1.013 1.779-2.38 4.105-4.379 8.402-6.404 12.699a146.216 146.216 0 0 0-4.215 10.018c0-.657 0-1.314.219-1.998.219-.684.191-1.615.246-2.409.055-.793 0-1.669.192-2.49.246-3.203.657-6.405 1.122-9.607v-.493c.328-2.135.63-4.242.876-6.377s.492-4.297.793-6.432c0-.767.22-1.533.356-2.299a92.794 92.794 0 0 0 1.232-9.881c.11-1.622.11-3.25 0-4.872 0-.876 0-1.751-.22-2.737v-1.149a6.573 6.573 0 0 0-.19-1.643.41.41 0 0 0-.74 0 .357.357 0 0 0 0 .438v7.117c0 1.478 0 2.928-.246 4.379-.246 1.451-.328 2.737-.52 4.051-.465 2.983-1.013 5.966-1.478 8.95-.274 1.697-.547 3.394-.876 5.063-.328 1.67-.657 3.257-1.04 4.872a257.202 257.202 0 0 0-1.122 4.899c-.356 1.642-.766 3.066-1.095 4.626-.328 1.56-.657 3.147-1.04 4.707-.383 1.561-.794 3.121-1.122 4.708-.328 1.588-.547 3.367-.766 5.064-.22 1.697-.466 3.202-.575 4.817a44.158 44.158 0 0 0 0 5.036c0 1.45.219 2.901.328 4.352a118.577 118.577 0 0 1-.547 3.038c-.438 2.326-.985 4.625-1.56 6.897-.575 2.272-1.122 4.324-1.533 6.514-.41 2.19-.712 4.598-1.095 6.897-.383 2.299-.739 4.626-1.095 6.925a26.066 26.066 0 0 0-.219 3.859c.015.691.097 1.378.247 2.053v.383c.088.497.274.972.547 1.396a3.78 3.78 0 0 0 1.588 1.478 3.455 3.455 0 0 0 1.724.438c.236.027.475.027.712 0a3.97 3.97 0 0 0 3.202-3.64v-2.518c0-1.697.192-3.422.383-5.119.192-1.697.52-3.941.74-5.912.218-1.97.382-4.625.574-6.952.191-2.326.438-4.707.684-7.034 0-1.396.246-2.737.356-4.187v-.821c.274-1.807.602-3.613.985-5.474.383-1.862.849-3.75 1.314-5.639a473.44 473.44 0 0 1 2.737-10.729c.246-.876.52-1.751.794-2.737l1.067-3.093c.657-1.806 1.396-3.585 2.108-5.474l.684-1.505a.353.353 0 0 0 0-.301c.712-1.615 1.45-3.23 2.244-4.817l.849-1.615.355-.411c.261-.251.536-.489.822-.711l.848-.684c.272-.208.555-.399.849-.575l.875-.52 3.039-1.533c1.012-.465 1.97-1.013 2.928-1.533a42.266 42.266 0 0 0 2.737-1.642l2.737-1.587c1.834-1.013 3.668-1.971 5.474-2.956l2.737-1.506h-.164l1.095-.574h.191l2.464-1.287h.328l.219-.137.301-.246.164-.137 3.23-1.697 6.596-3.476 3.285-1.669 3.64-1.916c1.095-.602 2.162-1.259 3.23-1.889l3.038-1.724 1.888-1.04c2.272-1.177 4.544-2.327 6.761-3.558.629-.356 1.204-.739 1.806-1.123l.712-.136 1.806-.274h.876l.794-.137h-.165.822c1.696-.137 3.421-.191 5.118-.274l4.598-.273c1.587 0 3.147-.411 4.707-.685l2.026-.383 2.436-.52 1.149-.273 1.396-.384.849-.273 1.177-.384h.301l.356-.164.629-.246h.383l.849-.383.711-.301 1.834-.356 2.026-1.013 1.149-.602 1.04-.657a24.145 24.145 0 0 0 3.586-2.901l.191-.164 2.737-2.573 2.573-2.518a46.336 46.336 0 0 0 3.148-3.394c.547-.63 1.04-1.259 1.532-1.916l.712-.985.629-.958.329-.548c0-.136.164-.273.219-.41.055-.137.356-.684.52-1.04.164-.356.657-1.478.93-2.245a125.5 125.5 0 0 0 1.533-4.543c.493-1.533.903-2.929 1.341-4.407.438-1.478.931-2.901 1.451-4.351.52-1.451.985-2.737 1.478-4.215.493-1.478 1.04-2.902 1.587-4.325 1.095-2.928 2.245-5.83 3.34-8.758.52-1.451 1.04-2.902 1.532-4.352a36.2 36.2 0 0 0 1.095-4.188.765.765 0 0 0 0-.684.704.704 0 0 0-.684-.219.786.786 0 0 0-.383.219l-.438.356-.739.602-1.697 1.259-1.15.794-1.341.766c-.684.383-1.396.739-2.107 1.095-.712.356-1.944.985-2.929 1.396-.985.41-1.533.465-2.272.711l-1.149.247a8.637 8.637 0 0 1-1.15.219l-2.053.355-1.094.165-1.177.191c-.926.161-1.84.38-2.737.657a16.932 16.932 0 0 0-4.681 2.737c-.656.465-1.286.985-1.943 1.478l-1.752 1.341c-.355.247-.684.52-1.067.739l-1.122.739-.575.356-.547.329-1.068.574-2.08 1.15c-.712.383-1.368.793-2.053 1.204a6.565 6.565 0 0 0-.903.602 9.644 9.644 0 0 0-.848.63c-.304.213-.596.441-.876.684l-.986.903-.93.931-.657.657-.821.876-.876.985c-2.08 2.381-4.051 4.872-5.967 7.362l-1.368 1.889a47.763 47.763 0 0 0-1.341 1.916l-.466.766c-.218.356-.465.684-.656 1.068-.192.383-.767 1.313-1.095 1.998-.329.684-.356.657-.52 1.012l-.602 1.287-.411.93-.438 1.013a315.605 315.605 0 0 0-1.779 4.543l-1.505 4.051c-.301.794-.602 1.615-.931 2.409l-.821 2.025-.684 1.588a214.715 214.715 0 0 1-1.944 4.406l-.301.247-1.916 1.313a36.92 36.92 0 0 1-2.052 1.205h.191l-.958.52-6.13 3.257h-.438c-2.737 1.56-5.474 3.284-8.376 4.872-2.408 1.286-4.844 2.518-7.253 3.777l.137-.137a68.08 68.08 0 0 0 1.697-2.217l1.588-2.108 2.518-3.366 2.49-3.175 2.546-3.394c.793-1.095 1.615-2.162 2.326-3.339l.192-.329.191-.328.575-.985 1.916-3.531c.189-.301.363-.612.52-.931a3.35 3.35 0 0 0 .438-1.012 2.73 2.73 0 0 0-.192-1.697 3.36 3.36 0 0 0-1.149.903 2.18 2.18 0 0 0-.356.52l-.246.438c0 .274-.301.547-.438.848l-.986 1.834c-.656 1.177-1.313 2.381-1.97 3.531-.329.547-.657 1.04-1.013 1.56l-1.177 1.642c-.766 1.095-1.587 2.162-2.408 3.23-.822 1.067-1.67 2.217-2.519 3.312-.848 1.094-1.587 2.162-2.353 3.257-1.642 2.271-3.203 4.598-4.927 6.787l-6.487 3.531a225.279 225.279 0 0 0-6.514 3.832c-2.162 1.314-4.324 2.573-6.459 3.941-2.135 1.369-3.996 2.737-6.104 3.887l-1.806 1.012-1.45.822-.822.52-.793.547.492-.876a99.744 99.744 0 0 1 2.3-3.585l2.298-3.339c1.615-2.354 3.258-4.735 4.845-7.117 1.587-2.381 3.038-4.598 4.653-6.842 1.615-2.245 3.312-4.379 5.008-6.514 2.08-2.573 4.188-5.146 6.241-7.719 1.615-1.97 3.202-3.941 4.817-5.884 1.615-1.944 3.038-3.75 4.407-5.748a104.495 104.495 0 0 0 4.844-7.581c1.505-2.601 2.737-5.146 4.188-7.774l2.08-3.996c.684-1.286 1.396-2.572 2.08-3.886 1.314-2.737 2.545-5.283 3.722-7.992a960.207 960.207 0 0 0 3.066-7.144c.52-1.231 1.095-2.463 1.669-3.695l.219-.438.63-.821c.684-.848 1.368-1.697 2.107-2.49a56.431 56.431 0 0 0 1.615-1.78l2.299-2.49c2.518-2.737 5.064-5.474 7.582-8.211s4.215-5.091 6.459-7.554c1.177-1.314 2.409-2.601 3.586-3.914a39.804 39.804 0 0 0 3.065-3.996l1.177-.876 5.474-4.106c.684-.492 1.396-1.012 2.108-1.45.711-.438 1.478-.876 2.244-1.314l3.695-1.807c1.231-.574 2.463-1.094 3.695-1.614 1.232-.52 2.737-1.04 3.968-1.615a30.172 30.172 0 0 0 2.108-1.068 23.652 23.652 0 0 0 2.244-1.395 38.88 38.88 0 0 0 2.162-1.561 27.789 27.789 0 0 0 1.862-1.56l1.916-1.861c.684-.684 1.341-1.396 1.998-2.107 1.067-1.15 2.107-2.327 3.229-3.422 1.123-1.094 2.546-2.353 3.723-3.64 1.177-1.286 2.326-2.737 3.448-3.968 1.122-1.232 2.163-2.519 3.203-3.805a72.062 72.062 0 0 0 1.779-2.272l.739-1.04c.246-.41.52-.821.739-1.259.219-.438.793-1.396 1.122-2.135l1.149-2.737c.311-.803.584-1.596.821-2.381.274-.848.548-1.697.767-2.573.219-.875.41-1.642.602-2.463.192-.821.356-1.724.52-2.6l.41-2.491c0-.793.247-1.587.356-2.381v-.794.219V167.955c.356-2.381.63-4.817.876-7.226 0-1.259.274-2.518.356-3.804.082-1.287.164-2.217.164-3.312V152.354l.082.082Zm-97.684-33.693c-.136-.547-.246-1.067-.383-1.587s-.137-.63-.191-.931c-.055-.301 0-.356 0-.52-.192-.93-.329-1.888-.466-2.737 0-.766-.164-1.587-.191-2.381-.028-.794 0-1.834 0-2.737v-3.065c0-1.04.219-2.135.356-3.121 0-.41 0-.793.191-1.177l.493-2.517c.191-.822.356-1.643.547-2.41v-.355c.329-1.396.63-2.737 1.013-4.215l.41-1.259.52-1.396c.302-.684.548-1.231.822-1.724.273-.493.547-1.04.875-1.615a85.45 85.45 0 0 1 2.026-3.449l.274-.492 1.56-2.409 1.04-1.478 1.122-1.478.821-.985.739-.766.192-.165.383-.328.574-.465.63-.466.411-.3.739-.52.164-.138h.191l2.108-1.505 1.916-1.396h.137l1.067-.821 2.025-1.56.986-.767 3.941-3.23c1.204-1.012 2.463-2.08 3.722-3.065l1.697-1.34.247-.192v.355c-.52.958-1.068 1.916-1.615 2.737-.548.822-.712 1.15-1.15 1.78a133.077 133.077 0 0 0-2.408 3.503c-1.642 2.436-3.339 4.954-5.173 7.28-.63.767-1.314 1.56-2.026 2.327l-.903.93-.137.137-.273.247-.822.875v.165c-.16.16-.306.334-.437.52l-.493.684c-.356.547-.63.985-.848 1.396a34.49 34.49 0 0 0-1.561 3.038l-.246.547c-.192.41-.383.821-.547 1.26-.189.428-.353.867-.493 1.313l-.493 1.505v.274l-.164.52v.356a.728.728 0 0 0 0 .328.385.385 0 0 0 .301.165.81.81 0 0 0 .383-.63v-.164c0-.164.137-.41.192-.63v-.3c.164-.52.356-1.04.547-1.533.231-.581.496-1.148.794-1.697.301-.575.63-1.122.931-1.67.301-.547.629-1.04.958-1.533.328-.492.602-.82.903-1.204l.137-.164v-.164c.164-.22.356-.41.547-.63.169-.196.352-.379.548-.547l1.313-1.177 1.396-1.232a23.89 23.89 0 0 0 2.573-2.737c.739-.93 1.533-1.697 2.326-2.737l.685-.794 1.396-1.614 2.134-2.738c.131-.194.278-.377.438-.547.52-.684 1.068-1.368 1.533-2.107a26.62 26.62 0 0 0 1.67-3.038c.547-1.15 1.04-2.19 1.45-3.148.206-.456.389-.922.548-1.396a3.375 3.375 0 0 0 0-.492 3.376 3.376 0 0 0 0-.493 2.798 2.798 0 0 0 0-.684l.684-.575v.219c0 .684 0 1.368-.192 2.025v.274c0 .848-.191 1.67-.301 2.518v.246l-.41 3.038-.247 1.834v-.082l-.246 1.615-.137.82-.164 1.26v.164c0 .274 0 .548-.137.821-.137.274 0 .849-.192 1.26a47.738 47.738 0 0 0-.437 2.736c-.302 1.642-.63 3.257-1.041 5.173 0 .548-.218 1.095-.355 1.643l-.165.793c0 .493-.246.958-.355 1.45-.11.493-.137.52-.219.767-.082.246-.219.821-.356 1.204v.438c0 .383-.246.74-.356 1.095v.438c0 .356-.246.712-.383 1.068l-.247.574c0 .301-.273.63-.383.93l-.219.439-.191.438v.3c-.08.197-.172.39-.274.576l-.328.684-.739 1.396-1.232 2.38c-.438.795-.876 1.588-1.341 2.382-.465.794-.63 1.122-.958 1.697l-.164.274-.383.575-.384.602a6.588 6.588 0 0 1-.492.711v.356c-.164.219-.301.438-.466.63l-.246.328-.547.684-.657.767-.219.273-.657.712v.164l-.657.63-.931.903-.602.547c-.13.086-.25.187-.355.301l-1.369.794-1.533 1.204-.492.411-.384.274c-1.122.903-2.299 1.806-3.421 2.737l-1.97 1.724c-.63.547-1.205 1.15-1.78 1.697a50.22 50.22 0 0 0-1.642 1.697l-1.149 1.314c0-.329.219-.685.301-1.013a297.468 297.468 0 0 0 1.806-5.994c.356-1.177.685-2.327 1.04-3.476.356-1.15.602-1.971.876-2.929.274-.958.684-2.217 1.013-3.339.465-1.587.985-3.257 1.533-5.228.191-.656.383-1.34.602-2.052a1.708 1.708 0 0 0 0-.63 1.322 1.322 0 0 0-.192-.575 1.449 1.449 0 0 0-.903-.63h-.274c-.313.003-.615.12-.848.33a1.445 1.445 0 0 0-.52.793c-.301 1.204-.63 2.436-.958 3.668l-.657 2.271-.164.493-.411 1.396a40.768 40.768 0 0 1-.876 2.737l-.219.629-.985 3.039-1.067 3.202-2.464 7.636-1.012 3.038v-.41a7.453 7.453 0 0 0-.247-1.123v-.355c-.328-.301-.438-.739-.575-1.205ZM85.094 84.695v.465c0 .356 0 .74-.219 1.095v.356c0 .465-.136.93-.219 1.396-.082.465 0 .876-.191 1.34-.192.466 0 .986-.22 1.561 0-.383 0-.766-.136-1.15v-.739c0-1.45-.301-2.737-.465-4.187 0-.903-.247-1.834-.356-2.737l-.164-1.396c-.22-1.78-.41-3.668-.602-5.94 0-.547 0-1.122-.137-1.669 0-1.259-.22-2.573-.384-3.886l-.328-3.23v-3.066c0-1.15 0-2.271-.164-3.12 0-1.286-.246-2.354-.41-3.339v.274c0 .3-.138.602-.192.903-.055.301-.329 1.478-.438 2.217-.11.739-.164.958-.22 1.45v1.697a30.124 30.124 0 0 0 0 3.12c0 .794.192 1.588.275 2.382V69.614c.246 2.135.41 4.297.574 6.405v.191c.165 2.08.356 4.133.575 6.377.219 2.245.356 4.298.493 6.432v1.123c0 1.724.219 3.503.356 5.255 0 .656 0 1.313.191 1.943-.219-.301-.438-.63-.684-.93a93.491 93.491 0 0 0-1.943-2.464 81.912 81.912 0 0 0-2.3-2.737l-1.313-1.533c-.41-.492-.794-.93-1.15-1.396-.355-.465-.985-1.231-1.45-1.86l-.52-.685-.384-.575c-.438-.602-.848-1.231-1.259-1.86l-.246-.384-.63-.985-.355-.603-.438-.766c-.22-.438-.466-.876-.684-1.341-.22-.465-.274-.547-.411-.821v-.301a16.628 16.628 0 0 1-.465-1.013l-.575-1.314v-.191l-.247-.74v-.3l-.219-.657c0-.329-.191-.63-.273-.958l-.821-1.095-.329-1.505c0-.356 0-.74-.191-1.095 0-.794-.247-1.67-.383-2.737v-2.655c.013-.155.013-.31 0-.465v-6.405c0-.602.164-1.232.273-1.834v-.383l.41-2.272c.192-.93.384-1.86.603-2.737.219-.876.301-1.231.465-1.834v-.41l.301-.876.247-.739.328-.93v-.22c.356-.957.712-1.915 1.095-2.873.383-.958.739-1.97 1.122-2.929.383-.958.848-2.217 1.286-3.312l.165-.465c.356-.876.684-1.752 1.04-2.737.356-.985.93-2.244 1.396-3.312 0-.246.219-.465.3-.684l1.479-3.148.547-1.15c.356-.765.74-1.587 1.15-2.38.191-.356.355-.712.547-1.04l.192-.356.52-.903.355-.575.575-.903.603-.93.355-.494.575-.875c.438-.603.876-1.26 1.287-1.889l.903-1.478c.273-.493.52-.958.739-1.423l.739-1.56c.219-.52.465-1.04.711-1.56l1.506-3.312a20.12 20.12 0 0 0 1.067-2.901c.08.09.144.19.192.3.246.439.438.931.657 1.424v.274l.136.355c0 .329.274.657.384.986v.465c.134.32.243.65.328.985.301 1.068.602 2.108.876 3.148.273 1.04.438 1.806.63 2.737.437 2.053.793 4.215 1.149 6.596.164 1.341.356 2.737.52 3.996 0 .903.219 1.807.356 2.737a91.458 91.458 0 0 0 1.15 6.843c0 .793.3 1.56.465 2.354l.246 1.15c.191.984.356 1.997.493 2.982v.22c0 .41 0 .793.136 1.176V46.623l-.246 2.19v.356l-.192 1.15c0 .71-.273 1.422-.383 2.134l-.41 1.943v.74c-.192.93-.41 1.86-.63 2.736v.164c0 .329-.164.685-.273 1.04v.438l-.302 1.04-.164.493-.328 1.013-.329.903-.164.41c-.219.63-.492 1.26-.739 1.862l-.301.739c-.192.492-.41.985-.602 1.505-.493 1.204-.985 2.436-1.505 3.64-.52 1.205-.712 1.615-1.04 2.409l-.849 1.998c-.328.794-.657 1.587-.958 2.409l-.493 1.477c-.191.603-.355 1.205-.547 1.807a21.282 21.282 0 0 0-.465 1.779c-.059.17-.104.344-.137.52v.164a.821.821 0 0 1 0 .274c.007.25.044.498.11.739ZM70.068 110.97l-2.299-.191h-.547l-1.861-.137h-5.01c-.82 0-1.669.246-2.6.438l-2.244.492h-.246l-2.217.548-2.737.739-.821.246c-1.396.411-2.874.821-4.79 1.314l-3.202.876-1.725.465-1.86.465-.959.165-.876.164H30.764c-.848 0-1.778 0-2.736-.247a24.891 24.891 0 0 1-3.23-.684 29.073 29.073 0 0 1-3.832-1.368 30.942 30.942 0 0 1-3.147-1.615 24.555 24.555 0 0 1-2.737-1.916 30.036 30.036 0 0 1-2.737-2.409 24.28 24.28 0 0 1-1.15-1.286l-.465-.602-.41-.52-.603-.739-.794-1.122-.191-.274c-.41-.575-.794-1.15-1.177-1.752l-.22-.301-1.395-2.08-.848-1.259-.548-.766c0-.22-.246-.41-.383-.63l-.137-.219c-.274-.438-.575-.93-.848-1.423v-.164a6.537 6.537 0 0 1-.356-.767v-.273h.575l4.872-.329 2.08-.137 2.737-.191c1.395 0 2.737-.137 4.762-.164h2.409c.739 0 1.724 0 2.518-.247a19.147 19.147 0 0 0 2.436-.492c.739-.192 1.478-.411 2.19-.657l.985-.301c1.15-.384 2.353-.794 3.558-1.123.52 0 .985-.219 1.423-.273.683-.041 1.369-.041 2.053 0h5.939c.848 0 1.752.137 2.737.273.922.129 1.836.312 2.737.548.932.26 1.846.58 2.737.958l1.095.52.794.383h.164l.328.192h.192l.273.164.411.246.547.356.22.164h.218l.466.301.41.329 1.013.766.739.63.602.52.766.684.301.3c.301.275.63.576.931.904l.438.465.739.767c.301.328.575.657.876.958l.356.438.738.848.274.329c0 .164.301.328.438.52l-.547-.192-.849-.246-.438-.137-.574-.137h-1.287a32.907 32.907 0 0 0-2.353-.438l-3.039-.301-2.545-.137-2.983-.191c-1.916-.165-3.832-.411-5.639-.63l-4.242-.52-1.533-.164-2.956-.301-2.737-.192h-3.147a6.46 6.46 0 0 0-1.232.22c-.395.135-.779.3-1.15.492a3.964 3.964 0 0 0 1.89 1.149c.235.027.474.027.71 0h3.148l2.901.192 2.737.301 1.615.164 3.969.438h.301c1.724.219 3.53.438 5.31.602h2.71l1.477.137 1.342.164 1.888.301.684.137.767.192h.219l2.299.684c.657.192 1.286.465 1.916.712h.492c.602.246 1.205.547 1.78.848l.355.192.712.383.876.547c1.04.657 2.08 1.369 3.065 2.026l1.177.793.082 1.095Zm6.733 141.504c-.164-.821-.356-1.643-.52-2.464l-.492-2.463V247c0-.685-.274-1.369-.439-2.081-.164-.711-.41-1.751-.684-2.6 0-.355-.273-.739-.438-1.122a15.47 15.47 0 0 0-.574-1.177 63.28 63.28 0 0 1-1.15-2.326 28.483 28.483 0 0 1-.821-1.889V235.121l-.192-.52c-.246-.684-.492-1.369-.766-2.053-.274-.684-.63-1.779-.958-2.737-.328-.958-.903-2.436-1.341-3.613l-.383-1.122-.575-1.56a84.087 84.087 0 0 1-1.122-3.148 108.101 108.101 0 0 1-.794-2.463l-.63-2.271a57.96 57.96 0 0 1-.93-5.748l-.219-1.67c-.164-1.341-.356-2.737-.52-4.023v-.821c-.137-1.177-.328-2.409-.493-3.586 0-.52 0-1.067-.219-1.587a156.141 156.141 0 0 1-.492-5.146c-.11-1.478-.192-3.558-.22-5.255v-5.2a31.167 31.167 0 0 0-.656-4.872 22.788 22.788 0 0 0-.821 4.379v9.279c0 1.313.164 2.737.273 4.078 0 1.396.301 2.737.52 4.406 0 .52 0 1.04.22 1.533.218.493.246 1.642.355 2.463l.575 4.106v.766c.22 1.615.465 3.257.766 4.872a60.505 60.505 0 0 0 2.737 9.388c.493 1.341.958 2.737 1.424 4.078l.219.575c.219.684.465 1.341.711 2.025.246.685.685 1.916.986 2.874l.383 1.122a71.095 71.095 0 0 0 1.259 3.613 27.93 27.93 0 0 0 1.095 2.518v.192c.3.629.602 1.259.876 1.916.273.657.3.958.437 1.423.356 1.533.63 3.093.876 4.598v.301c.329 1.861.657 3.613.986 5.283v.438l-.22-.438-.246-.548-.164-.41a22.273 22.273 0 0 1-.575-1.341 83.542 83.542 0 0 0-1.423-3.148 37.45 37.45 0 0 0-1.67-3.038v-.164a4.791 4.791 0 0 1-.3-.493 7.904 7.904 0 0 0-.52-.794l-.192-.273-.438-.63-.575-.711c-.301-.384-.63-.739-.958-1.095l-.219-.219c-.41-.438-.848-.849-1.341-1.314a14.555 14.555 0 0 0-1.287-1.095c-.465-.356-.93-.739-1.423-1.122l-1.998-1.368-.876-.575-1.587-1.122c-.328-.219-.63-.466-.903-.685l-.329-.246-.355-.301-.548-.438a18.771 18.771 0 0 1-1.724-1.588 8.9 8.9 0 0 1-.821-.957c-.192-.274-.356-.548-.52-.822-.301-.514-.575-1.044-.821-1.587l-.575-1.232-.164-.383a58.206 58.206 0 0 1-1.369-3.147c-.794-2.163-1.533-4.571-2.244-7.308-.247-1.013-.465-2.053-.712-3.175a30.325 30.325 0 0 1-.493-3.12c-.11-.958 0-1.095 0-1.615v-1.588c0-.52 0-1.916.192-2.983.192-1.067.219-2.107.328-3.011.11-.903.384-2.162.575-3.202v-.301c.192-.903.438-1.806.684-2.737a124.538 124.538 0 0 1 2.19-7.007c.237-.675.484-1.332.74-1.97a125.838 125.838 0 0 1 2.244-5.474l.492-1.177c.41-.958.849-1.998 1.232-3.066.191-.52.41-1.095.602-1.697.192-.602.41-1.231.63-1.916.218-.684.246-.821.355-1.231v-.466l.41-1.669c.302-1.205.576-2.436.85-3.64v-.657c.218-.904.41-1.807.629-2.737.219-.931.219-1.04.356-1.56a.824.824 0 0 0 0-.274l.219.137h.164a28.513 28.513 0 0 1 2.928 1.97 27.452 27.452 0 0 1 2.026 1.944l.684.711c1.15 1.15 2.08 2.08 2.901 2.956l.329.329.3.356c.959.985 1.862 2.025 2.738 3.038.876 1.012 1.232 1.395 1.861 2.107.63.712 1.177 1.314 1.779 1.943l.739.794c.88.951 1.712 1.947 2.49 2.983.339.456.65.931.931 1.424.274.547.575 1.149.849 1.751.273.602.493 1.15.739 1.779v.165c.191.574.41 1.149.602 1.751.191.602.328 1.205.465 1.752v.602l.164.794.165.903v.493c0 .739.219 1.505.3 2.244V192.889a44.844 44.844 0 0 0 1.095 6.268c.165.602.302 1.122.466 1.614.164.493.355.986.547 1.451l.602 1.204c.22.411.493.849.794 1.342l.958 1.505v.219c.281.413.537.842.766 1.286.19.321.345.66.466 1.013.218.575.383 1.177.574 1.861v.137c0 .493.22.985.301 1.478.083.493.165 1.067.22 1.587a.939.939 0 0 0 0 .274c.013.246.013.493 0 .739v7.554c.01.155.01.311 0 .466l-.329 1.313a67.585 67.585 0 0 1-.739 2.108c-.274.739-.52 1.286-.766 1.861-.247.575-.903 1.943-1.341 2.901-.438.958-.575 1.205-.876 1.834l-1.232 2.737c-.137.328-.301.684-.438 1.04-.01.109-.01.219 0 .329a8.152 8.152 0 0 0-.328.875l-.165.466c0 .383-.246.766-.355 1.177l-.165.492-.328 1.232-.903 3.722c-.438 1.916-.876 3.832-1.287 5.775 0 .438-.219.849-.3 1.314a79.97 79.97 0 0 0-.712 3.367c-.22 1.176-.466 2.408-.712 3.695l-.246 1.423-.247 1.505c0-.328-.191-.657-.3-.985-.247-1.943-.603-4.024-1.068-6.405l-.493-2.189Zm45.763 63.471.137-.246 1.231-2.245c.219-.383.438-.766.63-1.177.12-.195.23-.395.329-.602.41-.766.738-1.478 1.094-2.189.356-.712.63-1.424.931-2.108v-.164c.465-1.04.903-2.108 1.314-3.148l.41-.958a184.23 184.23 0 0 1 1.697-4.078v-.219c.246-.492.465-1.012.712-1.533.084-.158.157-.323.219-.492l.137-.274v-.246l.246-.493.246-.492.164-.302v-.219l.247-.465.191-.356.657-1.094.438-.739.465-.712c.137-.192.247-.383.384-.548l.164-.246.246-.356.466-.657.273-.383.247-.355.821-1.123.957-1.259.466-.629c.301-.356.575-.739.848-1.095l.602-.739.931-1.177.411-.52.246-.274.246-.301.767-.958.848-.985.356-.438a69.79 69.79 0 0 1 2.381-2.573l.465-.438.165-.136c.114-.133.242-.252.383-.356l.575-.52.301-.247.492-.355.329-.247.438-.301.41-.246 1.095-.684 1.533-.876 1.806-1.068a32.228 32.228 0 0 0 3.668-2.518l1.861-1.478 1.505-1.177.301-.273.219-.137.438-.301.438-.329 1.177-.684 1.122-.547 1.177-.356h.246l.74-.164H167.725l.958-.137H170.133l2.026-.301h.301l.821-.137h.356l.876-.192h.301l.848-.246a13.316 13.316 0 0 0 2.737-1.04l.684-.329 1.478-.739 2.08-1.149c.63-.383 1.259-.794 1.916-1.287l1.642-1.313v.191a33.003 33.003 0 0 1-.547 1.779l-.629 1.67-1.123 2.737.137.575a293.291 293.291 0 0 0-1.779 4.379c-1.095 2.737-2.189 5.474-3.284 8.512a166.4 166.4 0 0 0-1.56 4.407c-.493 1.45-.931 2.901-1.369 4.351l-.383 1.232c-.301 1.04-.629 2.108-.958 3.148l-.821 2.408a37.9 37.9 0 0 1-.766 1.861v.274l-.493 1.013-.63 1.122-.793 1.149-.657.876-.164.247-.301.356-.274.355c-.739.849-1.451 1.67-2.19 2.464-.739.793-1.587 1.587-2.408 2.353l-.329.548-1.533 1.45-.793.739-2.135 1.971c-.657.602-1.369 1.177-2.108 1.779l-.219.164-.355.247c-.657.465-1.342.876-2.081 1.313l-1.724.548-1.533.766-.903.438-.602.274-.438.164-.41.192-.603.273-.629.219-.63.247-.848.273h-.301l-1.04.301h-.548l-.739.192-1.943.411-2.053.41-2.326.411-1.478.219h-.903a8.586 8.586 0 0 1-.849 0H124.918l.164-.137 1.724-1.451 1.123-.93.656-.548 2.081-1.752c2.052-1.779 3.968-3.585 5.72-5.474a36.716 36.716 0 0 0 2.463-2.737 61.83 61.83 0 0 0 2.299-2.901l1.834-2.463c.903-1.204 1.807-2.436 2.737-3.64.931-1.205 1.505-1.779 2.244-2.6.739-.822 1.643-1.643 2.327-2.327l1.451-1.259a44.847 44.847 0 0 0 2.436-2.19c1.313-1.313 2.545-2.737 3.694-3.996a36.054 36.054 0 0 0 2.737-3.366c.794-1.095 1.177-1.451 1.78-2.162.602-.712 1.642-1.944 2.408-2.902l1.451-1.97.629-.903.63-.849.41-.547v-.192l.383-.493v-.191c.127-.132.237-.279.329-.438a.655.655 0 0 0 0-.63.448.448 0 0 0-.356-.164.658.658 0 0 0-.356.192l-.246.274-.493.629-2.08 2.737-1.122 1.533-1.04 1.341a554.394 554.394 0 0 1-4.598 5.474 87.671 87.671 0 0 1-3.531 3.722l-1.259 1.259-.329.329-.355.301a30.637 30.637 0 0 1-2.737 2.217l-1.423 1.095-1.533 1.231a50.034 50.034 0 0 0-5.255 5.091c-.767.821-1.506 1.67-2.245 2.518a113.98 113.98 0 0 1-2.956 3.257 122.243 122.243 0 0 1-5.036 5.091l-4.215 3.832-1.314 1.177-1.094 1.012-1.834 1.643-1.068.93.411.794Zm31.996-149.058c.252-.119.491-.266.711-.438l.411-.246 1.259-.739h.164l.821-.41a2.34 2.34 0 0 0 0 .41 64.174 64.174 0 0 1-.657 2.08c-.465 1.396-.985 2.737-1.505 4.133l-.356.958a136.212 136.212 0 0 1-2.08 5.173c-.739 1.724-1.177 3.066-1.724 4.571l-.247.684-.903 2.409c-.328.821-.657 1.697-1.04 2.545a44.179 44.179 0 0 1-1.095 2.299c-.41.794-.711 1.314-1.095 1.943l-1.176 1.779a97.76 97.76 0 0 1-2.737 3.805 74.427 74.427 0 0 1-1.615 2.08l-.274.329-.958 1.122-1.177 1.313-.191.219c-.849.958-1.725 1.862-2.546 2.737l-.575.493.548-2.244c.465-1.889.93-3.75 1.368-5.639v-.136c0-.466.247-.904.356-1.369v-.137c.137-.602.274-1.204.438-1.806.164-.602.164-.602.219-.903v-.438a1.044 1.044 0 0 0 0-.137.516.516 0 0 0 0-.192.892.892 0 0 0 0-.219v-.137l.164-.574v-.247c.219-.766.466-1.505.712-2.189a75.51 75.51 0 0 1 1.204-3.011l.958-2.107.958-1.944c.684-1.341 1.423-2.6 2.107-3.777l1.451-2.299 1.752-2.573.246-.328.219-.329a93.88 93.88 0 0 0 1.861-2.737 29.71 29.71 0 0 0 1.615-2.873 11.232 11.232 0 0 0 2.409-.822v-.082Zm-26.029-1.094c-.219-1.26-.411-2.518-.602-3.887v-.328c0-.685-.137-1.424-.192-2.163-.055-.739 0-1.779 0-2.737v-1.231c0-1.15 0-2.135.137-3.066.137-.93 0-1.724.219-2.6.219-.876.137-1.204.191-1.779v-.274c.247-1.478.493-3.065.794-4.625.301-1.56.493-2.436.766-3.613V139.025c.247-1.15.52-2.272.767-3.422l.164-.629c.274-1.259.575-2.491.876-3.723l.985-4.214a294.65 294.65 0 0 0 1.807-8.348c.438-2.108.711-4.27 1.012-6.378 0-.547 0-1.094.219-1.642v-.137c.356-2.244.63-4.242.876-6.185v-.794c.247-1.806.465-3.585.712-5.474v-.192a2.165 2.165 0 0 0 0-.41c0-.493.164-.958.246-1.369a.838.838 0 0 1 0-.273c.438.63.821 1.286 1.204 1.916l1.04 1.833c.52 1.013 1.013 1.916 1.424 2.737l1.149 2.327 2.026 4.352.328.684 1.724 3.667c.63 1.26 1.259 2.546 1.916 3.777a100.048 100.048 0 0 0 2.108 3.75 166.726 166.726 0 0 1 2.025 3.504l.274.465c.274.52.575 1.04.821 1.56s.657 1.396.958 2.08v.164c.192.466.356.931.52 1.396.164.465.328 1.068.465 1.588 0 .52.247 1.149.356 1.806.11.657.164 1.068.246 1.588v7.335c0 1.122-.191 2.217-.328 3.339a33.885 33.885 0 0 1-.602 3.449c-.301 1.423-.575 2.6-.821 3.64v.492c-.52 2.163-1.068 4.407-1.67 6.597v.41c-.192.63-.383 1.287-.629 1.916-.247.63-.575 1.451-.849 2.162-.274.712-.629 1.341-1.013 2.08a34.321 34.321 0 0 1-1.149 2.053c-.383.63-.903 1.423-1.369 2.108l-.903 1.396-1.806 2.737c-.384.574-.657 1.122-1.013 1.697-.356.574-1.177 1.915-1.67 2.737v-.356c0-.411.192-.794.301-1.205v-.656c.302-1.095.575-2.245.794-3.394.13-.642.221-1.291.274-1.944 0-.684 0-1.368.137-2.08a75.064 75.064 0 0 0-.739-16.969c-.246-1.287-.52-2.737-.903-4.352a62.96 62.96 0 0 0-.548-2.409 80.217 80.217 0 0 1-.438-1.888v-.329a36.366 36.366 0 0 1-.383-1.806c-.109-.602-.274-1.423-.383-2.135-.219-1.177-.356-2.354-.493-3.503v-5.912c0-1.834-.137-3.504-.191-5.146v.63a166.319 166.319 0 0 0-.384 3.64c0 .712-.136 1.396-.191 2.053-.055.657 0 1.313 0 1.97V139.161c.048.598.13 1.192.246 1.78 0 .711.247 1.395.383 2.052.137.657.247 1.259.384 1.834.301 1.286.602 2.737.876 3.887v.164c.246 1.204.519 2.436.738 3.667.219 1.232.438 2.601.575 3.695l.246 2.518c0 .849 0 1.725.165 2.601v8.84c0 .684 0 1.396-.165 2.08h-.246a.525.525 0 0 0-.328 0c-.222.216-.35.511-.356.821a70.271 70.271 0 0 1-1.369 6.761l-1.779 7.335-.492 2.025v.219c-.247.767-.52 1.56-.767 2.409v.164c0 .164-.273.931-.383 1.423l-.328 1.15v-1.724c0-1.588-.247-2.902-.438-4.106 0-.657-.246-1.314-.383-1.998-.137-.684-.356-1.396-.575-2.107a9.748 9.748 0 0 0-.329-.958 44.42 44.42 0 0 0-1.259-3.367l-.437-1.067-.931-2.245-.246-.629a1.924 1.924 0 0 0 0-.356 1.128 1.128 0 0 0-.438-.739 127.81 127.81 0 0 1-.986-2.983l-.93-3.312c-.548-.794-.821-1.943-1.04-3.12v-.082Zm-17.681 44.394v-1.204c0-.384.164-1.67.301-2.737.137-1.068.219-1.314.328-1.889.11-.575.219-1.15.329-1.67l.41-1.724c.164-.602.329-1.232.493-1.888v-.301c0-.219 0-.466.246-.712a1.765 1.765 0 0 1 0-.356c.07-.232.152-.461.246-.684v-.301l.247-.63.191-.438.219-.52c.602-1.368 1.259-2.737 1.971-4.297.712-1.56 1.478-2.737 2.272-4.16v-.246l.657-1.04.93-1.314.849-.958.875-.876c.63-.575 1.287-1.177 1.998-1.724l.603-.383.739-.438.492-.274.849-.438.958-.438 1.177-.383 1.122-.301h.164l.411.985.465 1.04v.301a93.602 93.602 0 0 1 1.45 3.339c.466 1.123.767 2.217 1.095 3.367.165.684.301 1.341.411 1.998.109.657.191 1.177.274 1.752v.164c0 .876.164 1.587.191 2.244.028.657 0 1.451 0 2.108v2.08c0 .602 0 1.533-.191 2.326-.137 1.287-.329 2.573-.493 3.832v.411a60.618 60.618 0 0 1-.52 3.092l-.301.986c-.794.383-1.67.766-2.737 1.177l-2.217.821-2.272.684h-.383l-1.314.356-1.341.383-.739.219-.766.219-.958.274-2.737.739-.548.137-1.095.246h-.301l-1.587.274h-.411l-1.122.191c.63-1.013 1.369-2.217 2.19-3.394l1.341-1.888c.456-.657.949-1.314 1.478-1.971V206.054l.246-.328 1.314-1.615 1.286-1.615 1.15-1.369c.383-.492.766-.958 1.177-1.423l2.217-2.737c.657-.794 1.286-1.615 1.943-2.463l1.369-1.752 1.642-1.998.93-1.177.165-.191.301-.384c0-.164.246-.328.356-.52a2.21 2.21 0 0 0 .218-1.259.782.782 0 0 0 0-.273h-.273c-.445.027-.868.2-1.205.492l-.41.438-.438.52-1.177 1.314c-.766.876-1.587 1.779-2.354 2.737l-1.697 2.053-1.642 1.97-1.204 1.396-2.272 2.737a139.053 139.053 0 0 0-3.421 4.297c-1.067 1.396-2.272 3.066-3.175 4.462a75.96 75.96 0 0 0-1.588 2.518l-.492.821-.219.356v.137-1.15c0-.328 1.314-1.369 1.314-1.779v-.082Zm5.665 45.243c-.766 1.478-1.56 2.928-2.326 4.379-.767 1.45-1.341 2.737-1.971 4.16-1.177 2.573-2.272 5.173-3.449 7.773a179.075 179.075 0 0 1-2.737 5.721c-.41.711-.821 1.45-1.259 2.162-1.259 2.217-2.545 4.461-3.749 6.705-1.205 2.245-2.737 4.763-3.996 7.117-.986 1.615-1.971 3.257-3.038 4.844l-1.697 2.409-.876 1.177c.52-1.725 1.013-3.449 1.423-5.201.547-2.326 1.122-4.653 1.642-7.006.52-2.354 1.04-4.571 1.506-6.87.465-2.299.875-4.681 1.259-7.062.383-2.381.684-4.653 1.012-7.006.301-1.999.548-4.024.794-6.049.63-4.845 1.177-9.689 1.67-14.534.273-2.6.465-5.228.602-7.855a.49.49 0 0 0 .246-.356c.164-.93.438-1.834.684-2.737.247-.903.548-1.971.794-2.928.219-.63.383-1.287.602-1.916.219-.63.438-1.342.685-1.971l.492-1.286c0-.247.164-.493.274-.739.301-.685.602-1.342.876-2.026.273-.684.684-1.505 1.04-2.244.356-.739.793-1.67 1.177-2.491.383-.821.848-1.642 1.259-2.491l1.313-2.408c.411-.766.876-1.505 1.314-2.272v-.191h6.569l2.272-.274c1.751-.246 3.531-.493 5.282-.794l2.737-.575 1.341-.355 1.451-.438c-1.122 3.695-2.217 7.362-3.23 11.085-.711 2.737-1.423 5.255-2.08 7.882l-.41 1.67c-.794 2.6-1.588 5.173-2.518 7.718a67.87 67.87 0 0 1-1.424 3.531l-1.478 3.448c-.684 1.506-1.396 2.984-2.107 4.462a103.854 103.854 0 0 1-1.971 3.914v-.082Zm86.052-102.2c0 .629 0 1.259-.219 1.861v.602l-.164 1.095-.165.958a55.812 55.812 0 0 1-.684 3.503c-.274 1.177-.629 2.737-1.095 4.434-.657 2.272-1.395 4.544-2.107 6.761V172.854c-.192.63-.411 1.259-.63 1.861l-.602 1.752a71.822 71.822 0 0 1-1.04 2.6l-.219.493-.191.438c-.384.848-.767 1.697-1.205 2.518-.438.821-1.067 2.025-1.642 2.956-.575.93-1.56 2.381-2.518 3.667a96.34 96.34 0 0 0-2.737 3.887c-.575.794-1.149 1.642-1.724 2.463-1.15 1.615-2.299 3.284-3.558 4.872l-.603.739c-.793.985-1.614 1.971-2.381 2.983l-1.095 1.478a39.188 39.188 0 0 1-1.669 2.217l-.411.493-.629.821c-.794.931-1.642 1.779-2.409 2.6l-.356.329-.766.684-.575.493-.602.465-.274.219a9.352 9.352 0 0 1-.848.575l-1.286.793-.603.329-.602.328a8.518 8.518 0 0 1-.876.411l-.41.191c-.657.329-1.341.575-2.026.849l-.602.246c-1.45.548-2.901 1.204-4.817 2.108a51.45 51.45 0 0 0-2.135 1.067h-.164c-.328.157-.648.331-.958.52l-.356.192a7.7 7.7 0 0 0-.793.492c-.767.493-1.478.958-2.163 1.478l-1.204.958.63-.739c.821-.958 1.669-1.916 2.573-2.737 0-.164.301-.301.437-.438l.438-.41.821-.903.466-.493.355-.383c.294-.321.568-.659.822-1.013.438-.602.793-1.232 1.176-1.861l.165-.301.356-.575c.273-.52.574-1.04.875-1.533l.165-.273.164-.247c.164-.273.328-.574.52-.848l.602-.903.438-.63c.438-.629.848-1.232 1.286-1.779l.739-.848.657-.685.739-.876.903-.738.931-.685.602-.465c.602-.411 1.15-.876 1.67-1.286.52-.411.985-.822 1.423-1.232l1.067-1.013.384-.41.164-.165.301-.328c.246-.301.52-.602.766-.931l.821-1.149a40.26 40.26 0 0 0 1.369-2.19l.219-.356 1.095-1.861.438-.739.246-.383c.101-.13.192-.267.274-.41l.355-.575.247-.383.875-1.314c.247-.383.52-.767.822-1.177l.985-1.286 1.095-1.314 1.56-1.861c.794-1.013 1.615-2.053 2.491-3.23.465-.657 1.012-1.396 1.505-2.135a41.88 41.88 0 0 0 1.45-2.381c.822-1.451 1.67-2.929 2.464-4.407l.246-.438.986-1.861c.437-.821.848-1.642 1.258-2.463.411-.821.685-1.423 1.013-2.108v-.273c.219-.466.383-.849.548-1.232.172-.329.327-.667.465-1.013v-.657l.137-.328v-.52c.657-1.505 1.231-3.038 1.806-4.516.219-.575.438-1.177.684-1.752.247-.575.712-1.916 1.095-2.874v-.246l.246-.602.302-.602.164-.247a.35.35 0 0 0 0-.164h-.137l-.246.274-.192.219-.164.246c-.192.247-.411.548-.657.931v.246l-.547.821v.164c-.411.685-.822 1.369-1.205 2.081l-.164.273a49.802 49.802 0 0 0-1.122 2.053l-.438.848-.849 1.67c-1.806 3.586-3.284 6.459-4.707 9.087l-.438.794-2.053 3.859-.328.657c-.685 1.286-1.396 2.737-2.135 3.914a59.497 59.497 0 0 1-3.75 5.474l-.274.355v.165a8.364 8.364 0 0 1-.629.766l-.356.438-1.149 1.396a37.071 37.071 0 0 0-1.944 2.737l-.383.575c-.575.903-1.122 1.751-1.587 2.518l-.192.328v.246l-.164.247v.356l-.246.383a51.174 51.174 0 0 1-1.123 1.779c-.383.575-.547.821-.848 1.204-.301.383-.465.63-.712.958l-.766.876-.849.821-.273.246a46.693 46.693 0 0 1-3.093 2.573l-.903.712-.247.191c-.627.471-1.23.973-1.806 1.506l-.931.93c-.246.274-.52.575-.793.931a38.826 38.826 0 0 0-2.929 4.297 73.69 73.69 0 0 0-1.451 2.463c-.465.821-.793 1.341-1.204 2.026-.41.684-.328.547-.493.793l-.492.657-.411.493-.328.41-.411.521-.273.355c-.411.466-.849.904-1.26 1.341l-.437.438.164-.273c.301-.657.602-1.287.93-2.053a33.945 33.945 0 0 0 1.752-4.68c.438-1.56.794-3.175 1.15-4.735.355-1.56.684-3.093 1.122-4.626v-.493c.657-2.162 1.313-4.433 1.806-6.678.219-.93.411-1.861.602-2.737.301-1.368.575-2.737.931-4.16.239-.8.523-1.585.848-2.354a59.076 59.076 0 0 1 1.615-3.202c.329-.602.685-1.205 1.04-1.807l.712-1.204a37.627 37.627 0 0 0 2.107-4.68l.739-1.889a46.74 46.74 0 0 1 2.19-4.215c.438-.711.876-1.314 1.314-1.916l.985-1.094 1.341-1.123 1.725-1.094 2.217-1.068 2.518-1.013.52-.219 2.463-.957a19.287 19.287 0 0 0 2.162-.931c.72-.38 1.407-.819 2.053-1.314.52-.356 1.013-.766 1.478-1.149l.52-.384c.629-.52 1.286-1.012 1.943-1.505l2.436-1.971 1.259-1.012.958-.767.849-.657.574-.465 1.232-.985a28.92 28.92 0 0 1 2.244-1.396c.235-.141.483-.26.739-.356h.52c0 .192 0 .383.192.602.192.219 0 .274 0 .411v1.204c0 .438.411 1.396.356 1.971v-.082Z" fill="#C8D4E1"/></svg>