<svg xmlns="http://www.w3.org/2000/svg" width="204" height="433" fill="none"><path d="M.358 152.418v-.821a6.067 6.067 0 0 1 0-1.012c.04-.427.122-.849.246-1.259a2.738 2.738 0 0 1 1.067-1.561 1.68 1.68 0 0 1 1.396 0c.69.27 1.357.59 1.998.958a30.07 30.07 0 0 1 1.998 1.205l1.916 1.423 1.807 1.396 3.722 3.038c1.286 1.067 2.518 2.162 3.832 3.175l1.15.766c1.45.767 3.038 1.341 4.57 1.971a44.558 44.558 0 0 1 4.872 2.053c.76.375 1.492.805 2.19 1.286.683.42 1.316.916 1.888 1.478a12.28 12.28 0 0 1 1.588 1.779 22.441 22.441 0 0 1 1.45 2.135 42.17 42.17 0 0 1 2.327 4.407c.711 1.532 1.368 3.12 2.217 4.598.328.492.63.985.958 1.45a29.283 29.283 0 0 1 4.762 8.868c.876 3.175 1.615 6.377 2.49 9.552v.274c.52 1.916 1.15 3.777 1.643 5.693a197.98 197.98 0 0 0 1.396 5.228c.492 1.724.766 2.737 1.231 3.914a76.13 76.13 0 0 0 1.451 3.448c.849 1.943 1.78 3.832 2.737 5.693.958 1.861 2.162 3.887 3.284 5.803.356.574.685 1.177 1.068 1.751.383.575.63.548.903.849a45.773 45.773 0 0 1 3.503 3.804 52.385 52.385 0 0 1 3.175 4.27c.438.712.876 1.396 1.287 2.108l1.396 1.751c.438.548.903 1.122 1.368 1.642 2.381 2.737 4.927 5.474 7.418 8.211l3.284 3.586a185.671 185.671 0 0 1-2.463-5.282c-1.04-2.382-1.971-4.79-2.874-7.254a73.35 73.35 0 0 1-1.232-3.448l-1.15-3.887c-.766-2.737-1.505-5.474-2.244-8.211-.739-2.737-1.505-5.474-2.244-8.211-.74-2.737-1.45-5.72-2.162-8.594l-.41-1.697a13.461 13.461 0 0 1-2.109-1.204 13.715 13.715 0 0 1-2.19-1.998c-.656-.712-1.285-1.451-1.915-2.163a81.03 81.03 0 0 1-6.706-8.867 38.507 38.507 0 0 1-2.736-4.954 43.543 43.543 0 0 1-1.095-2.601 31.89 31.89 0 0 1-.904-2.737c-.273-.985-.574-1.751-.82-2.737-.247-.985-.493-1.724-.767-2.6-.575-1.779-1.204-3.558-1.78-5.337-.574-1.779-1.149-3.449-1.696-5.2-.547-1.752-1.095-3.422-1.56-5.146l-.247-.876a.571.571 0 0 1 .345-.642.58.58 0 0 1 .258-.042c.283.009.563.074.82.192l.767.356.849.437 1.477.876c.511.303.98.671 1.396 1.095.243.261.472.535.685.821a2.49 2.49 0 0 0-.192-.383l-.821-1.889c-.219-.574-.465-1.176-.657-1.779-.465-1.395-.876-2.737-1.204-4.269-.329-1.533-.63-2.737-.93-4.106a142.947 142.947 0 0 1-.794-3.886 66.085 66.085 0 0 1-.657-4.38c-.165-1.45-.192-2.737-.22-4.023v-.903a45.116 45.116 0 0 1 .192-4.708c0-.766.164-1.533.274-2.272.104-.719.25-1.432.438-2.135.191-.739.41-1.45.63-2.162.218-.711.273-.711.383-1.04.11-.299.239-.591.383-.876a32.175 32.175 0 0 1 1.806-3.476c1.396-2.408 2.901-4.762 4.27-7.198a145.12 145.12 0 0 0 2.737-5.474c.876-1.834 1.697-3.914 2.545-5.857 1.068-2.491 2.135-4.982 3.367-7.39.63-1.232 1.259-2.49 1.998-3.668l.575-.848c.189-.271.41-.52.656-.74.168-.16.376-.273.603-.328.255-.096.538-.096.793 0 .21.117.373.3.466.52.102.303.175.615.219.931.52 2.545.93 5.146 1.313 7.718.22 1.342.411 2.737.657 3.969.247 1.232.52 2.737.767 4.078.246 1.341.492 2.737.766 4.024.274 1.286.63 2.737 1.013 4.215.711 2.737 1.478 5.309 2.217 7.992v-.219c.739 2.737 1.478 5.255 2.162 7.91.684 2.655 1.341 5.474 1.806 8.211.274 1.505.493 3.038.685 4.543v3.887a47.146 47.146 0 0 1-.384 8.566 62.772 62.772 0 0 1-1.751 8.212 75.025 75.025 0 0 1-2.573 7.718l.958.246h.274-.165c.742.167 1.467.405 2.163.712.711.328 1.423.711 2.107 1.095l1.095.684 1.095.848c.739.63 1.423 1.287 2.107 1.944.66.651 1.264 1.356 1.807 2.107.52.739 1.012 1.506 1.505 2.299.005.064.005.128 0 .192l.219.356a54.051 54.051 0 0 1 3.284 6.541l.384.876a32.308 32.308 0 0 1 1.587 4.489c.41 1.614.712 3.257.985 4.899 0 .903.22 1.806.301 2.737.082.93 0 1.916 0 2.874 0 .958 0 1.806-.164 2.737 0 .465 0 .903-.191 1.341-.192.438 0 .958-.22 1.423v-.164.137c.329.575.658 1.149.959 1.724.3.575.875 1.642 1.259 2.463.383.821.848 1.67 1.231 2.491l1.177 2.737c.356.849.712 1.697 1.04 2.573l.657 1.669c0 .356.246.712.383 1.095s.247.767.384 1.15c.136.383.301 1.122.465 1.669l.301 1.123c0 .41.219.821.301 1.231.082.411.246 1.04.356 1.56v-1.56c0-2.354.137-4.735.273-7.089.137-2.353.219-4.844.247-7.28v-41.986.192V173.083v.219c0-2.299 0-4.598-.164-6.898v-1.861l-.165-1.916c0-1.04-.219-2.08-.328-3.12l-.164-1.177c-.329-2.326-.712-4.625-1.095-6.952-.383-2.326-.739-4.844-1.204-7.225-.876-4.653-2.026-9.197-3.285-13.685a179.199 179.199 0 0 0-1.095-3.613 288.871 288.871 0 0 0-1.204-3.723l-1.286-1.478-1.533-1.833a60.339 60.339 0 0 0-1.78-1.944c-.601-.629-1.121-1.149-1.669-1.724l-.848-.794c-1.15-1.095-2.381-2.135-3.64-3.175l-3.914-3.093-.958-.793-1.122-.986-.904-.875c-.269-.251-.525-.516-.766-.794a11.738 11.738 0 0 1-.794-.849l-.985-1.149-.301-.411-.52-.684-.657-.903-.63-.931-.739-1.177-.738-1.259-.466-.82c-.876-1.588-1.752-3.176-2.573-4.763l-1.122-2.135c-.191-.383-.356-.794-.547-1.204-.192-.41-.329-.657-.465-.986l-.63-1.478c0-.328-.274-.684-.383-1.012l-.41-1.068-.493-1.505c-.247-.849-.466-1.697-.712-2.546-.246-.848-.383-1.56-.575-2.353a89.456 89.456 0 0 1-.52-2.3c-.164-.766-.356-1.532-.492-2.326-.137-.794-.356-1.697-.493-2.573-.137-.876-.329-1.806-.465-2.737-.274-1.642-.493-3.257-.74-4.899 0-.52-.136-1.04-.191-1.533a265.49 265.49 0 0 1-.547-4.872c0-.82-.192-1.642-.247-2.49v-1.205a6.212 6.212 0 0 0 0-.711 7.201 7.201 0 0 1 0-.767v-.766a.822.822 0 0 1 .438-.52.71.71 0 0 1 .575 0c.203-.001.403.056.575.164.148.094.286.205.41.329l1.15 1.012 1.122.958 2.545 2.108c1.314 1.04 2.737 2.107 3.942 3.175l3.914 3.284c1.286 1.068 2.6 2.108 3.913 3.148l.931.711 1.04.794L80.99 67.9l2.326 1.643 1.506 1.04 1.231.903.411.328.356.274.684.602c.438.438.849.876 1.26 1.341.591.648 1.14 1.334 1.641 2.053.466.575.903 1.204 1.341 1.807.931 1.368 1.843 2.764 2.737 4.187l1.123 1.861a31.672 31.672 0 0 1 2.217 4.544 41.504 41.504 0 0 1 1.45 4.762c.41 1.533.767 3.093 1.095 4.653.382 1.64.657 3.305.821 4.982 0 .875 0 1.724.137 2.6.137.875 0 1.724 0 2.572v2.436a24.502 24.502 0 0 1-.301 2.491 33.096 33.096 0 0 1-.52 2.354 109.22 109.22 0 0 1-.63 2.408c-.219.794-.492 1.725-.766 2.737-.274 1.013-.465 1.478-.657 2.245a14.792 14.792 0 0 0-.328 1.587v.164c.93 2.737 1.86 5.474 2.737 8.211 1.04 3.641 2.025 7.281 2.737 10.949.574 2.737 1.04 5.337 1.478 8.019.191-.794.356-1.587.602-2.354.246-.766.793-2.217 1.231-3.284a149.076 149.076 0 0 1 3.039-6.761 54.947 54.947 0 0 1 1.642-3.092c.273-.493.52-.958.821-1.424.273-1.669.575-3.311.821-4.981.328-2.162.63-4.325.985-6.487a70.915 70.915 0 0 1 1.232-5.939c.274-1.177.547-2.327.848-3.476.302-1.15.466-1.998.685-3.011l.328-1.587.246-1.232c.192-1.149.411-2.299.63-3.449l1.067-5.474c0-.52-.164-1.012-.273-1.532-.192-1.095-.384-2.163-.548-3.257-.246-1.944-.492-3.887-.766-5.83 0-.657-.192-1.341-.329-2.026-.136-.684-.273-1.395-.437-2.107a28.571 28.571 0 0 0-.493-1.916c-.192-.63-.329-1.259-.52-1.916-.192-.657-.192-.657-.301-1.013a31.405 31.405 0 0 0-1.095-3.065l-1.314-3.23c-.903-2.107-1.697-4.242-2.518-6.377-.191-.547-.41-1.095-.602-1.615s-.383-1.095-.575-1.615c-.191-.52-.356-1.122-.52-1.67-.164-.547-.301-1.149-.438-1.724-.137-.574-.219-.985-.328-1.477-.11-.493-.192-.931-.274-1.396l-.41-2.135c0-.466-.192-.958-.274-1.424-.192-1.231-.411-2.435-.602-3.667a4.035 4.035 0 0 1 0-.602V43.32c0-1.15.191-2.299.328-3.448.274-2.19.821-4.352 1.314-6.515.493-2.162.958-4.433 1.286-6.678.329-2.244.603-4.461.904-6.678.164-1.15.328-2.272.52-3.394.191-1.122.355-2.162.574-3.257l.329-1.67c.137-.574.274-1.177.438-1.779.164-.602.246-1.067.41-1.615.164-.547.274-1.067.438-1.614.356-1.068.712-2.163 1.15-3.203 0-.356.301-.711.465-1.067.111-.264.239-.52.383-.767a2.77 2.77 0 0 1 .411-.547.906.906 0 0 1 .985-.219c.137.09.249.213.329.356.097.21.17.43.219.657.21.7.466 1.386.766 2.053.629 1.395 1.314 2.737 1.971 4.16l.985 2.053c.164.355.328.711.52 1.067l.164.383c.356.602.712 1.177 1.095 1.752l1.834 2.737c.328.465.657.93.958 1.423.301.493.657.958.958 1.478l.547.958c.125.192.235.393.329.602l.821 1.56 1.423 2.984c.985 2.052 1.97 4.078 2.737 6.158.766 2.08 1.751 4.188 2.737 6.268.985 2.08 1.834 4.27 2.737 6.432.191.492.41.985.575 1.478.164.492.41 1.15.574 1.724.165.575.356 1.122.493 1.724l.41 1.834c0 .63.247 1.26.384 1.889l.246 1.505c.109.506.191 1.018.246 1.533l.165 1.231v4.927c.013.237.013.475 0 .712v1.67c0 .547 0 1.203-.165 1.806-.164.602 0 1.204-.218 1.806a40.511 40.511 0 0 1-.548 3.175c0 .52-.219 1.067-.356 1.587l-.328 1.177-.164.52-.657 1.862-.247.574c-.136.356-.301.685-.437 1.04a37.818 37.818 0 0 1-1.506 2.956c-.547.958-1.067 1.944-1.67 2.737-.273.438-.547.876-.848 1.287l-1.204 1.724c-.301.465-.657.876-1.013 1.341l-.876 1.095-1.286 1.505c-.411.493-.849.958-1.287 1.451-.438.493-1.395 1.56-2.052 2.354l-2.299 2.737-1.095 1.314-1.068 1.313-.219.329-.246 1.861a117.52 117.52 0 0 1-.438 3.038c-.164 1.013-.328 2.244-.52 3.367 0 .437 0 .875-.219 1.313-.219.438-.164.958-.273 1.451-.274 1.067-.493 2.162-.767 3.23-.575 2.107-1.177 4.215-1.724 6.349v-.164l-.575 2.299c-.192.739-.329 1.451-.493 2.163-.164.711-.438 1.915-.657 2.873-.219.958-.273 1.232-.437 1.862l.793-1.56c.493-.876 1.013-1.752 1.533-2.737.52-.986 1.067-1.643 1.615-2.464 1.013-1.56 2.135-3.038 3.23-4.543a42.6 42.6 0 0 1 2.901-3.75l.574-.629.575-.575 1.15-1.04c.766-.657 1.587-1.259 2.408-1.862a40.34 40.34 0 0 1 2.217-1.505l2.464-1.697a36.649 36.649 0 0 1 5.008-2.901l.52-.219.247-.301c.301-.383.574-.766.848-1.177l.985-1.341c.302-.438.63-.849.931-1.26l.411-.52.41-.492.739-.848c.086-.13.187-.25.301-.356V97.268l.274-.301.164-.192.192-.219.137-.137.629.028.739-.712.794-.74c.301-.3.657-.574.985-.848l.794-.657.739-.547.383-.274 1.122-.766.903-.52 1.314-.712c1.038-.52 2.119-.95 3.23-1.286 1.12-.345 2.263-.61 3.421-.794 1.807-.273 3.64-.41 5.474-.547l2.272-.164h2.463c.414.027.825.082 1.232.164l1.505.192 2.299.711c1.478.493 2.956 1.013 4.462 1.423l1.341.274 1.45.219c.657 0 1.287.137 1.944.164h2.052c1.561 0 3.121 0 4.708.301l4.762.52 2.519.22h2.737c.289.013.571.098.821.246.232.109.431.28.575.492.135.198.228.422.273.657.041.226.041.458 0 .684a4.454 4.454 0 0 1-.52 1.615c-.188.404-.398.796-.629 1.177l-1.232 2.026c-.931 1.423-1.861 2.737-2.737 4.269l-1.369 2.053c-.246.356-.492.712-.711 1.067a3.958 3.958 0 0 1-.274.356l-.492.63-.822 1.067c-.328.411-.684.794-1.04 1.177a15.93 15.93 0 0 1-1.149 1.204 27.205 27.205 0 0 1-5.474 4.161 28.673 28.673 0 0 1-3.203 1.532 29.106 29.106 0 0 1-6.815 1.944 19.313 19.313 0 0 1-3.093.273h-3.859l-1.012-.136-1.041-.137-.684-.137-1.095-.219c-.793-.164-1.56-.383-2.326-.602a8.803 8.803 0 0 1-1.204-.356l-.958-.274-2.737-.793-2.08-.63-2.737-.821-2.272-.766c-1.533-.493-3.093-.931-4.626-1.369l-1.998-.438-1.888-.328h-1.478c-2.691.04-5.378.232-8.047.574-.525.072-1.046.172-1.56.302h-.301l-.684.355-.849.575c-.328.219-.629.465-.985.657a5.764 5.764 0 0 1-.931.411l-1.861 2.463-1.998 2.737c-1.369 1.916-2.737 3.859-4.106 5.72l-2.052 2.737-2.245 2.737-.985 1.451c-.328.465-.602.958-.903 1.45-.301.493-.301.603-.465.904-.356.821-.739 1.642-1.095 2.49l-.438.904-.329 1.532c0 .438-.246.876-.355 1.341a12.64 12.64 0 0 1-.52 1.643.493.493 0 0 1-.438.273h-.192c-.383 1.013-.766 1.998-1.122 3.038-.657 1.807-1.204 3.641-1.697 5.474-.219.986-.465 1.971-.63 2.984-.164 1.012-.328 1.97-.465 2.956-.137.985 0 1.314-.191 1.943a6.345 6.345 0 0 0 0 1.013v1.012a5.338 5.338 0 0 1-.192.986c.013.173.013.347 0 .52v5.145c0 2.491-.164 4.982-.274 7.5-.109 2.518-.219 4.817-.301 7.225a723.87 723.87 0 0 0-.274 28.137v12.07c0 2.108 0 3.941-.191 5.912-.192 1.971 0 3.75 0 5.638 0 3.23.164 6.46.465 9.689.465 4.817 1.013 9.607 1.588 14.397.574 4.79 1.176 9.415 1.833 14.123.301 1.998.603 3.996.986 5.967.383 1.97.794 3.914 1.231 5.857.849 3.695 1.807 7.39 2.737 10.948.739 2.518 1.615 4.981 2.409 7.472.602 1.834 1.177 3.64 1.861 5.474 1.314 1.615 2.6 3.257 3.805 4.954l2.353 3.366c.767 1.123 1.533 2.272 2.327 3.394a324.087 324.087 0 0 0 3.558 4.954v-.355c-.383-1.643-.684-3.312-.958-4.982-.274-1.669-.547-3.284-.794-4.899-.52-3.367-.985-6.761-1.286-10.154a300.412 300.412 0 0 1-.438-5.119 162.632 162.632 0 0 1-.301-5.091c-.164-3.311-.356-6.623-.657-9.935-.301-3.312-.383-6.651-.52-9.963 0-1.696 0-3.393-.164-5.09v-2.245a1.07 1.07 0 0 1-.767-.328 1.625 1.625 0 0 1-.383-.821v-.63c0-.191 0-.711-.137-1.067l-.164-1.506c-.137-1.149-.274-2.299-.438-3.448a249.324 249.324 0 0 0-1.04-6.295c-.383-2.108-.848-4.845-1.341-7.253-.493-2.409-.931-4.489-1.505-6.706l-.247-.794c0-.246-.136-.492-.219-.711-.082-.219-.41-.986-.602-1.506-.848-1.916-1.779-3.804-2.737-5.693-.547-1.122-1.095-2.217-1.587-3.339a16.012 16.012 0 0 1-.657-1.587 8.32 8.32 0 0 1-.329-.876 5.867 5.867 0 0 1-.219-.63c-.164-.602-.355-1.177-.492-1.806a4.808 4.808 0 0 1-.192-.903l-.191-1.013c0-.602-.165-1.204-.219-1.807-.055-.602 0-1.04-.137-1.56s0-1.259 0-1.888v-1.752c.096-1.199.288-2.389.575-3.558a24.79 24.79 0 0 1 .492-1.779 14.23 14.23 0 0 1 1.259-2.491c.657-1.04 1.341-2.08 1.916-3.147.303-.547.568-1.114.794-1.697.242-.597.443-1.21.602-1.834l.246-.931c0-.465.192-.93.274-1.395.082-.466.137-.767.219-1.15 0-.821.246-1.615.356-2.436.109-.821.191-1.533.328-2.299s0-.931.219-1.368l.247-1.369c0-.52.246-1.067.383-1.587.117-.54.272-1.071.465-1.588a47.84 47.84 0 0 1 .63-1.806c.219-.602.492-1.177.711-1.752.219-.575.411-.931.63-1.369.443-.875.937-1.725 1.478-2.545a35.019 35.019 0 0 1 2.572-3.093c1.588-1.779 3.175-3.558 4.708-5.474l2.327-2.737c.711-.848 1.478-1.697 2.217-2.518.739-.821 1.505-1.697 2.271-2.518.363-.412.746-.805 1.15-1.177.437-.379.894-.735 1.368-1.067.931-.63 1.916-1.205 2.902-1.779a1.504 1.504 0 0 1 1.04-.219H144.598a.63.63 0 0 1 .411.465l.164.657c0 .41.191.821.274 1.232l.574 2.545c.411 1.779.849 3.558 1.314 5.474.164.493.301 1.013.465 1.533.165.52.329 1.012.493 1.505.164.493.329.958.493 1.423l.684 1.67c.085.168.158.342.219.52a.229.229 0 0 1 0 .137v.438c.191.438.383.848.602 1.286.985 2.08 2.053 4.16 3.011 6.268a103.314 103.314 0 0 1 1.56 3.613 67.912 67.912 0 0 1 1.232 3.284c.383 1.095.739 2.08 1.067 3.12.328 1.04.739 2.382 1.04 3.586.301 1.204.465 2.354.63 3.531.164 1.176.301 2.408.383 3.64.082 1.231 0 2.354 0 3.558a32.373 32.373 0 0 1-.301 3.613 50.762 50.762 0 0 1-.63 3.421 67.704 67.704 0 0 1-.821 3.394c-.602 2.272-1.232 4.571-2.025 6.788a49.132 49.132 0 0 1-1.287 3.311c-.465 1.095-.93 2.217-1.478 3.257a10.908 10.908 0 0 1-1.341 1.971c-.289.348-.6.677-.931.985-.383.412-.795.796-1.231 1.15-.493.383-.958.794-1.478 1.177l-1.588 1.177c-.903.657-1.888 1.286-2.737 1.916-.848.629-1.861 1.313-2.737 1.998l-1.313 1.122-1.259 1.232-.876.985-.821 1.04a32.61 32.61 0 0 0-2.108 3.339c-.356.657-.657 1.314-.985 1.998-.329.684-.849 2.08-1.314 3.12a80.983 80.983 0 0 1-1.478 3.148c-.52 1.04-1.122 2.053-1.642 3.065a35.571 35.571 0 0 0-1.341 2.984c.003.063.003.127 0 .191v.137a98.176 98.176 0 0 0-.383 4.954c-.083 1.67 0 3.066 0 4.571v4.817c0 1.588 0 3.312.219 4.927.218 1.614.355 3.448.574 5.173.411 3.284.739 6.596 1.15 9.908a268.86 268.86 0 0 0 1.095 6.787 708.952 708.952 0 0 1 1.587 10.538c.493 3.503.712 6.569 1.15 9.853.273 1.998.629 3.996 1.012 5.967l2.354 3.421c1.588 2.299 3.202 4.598 4.763 6.897.793 1.177 1.56 2.327 2.299 3.504a78.475 78.475 0 0 1 2.08 3.503c.356.575.684 1.177 1.013 1.779 2.381 4.106 4.379 8.403 6.404 12.7a145.684 145.684 0 0 1 4.215 10.017c0-.657 0-1.313-.219-1.998-.219-.684-.191-1.615-.246-2.408-.055-.794 0-1.67-.192-2.491-.246-3.202-.657-6.405-1.122-9.607v-.493a171.833 171.833 0 0 1-.876-6.377c-.246-2.135-.492-4.297-.793-6.432 0-.766-.219-1.532-.356-2.299a92.699 92.699 0 0 1-1.232-9.88c-.11-1.623-.11-3.25 0-4.872 0-.876 0-1.752.219-2.737v-1.15a6.537 6.537 0 0 1 .192-1.642.41.41 0 0 1 .739 0 .358.358 0 0 1 0 .438v7.116c0 1.478 0 2.929.246 4.379.246 1.451.328 2.737.52 4.051.465 2.983 1.013 5.967 1.478 8.95.274 1.697.547 3.394.876 5.064a126.7 126.7 0 0 0 1.04 4.871c.383 1.615.766 3.257 1.122 4.9.356 1.642.766 3.065 1.095 4.625.328 1.56.657 3.148 1.04 4.708s.794 3.12 1.122 4.708c.328 1.587.547 3.366.766 5.063.219 1.697.466 3.202.575 4.817a44.066 44.066 0 0 1 0 5.036c0 1.451-.219 2.902-.328 4.352.164 1.013.355 2.025.547 3.038.438 2.327.985 4.626 1.56 6.897.575 2.272 1.122 4.325 1.533 6.514.41 2.19.712 4.599 1.095 6.898.383 2.299.739 4.625 1.094 6.924.169 1.28.242 2.57.219 3.86-.014.69-.097 1.378-.246 2.052v.384a3.8 3.8 0 0 1-.547 1.395 3.763 3.763 0 0 1-1.588 1.478 3.432 3.432 0 0 1-1.724.438 3.14 3.14 0 0 1-.712 0 3.97 3.97 0 0 1-3.202-3.64v-2.518c0-1.697-.192-3.421-.383-5.118-.192-1.697-.52-3.942-.739-5.912-.219-1.971-.383-4.626-.575-6.952a303.598 303.598 0 0 0-.684-7.034c0-1.396-.246-2.737-.356-4.188v-.821a105.728 105.728 0 0 0-.985-5.474c-.383-1.861-.849-3.75-1.314-5.638a473.148 473.148 0 0 0-2.737-10.729c-.246-.876-.52-1.752-.794-2.737l-1.067-3.093c-.657-1.807-1.396-3.586-2.108-5.474l-.684-1.505a.36.36 0 0 1 0-.302 111.54 111.54 0 0 0-2.244-4.817l-.849-1.615-.356-.41c-.26-.252-.535-.489-.821-.712l-.848-.684a9.23 9.23 0 0 0-.849-.575l-.875-.52-3.039-1.533c-1.012-.465-1.97-1.012-2.928-1.532a42.584 42.584 0 0 1-2.737-1.642l-2.737-1.588c-1.834-1.013-3.668-1.971-5.474-2.956l-2.737-1.505h.164l-1.095-.575h-.191l-2.464-1.286h-.328l-.219-.137-.301-.247-.164-.136-3.23-1.697-6.596-3.476-3.285-1.67-3.64-1.916c-1.095-.602-2.162-1.259-3.23-1.888l-3.038-1.725-1.888-1.04c-2.272-1.177-4.544-2.326-6.76-3.558-.63-.356-1.205-.739-1.807-1.122l-.712-.137-1.806-.274h-.876l-.794-.136h.165-.822c-1.697-.137-3.42-.192-5.118-.274l-4.598-.274c-1.587 0-3.147-.41-4.707-.684l-2.026-.383-2.436-.52-1.15-.274-1.395-.383-.849-.274-1.177-.383h-.3l-.357-.164-.63-.247h-.382l-.849-.383-.711-.301-1.834-.356-2.026-1.012-1.149-.603-1.04-.656a24.127 24.127 0 0 1-3.586-2.902l-.191-.164-2.737-2.573-2.573-2.518a46.04 46.04 0 0 1-3.148-3.394 33.3 33.3 0 0 1-1.532-1.916l-.712-.985-.63-.958-.328-.547c0-.137-.164-.274-.219-.411-.055-.137-.356-.684-.52-1.04a34.553 34.553 0 0 1-.93-2.244 126.602 126.602 0 0 1-1.533-4.544c-.493-1.532-.904-2.928-1.341-4.406a81.18 81.18 0 0 0-1.45-4.352c-.521-1.451-.986-2.737-1.479-4.215-.492-1.478-1.04-2.901-1.587-4.324-1.095-2.929-2.245-5.83-3.34-8.759-.52-1.451-1.04-2.901-1.532-4.352a36.195 36.195 0 0 1-1.095-4.187.77.77 0 0 1 0-.685.714.714 0 0 1 .684-.219.805.805 0 0 1 .383.219l.438.356.74.602 1.696 1.259 1.15.794 1.34.766c.685.384 1.397.739 2.108 1.095.712.356 1.944.986 2.929 1.396.985.411 1.533.465 2.272.712l1.15.246a8.47 8.47 0 0 0 1.149.219l2.053.356 1.094.164 1.177.192c.926.16 1.84.38 2.737.657a16.872 16.872 0 0 1 4.68 2.737c.657.465 1.287.985 1.944 1.478l1.752 1.341c.355.246.684.52 1.067.739l1.122.739.575.355.547.329 1.068.575 2.08 1.149c.712.383 1.368.794 2.053 1.204.317.176.62.377.903.603.294.194.577.404.848.629.304.213.596.441.876.684l.986.904.93.93.657.657.821.876.876.985c2.08 2.381 4.05 4.872 5.967 7.363l1.368 1.888c.465.63.903 1.259 1.341 1.916l.466.767c.218.355.465.684.656 1.067.192.383.767 1.314 1.095 1.998.329.684.356.657.52 1.013l.602 1.286.41.931.439 1.012a316.797 316.797 0 0 1 1.779 4.544l1.505 4.051c.301.793.602 1.615.93 2.408l.822 2.026.684 1.587c.63 1.478 1.287 2.956 1.944 4.407l.3.246 1.916 1.314c.657.41 1.342.821 2.053 1.204h-.191l.957.52 6.131 3.257h.438c2.737 1.56 5.474 3.284 8.376 4.872 2.408 1.286 4.844 2.518 7.253 3.777l-.137-.137a66.2 66.2 0 0 1-1.697-2.217l-1.588-2.107-2.518-3.367-2.49-3.175-2.546-3.394c-.793-1.094-1.615-2.162-2.326-3.339l-.192-.328-.191-.329-.575-.985-1.916-3.531c-.19-.301-.363-.611-.52-.93a3.336 3.336 0 0 1-.438-1.013 2.737 2.737 0 0 1 .191-1.697 3.37 3.37 0 0 1 1.15.903c.143.156.263.331.356.52l.246.438c0 .274.301.548.438.849l.986 1.833c.657 1.177 1.313 2.382 1.97 3.531.329.548.657 1.04 1.013 1.56l1.177 1.643c.766 1.094 1.587 2.162 2.408 3.229.822 1.068 1.67 2.217 2.518 3.312.849 1.095 1.588 2.162 2.354 3.257 1.642 2.272 3.203 4.598 4.927 6.788l6.487 3.531a227.008 227.008 0 0 1 6.514 3.831c2.162 1.314 4.324 2.573 6.459 3.942 2.135 1.368 3.996 2.737 6.104 3.886l1.806 1.013 1.451.821.821.52.793.547-.492-.875a99.864 99.864 0 0 0-2.299-3.586l-2.299-3.339c-1.615-2.354-3.258-4.735-4.845-7.116-1.587-2.381-3.038-4.598-4.653-6.843-1.615-2.244-3.312-4.379-5.009-6.514-2.08-2.573-4.187-5.145-6.24-7.718-1.615-1.971-3.202-3.942-4.817-5.885-1.615-1.943-3.038-3.75-4.407-5.748a104.491 104.491 0 0 1-4.844-7.581c-1.505-2.6-2.737-5.146-4.188-7.773l-2.08-3.996c-.684-1.287-1.396-2.573-2.08-3.887-1.314-2.737-2.546-5.282-3.722-7.992a934.028 934.028 0 0 1-3.066-7.143 108.846 108.846 0 0 0-1.67-3.695l-.218-.438-.63-.821c-.684-.849-1.368-1.697-2.107-2.491a57.768 57.768 0 0 1-1.615-1.779l-2.3-2.491c-2.517-2.737-5.063-5.474-7.58-8.211-2.519-2.737-4.216-5.091-6.46-7.554-1.177-1.314-2.409-2.6-3.586-3.914a39.635 39.635 0 0 1-3.065-3.996l-1.177-.876-5.474-4.105c-.684-.493-1.396-1.013-2.108-1.451-.711-.438-1.478-.876-2.244-1.314l-3.695-1.806a107.568 107.568 0 0 0-3.695-1.615c-1.232-.52-2.737-1.04-3.968-1.615a30.307 30.307 0 0 1-2.108-1.067 23.564 23.564 0 0 1-2.244-1.396 39.62 39.62 0 0 1-2.163-1.56 28.276 28.276 0 0 1-1.86-1.56l-1.917-1.861a73.119 73.119 0 0 1-1.998-2.108c-1.067-1.149-2.107-2.326-3.23-3.421-1.122-1.095-2.545-2.354-3.722-3.64-1.177-1.287-2.326-2.737-3.448-3.969-1.122-1.232-2.162-2.518-3.203-3.805a72.728 72.728 0 0 1-1.779-2.271l-.739-1.04c-.246-.411-.52-.821-.739-1.259-.219-.438-.793-1.396-1.122-2.135l-1.15-2.737a33.677 33.677 0 0 1-.82-2.381c-.274-.849-.548-1.697-.767-2.573-.219-.876-.41-1.642-.602-2.464-.192-.821-.356-1.724-.52-2.6l-.41-2.49c0-.794-.247-1.588-.356-2.382v-.793.219-.849c-.356-2.381-.63-4.817-.876-7.225 0-1.259-.274-2.519-.356-3.805-.082-1.286-.164-2.217-.164-3.312V152.336l-.082.082Zm97.683-33.692c.137-.548.247-1.068.384-1.588s.137-.629.191-.93c.055-.301 0-.356 0-.52.192-.931.329-1.889.466-2.737 0-.767.164-1.588.191-2.382.028-.793 0-1.833 0-2.737v-3.065c0-1.04-.219-2.135-.356-3.12 0-.411 0-.794-.191-1.177l-.493-2.518c-.192-.821-.356-1.642-.547-2.409v-.356c-.329-1.395-.63-2.736-1.013-4.215l-.41-1.259-.52-1.395c-.302-.685-.548-1.232-.822-1.725-.273-.492-.547-1.04-.875-1.615a85.368 85.368 0 0 0-2.026-3.448l-.274-.493-1.56-2.408-1.04-1.478-1.122-1.478-.821-.986-.739-.766-.192-.164-.383-.329-.575-.465-.63-.465-.41-.301-.739-.52-.164-.137h-.191l-2.108-1.506-1.916-1.396h-.137l-1.067-.82-2.025-1.56-.986-.767L71 62.26c-1.204-1.013-2.463-2.08-3.722-3.065l-1.697-1.341-.247-.192v.356c.52.958 1.068 1.916 1.615 2.737.547.821.712 1.15 1.15 1.779.82 1.15 1.642 2.354 2.408 3.503 1.642 2.436 3.34 4.954 5.173 7.28.63.767 1.314 1.56 2.025 2.327l.904.93.137.138.273.246.822.876v.164c.16.16.306.335.437.52l.493.684c.356.548.63.986.848 1.396.52.903 1.04 1.889 1.56 3.038l.247.548c.192.41.383.82.547 1.259.189.428.353.867.493 1.313l.493 1.506v.274l.164.52v.355a.74.74 0 0 1 0 .329.384.384 0 0 1-.301.164.822.822 0 0 1-.383-.63v-.164c0-.164-.137-.41-.192-.63v-.3c-.164-.52-.356-1.04-.547-1.533-.231-.58-.496-1.147-.794-1.697-.301-.575-.63-1.122-.93-1.67-.302-.547-.63-1.04-.959-1.532-.328-.493-.602-.821-.903-1.204l-.137-.165v-.164c-.164-.219-.356-.41-.547-.63a5.182 5.182 0 0 0-.548-.547l-1.313-1.177-1.396-1.231a23.898 23.898 0 0 1-2.573-2.737c-.739-.931-1.533-1.697-2.326-2.738l-.685-.793-1.395-1.615-2.136-2.737a4.271 4.271 0 0 0-.437-.547c-.52-.685-1.068-1.369-1.533-2.108a26.604 26.604 0 0 1-1.67-3.038 90.696 90.696 0 0 1-1.45-3.148 14.727 14.727 0 0 1-.548-1.395 3.32 3.32 0 0 1 0-.493 3.166 3.166 0 0 1 0-.493 2.739 2.739 0 0 1 0-.684l-.684-.575v.22c0 .683 0 1.368.192 2.025v.273c0 .849.191 1.67.3 2.518v.247l.411 3.038.247 1.834v-.083l.246 1.615.137.821.164 1.26v.164c0 .273 0 .547.137.82.137.274 0 .85.192 1.26.164.848.3 1.724.437 2.737.302 1.642.63 3.257 1.04 5.173 0 .547.22 1.094.356 1.642l.165.794c0 .492.246.957.355 1.45.11.493.137.52.22.767.081.246.218.82.355 1.204v.438c0 .383.246.739.356 1.095v.437c0 .356.246.712.383 1.068l.246.575c0 .3.274.63.383.93l.22.438.191.438v.301c.08.197.172.389.274.575l.328.684.74 1.396 1.23 2.381c.439.794.877 1.588 1.342 2.382.465.793.63 1.122.958 1.696l.164.274.383.575.384.602c.148.248.313.486.492.712v.355c.165.219.301.438.466.63l.246.328.547.685.657.766.22.274.656.711v.165l.657.629.93.903.603.548c.13.085.25.186.355.301l1.369.794 1.533 1.204.492.41.383.274c1.123.903 2.3 1.807 3.422 2.737l1.97 1.724c.63.548 1.205 1.15 1.78 1.697a50.98 50.98 0 0 1 1.642 1.697l1.15 1.314c0-.328-.22-.684-.302-1.013a293.024 293.024 0 0 1-1.806-5.994c-.356-1.177-.684-2.326-1.04-3.476-.356-1.149-.603-1.97-.876-2.928-.274-.958-.684-2.217-1.013-3.339-.465-1.588-.985-3.257-1.533-5.228-.191-.657-.383-1.341-.602-2.053a1.7 1.7 0 0 1 0-.63c.019-.203.084-.4.192-.574a1.45 1.45 0 0 1 .903-.63h.274c.313.003.615.12.848.329.258.199.44.478.52.794.301 1.204.63 2.435.958 3.667l.657 2.272.164.492.41 1.396c.275.958.576 1.916.877 2.737l.219.63.985 3.038 1.067 3.202 2.464 7.637 1.012 3.038v-.411c.053-.38.136-.755.247-1.122v-.356c.328-.301.438-.739.575-1.204ZM119.2 84.677v.466c0 .356 0 .739.219 1.094v.356c0 .465.136.93.219 1.396.082.465 0 .876.191 1.341.192.466 0 .986.219 1.56 0-.383 0-.766.137-1.15v-.738c0-1.45.301-2.737.465-4.188 0-.903.247-1.834.356-2.737l.164-1.396c.219-1.779.411-3.667.602-5.939 0-.547 0-1.122.137-1.67 0-1.259.219-2.572.384-3.886l.328-3.23v-3.065c0-1.15 0-2.272.164-3.12 0-1.287.246-2.354.411-3.34v.274c0 .301.136.602.191.903.055.301.329 1.478.438 2.217.11.74.164.958.219 1.45v1.698c.054 1.04.054 2.08 0 3.12 0 .794-.191 1.587-.274 2.381v1.123c-.246 2.134-.41 4.297-.574 6.404v.192c-.165 2.08-.356 4.133-.575 6.377-.219 2.244-.356 4.297-.493 6.432v1.122c0 1.724-.219 3.503-.356 5.255 0 .657 0 1.314-.191 1.943.219-.3.438-.63.684-.93a94.201 94.201 0 0 1 1.943-2.463 82.79 82.79 0 0 1 2.299-2.737l1.314-1.533c.411-.493.794-.93 1.15-1.396.355-.466.985-1.232 1.45-1.861l.52-.685.384-.574c.438-.603.848-1.232 1.259-1.862l.246-.383.629-.985.356-.602.438-.767c.219-.437.466-.875.684-1.34.219-.466.274-.548.411-.822v-.3c.164-.33.328-.685.465-1.013l.575-1.314v-.192l.246-.739v-.3l.22-.658c-.001-.328.191-.63.273-.958l.821-1.095.329-1.505c0-.356 0-.739.191-1.095 0-.793.247-1.67.383-2.737v-2.654a2.78 2.78 0 0 1 0-.466v-6.404c0-.603-.164-1.232-.273-1.834v-.384l-.411-2.271a66.992 66.992 0 0 0-.602-2.737c-.219-.876-.301-1.232-.465-1.834v-.41l-.301-.877-.247-.738-.328-.931v-.219c-.356-.958-.712-1.916-1.095-2.874-.383-.958-.739-1.97-1.122-2.928-.383-.958-.849-2.217-1.286-3.312l-.165-.465a73.427 73.427 0 0 1-1.04-2.737c-.356-.986-.93-2.245-1.396-3.312 0-.247-.219-.466-.301-.685l-1.478-3.147-.547-1.15a61.972 61.972 0 0 0-1.15-2.38c-.191-.357-.356-.712-.547-1.04l-.192-.357-.52-.903-.355-.575-.575-.903-.603-.93-.355-.493-.575-.876a46.207 46.207 0 0 1-1.287-1.889l-.903-1.477a24.28 24.28 0 0 1-.739-1.424l-.739-1.56c-.219-.52-.465-1.04-.711-1.56l-1.506-3.312a20.214 20.214 0 0 1-1.067-2.901c-.08.09-.144.191-.192.301-.246.438-.438.93-.657 1.423v.274l-.136.356c0 .328-.274.657-.384.985v.465c-.134.32-.243.65-.328.986-.301 1.067-.602 2.107-.876 3.147a47.412 47.412 0 0 0-.629 2.737c-.438 2.053-.794 4.215-1.15 6.597-.164 1.34-.356 2.737-.52 3.996 0 .903-.219 1.806-.356 2.737a91.552 91.552 0 0 1-1.149 6.842c0 .794-.301 1.56-.466 2.354l-.246 1.15a57.214 57.214 0 0 0-.493 2.983v.219c0 .41.001.794-.136 1.177v6.349l.246 2.19v.356l.191 1.15c0 .711.274 1.423.384 2.134l.41 1.944v.739c.192.93.411 1.86.63 2.737v.164c0 .328.164.684.273 1.04v.438l.301 1.04.165.493.328 1.012.329.904.164.41c.219.63.492 1.26.739 1.861l.301.74c.192.492.41.985.602 1.505.493 1.204.985 2.435 1.505 3.64.52 1.204.712 1.615 1.04 2.408l.849 1.998c.328.794.657 1.588.958 2.409l.493 1.478c.191.602.355 1.204.547 1.806.191.603.328 1.177.465 1.78.059.17.104.343.137.52v.164a.838.838 0 0 0 0 .273c-.007.25-.044.498-.109.74Zm15.026 26.276 2.299-.192h.547l1.861-.137h5.009c.821 0 1.67.247 2.6.438l2.245.493h.246l2.217.547 2.737.739.821.246c1.396.411 2.874.822 4.79 1.314l3.202.876 1.725.465 1.861.466.958.164.875.164H173.528c.849 0 1.779 0 2.737-.246a25.197 25.197 0 0 0 3.23-.684 29.215 29.215 0 0 0 3.832-1.369 30.903 30.903 0 0 0 3.147-1.615 24.239 24.239 0 0 0 2.737-1.916 30.233 30.233 0 0 0 2.737-2.408c.411-.438.794-.849 1.15-1.287l.465-.602.411-.52.602-.739.794-1.122.191-.274c.411-.574.794-1.149 1.177-1.751l.219-.301 1.396-2.08.848-1.26.548-.766c0-.219.246-.41.383-.63l.137-.218c.274-.438.575-.931.848-1.424v-.164a6.55 6.55 0 0 0 .356-.766v-.274h-.575l-4.872-.328-2.08-.137-2.737-.192c-1.395 0-2.737-.137-4.762-.164h-2.409c-.739 0-1.724 0-2.518-.246a19.178 19.178 0 0 1-2.436-.493 28.818 28.818 0 0 1-2.189-.657l-.986-.301c-1.149-.383-2.353-.794-3.558-1.122-.52 0-.985-.22-1.423-.274a17.19 17.19 0 0 0-2.053 0h-5.939c-.848 0-1.752.137-2.737.274-.922.128-1.836.311-2.737.547-.932.26-1.846.58-2.737.958l-1.095.52-.794.383h-.164l-.328.192h-.192l-.273.164-.411.246-.547.356-.219.165h-.219l-.466.3-.41.33-1.013.765-.739.63-.602.52-.766.684-.301.301c-.302.274-.63.575-.931.904l-.438.465-.739.766c-.301.329-.575.657-.876.958l-.356.438-.739.849-.273.328c0 .164-.301.328-.438.52l.547-.192.849-.246.438-.137.574-.137h1.287c.766-.164 1.56-.328 2.353-.438l3.039-.301 2.545-.136 2.983-.192c1.916-.164 3.832-.411 5.639-.63l4.242-.52 1.533-.164 2.956-.3 2.737-.193h3.147c.417.033.829.107 1.232.22.395.135.779.3 1.149.492a3.969 3.969 0 0 1-1.888 1.15 3.26 3.26 0 0 1-.712 0H172.899l-2.901.191-2.737.301-1.615.165-3.969.437h-.301c-1.724.219-3.531.438-5.31.603H153.357l-1.478.137-1.342.164-1.888.301-.684.137-.767.191h-.219l-2.299.685c-.657.191-1.286.465-1.916.711h-.492c-.602.246-1.205.547-1.779.849l-.356.191-.712.383-.876.548c-1.04.657-2.08 1.368-3.065 2.025l-1.177.794-.082 1.095Zm-6.733 141.503c.164-.821.356-1.642.52-2.463l.492-2.464v-.547c0-.684.274-1.368.438-2.08.165-.712.411-1.752.685-2.6 0-.356.273-.739.438-1.122.164-.384.355-.767.574-1.177a63.82 63.82 0 0 0 1.15-2.327c.383-.821.575-1.259.821-1.888v-.685l.192-.52c.246-.684.492-1.368.766-2.052.274-.685.629-1.779.958-2.737.328-.958.903-2.436 1.341-3.613l.383-1.122.575-1.56a85.463 85.463 0 0 0 1.122-3.148c.356-1.068.547-1.67.794-2.463l.629-2.272c.407-1.899.717-3.817.931-5.748l.219-1.669c.164-1.342.356-2.737.52-4.024v-.821c.137-1.177.328-2.408.493-3.585 0-.52 0-1.068.219-1.588.219-2.025.383-3.667.492-5.145.11-1.478.192-3.559.219-5.255V182.58c.091-1.639.31-3.268.657-4.872.416 1.43.691 2.897.821 4.38v9.278c0 1.314-.164 2.737-.273 4.078 0 1.396-.302 2.737-.52 4.407 0 .52-.001 1.04-.219 1.532-.219.493-.247 1.643-.356 2.464l-.575 4.105v.767a100.064 100.064 0 0 1-.766 4.871 60.572 60.572 0 0 1-2.737 9.389c-.493 1.341-.958 2.736-1.424 4.078l-.219.574c-.219.685-.465 1.342-.711 2.026a80.958 80.958 0 0 0-.986 2.874l-.383 1.122a71.533 71.533 0 0 1-1.259 3.613 27.833 27.833 0 0 1-1.095 2.518v.191c-.301.63-.602 1.259-.876 1.916-.273.657-.301.958-.437 1.423-.356 1.533-.63 3.093-.876 4.599v.301a272.972 272.972 0 0 1-.986 5.282v.438l.219-.438.247-.547.164-.411c.192-.41.383-.848.575-1.341.465-1.067.93-2.135 1.423-3.147a37.443 37.443 0 0 1 1.67-3.039v-.164c.11-.158.21-.322.301-.492.157-.275.331-.54.52-.794l.191-.274.438-.629.575-.712c.301-.383.629-.739.958-1.095l.219-.219c.41-.438.848-.848 1.341-1.314.493-.465.821-.739 1.286-1.094.466-.356.931-.739 1.424-1.123l1.998-1.368.876-.575 1.587-1.122c.328-.219.629-.465.903-.684l.329-.247.355-.301.548-.438a18.757 18.757 0 0 0 1.724-1.587c.296-.3.57-.62.821-.958.192-.274.356-.547.52-.821.301-.515.575-1.045.821-1.588l.575-1.231.164-.383c.52-1.095.958-2.135 1.369-3.148.794-2.162 1.533-4.571 2.244-7.308.247-1.012.465-2.053.712-3.175.246-1.122.383-2.162.493-3.12.109-.958 0-1.095 0-1.615v-1.587c0-.52 0-1.916-.192-2.984-.192-1.067-.219-2.107-.328-3.01-.11-.903-.384-2.163-.575-3.203v-.301c-.192-.903-.438-1.806-.685-2.737a124.686 124.686 0 0 0-2.189-7.006 49.491 49.491 0 0 0-.739-1.971 126.494 126.494 0 0 0-2.245-5.474l-.492-1.177a54.578 54.578 0 0 1-1.232-3.065c-.191-.52-.41-1.095-.602-1.697-.192-.603-.41-1.232-.629-1.916-.219-.685-.247-.821-.356-1.232v-.465l-.411-1.67c-.301-1.204-.575-2.436-.848-3.64v-.657c-.219-.903-.411-1.806-.63-2.737-.219-.931-.219-1.04-.356-1.56a.84.84 0 0 1 0-.274l-.219.137h-.164a28.438 28.438 0 0 0-2.928 1.971 27.32 27.32 0 0 0-2.026 1.943l-.684.712c-1.15 1.149-2.08 2.08-2.901 2.956l-.329.328-.301.356c-.958.985-1.861 2.025-2.737 3.038-.876 1.013-1.232 1.396-1.861 2.107a66.673 66.673 0 0 1-1.779 1.944l-.739.793a37.957 37.957 0 0 0-2.491 2.984c-.338.455-.649.931-.93 1.423-.274.548-.575 1.15-.849 1.752a35.6 35.6 0 0 0-.739 1.779v.164c-.191.575-.41 1.15-.602 1.752-.191.602-.328 1.204-.465 1.751v.603l-.164.793-.165.904v.492c0 .739-.219 1.506-.301 2.245v.875a44.96 44.96 0 0 1-1.094 6.268c-.165.602-.302 1.122-.466 1.615-.164.493-.356.985-.547 1.451l-.602 1.204c-.219.41-.493.848-.794 1.341l-.958 1.505v.219a12.19 12.19 0 0 0-.766 1.287c-.19.321-.345.66-.466 1.012-.219.575-.383 1.177-.574 1.862v.136c0 .493-.219.986-.301 1.478a26.427 26.427 0 0 0-.219 1.588.967.967 0 0 1 0 .274 6.507 6.507 0 0 0 0 .739v7.554c-.01.155-.01.31 0 .465l.328 1.314c.219.657.465 1.368.739 2.107.274.739.52 1.287.766 1.861.247.575.903 1.944 1.341 2.902.438.958.575 1.204.876 1.833l1.232 2.737c.137.329.301.685.438 1.041.011.109.011.219 0 .328.126.285.236.578.328.876l.165.465c0 .383.246.766.355 1.177l.165.493.328 1.231.903 3.723c.438 1.916.876 3.831 1.287 5.775 0 .438.219.848.301 1.314.246 1.067.492 2.189.711 3.366.219 1.177.466 2.409.712 3.695l.246 1.423.247 1.506c0-.329.191-.657.301-.986.246-1.943.602-4.023 1.067-6.404l.493-2.19Zm-45.763 63.471-.137-.246-1.231-2.244c-.22-.384-.439-.767-.63-1.177a6.593 6.593 0 0 1-.328-.602c-.411-.767-.74-1.478-1.095-2.19-.356-.712-.63-1.423-.93-2.108v-.164a76.662 76.662 0 0 1-1.315-3.147l-.41-.958a180.38 180.38 0 0 0-1.697-4.078v-.219c-.246-.493-.466-1.013-.712-1.533a3.915 3.915 0 0 1-.219-.493l-.137-.273v-.247l-.246-.492-.246-.493-.165-.301v-.219l-.246-.465-.191-.356-.657-1.095-.438-.739-.465-.712c-.137-.191-.247-.383-.384-.547l-.164-.246-.246-.356-.465-.657-.274-.383-.247-.356-.82-1.122-.959-1.259-.465-.63c-.301-.356-.575-.739-.848-1.095l-.602-.739-.931-1.176-.41-.521-.247-.273-.246-.301-.767-.958-.848-.986-.356-.437a69.166 69.166 0 0 0-2.381-2.573l-.465-.438-.165-.137a2.377 2.377 0 0 0-.383-.356l-.575-.52-.3-.246-.493-.356-.329-.246-.438-.301-.41-.247-1.095-.684-1.533-.876-1.806-1.067a32.38 32.38 0 0 1-3.668-2.518l-1.861-1.478-1.505-1.177-.301-.274-.22-.137-.437-.301-.438-.328-1.177-.685-1.122-.547-1.177-.356h-.247l-.739-.164H36.569l-.958-.137H34.16l-2.026-.301h-.3l-.822-.137h-.356l-.875-.191h-.302l-.848-.247a13.332 13.332 0 0 1-2.737-1.04l-.684-.328-1.478-.739-2.08-1.15a23.33 23.33 0 0 1-1.916-1.286l-1.643-1.314v.192c.165.602.356 1.204.548 1.779l.63 1.669 1.121 2.737-.136.575a297.78 297.78 0 0 1 1.779 4.379c1.095 2.737 2.19 5.474 3.284 8.512a170.82 170.82 0 0 1 1.56 4.407c.493 1.451.93 2.901 1.369 4.352l.383 1.231c.301 1.041.63 2.108.958 3.148l.821 2.409c.246.629.493 1.259.766 1.861v.274l.493 1.012.63 1.122.793 1.15.657.876.164.246.301.356.274.356c.74.848 1.45 1.669 2.19 2.463.739.794 1.587 1.587 2.408 2.354l.329.547 1.532 1.451.794.739 2.135 1.97c.657.603 1.369 1.177 2.108 1.78l.218.164.356.246c.657.465 1.342.876 2.08 1.314l1.725.547 1.533.767.903.438.602.273.438.164.41.192.603.274.629.219.63.246.848.274h.301l1.04.301h.547l.74.191 1.943.411 2.053.411 2.326.41 1.478.219h.903c.283.015.566.015.849 0H79.375l-.164-.137-1.724-1.45-1.123-.931-.656-.547-2.08-1.752c-2.053-1.779-3.97-3.586-5.721-5.474a36.83 36.83 0 0 1-2.463-2.737 62.496 62.496 0 0 1-2.3-2.901l-1.833-2.464c-.903-1.204-1.807-2.436-2.737-3.64-.93-1.204-1.505-1.779-2.244-2.6-.74-.821-1.643-1.642-2.327-2.327l-1.45-1.259a45.132 45.132 0 0 1-2.437-2.189c-1.313-1.314-2.545-2.737-3.694-3.996a36.267 36.267 0 0 1-2.737-3.367c-.794-1.094-1.178-1.45-1.78-2.162a153.727 153.727 0 0 1-2.408-2.901l-1.45-1.971-.63-.903-.63-.848-.41-.548v-.191l-.384-.493v-.192a2.256 2.256 0 0 1-.328-.438.652.652 0 0 1 0-.629.434.434 0 0 1 .356-.164c.136.024.26.092.356.191l.246.274.493.629 2.08 2.737 1.122 1.533 1.04 1.341a547.64 547.64 0 0 0 4.598 5.474 88.345 88.345 0 0 0 3.531 3.723l1.259 1.259.328.328.356.301c.87.791 1.783 1.531 2.737 2.217l1.423 1.095 1.533 1.232a50.113 50.113 0 0 1 5.255 5.09c.767.822 1.506 1.67 2.245 2.518.739.849 1.943 2.19 2.956 3.258 1.45 1.56 3.038 3.175 5.036 5.09l4.215 3.832 1.314 1.177 1.094 1.013 1.834 1.642 1.067.931-.41.793ZM49.733 166.87a3.881 3.881 0 0 1-.711-.438l-.41-.246-1.26-.739h-.164l-.821-.411c.012.137.012.274 0 .411.219.739.438 1.423.657 2.08.465 1.396.985 2.737 1.505 4.133l.356.957a135.383 135.383 0 0 0 2.08 5.173c.739 1.725 1.177 3.066 1.724 4.571l.247.685.903 2.408c.328.821.657 1.697 1.04 2.546.383.848.684 1.505 1.095 2.299.41.793.711 1.313 1.095 1.943l1.176 1.779a96.835 96.835 0 0 0 2.737 3.804c.493.657 1.04 1.369 1.615 2.08l.274.329.958 1.122 1.177 1.314.191.219c.849.958 1.725 1.861 2.546 2.737l.575.493-.548-2.245c-.465-1.888-.93-3.75-1.368-5.638v-.137c0-.465-.247-.903-.356-1.368v-.137c-.137-.602-.274-1.205-.438-1.807-.164-.602-.164-.602-.219-.903v-.438a1.16 1.16 0 0 1 0-.137.515.515 0 0 1 0-.191.845.845 0 0 1 0-.219v-.137l-.164-.575v-.246a34.173 34.173 0 0 0-.712-2.19 76.937 76.937 0 0 0-1.204-3.011l-.958-2.107-.958-1.943c-.684-1.341-1.423-2.6-2.108-3.777l-1.45-2.299-1.752-2.573-.246-.329-.22-.328a96.508 96.508 0 0 1-1.86-2.737 29.735 29.735 0 0 1-1.615-2.874 11.257 11.257 0 0 1-2.409-.821v-.082Zm26.03-1.095c.218-1.259.41-2.518.601-3.887v-.328c0-.684.137-1.423.192-2.162.055-.739 0-1.779 0-2.737v-1.232c0-1.15 0-2.135-.137-3.065-.137-.931 0-1.725-.219-2.601-.219-.875-.137-1.204-.191-1.779v-.273c-.247-1.478-.493-3.066-.794-4.626a85.824 85.824 0 0 0-.767-3.613V139.007c-.246-1.15-.52-2.272-.766-3.421l-.164-.63c-.274-1.259-.575-2.49-.876-3.722l-.985-4.215a294.959 294.959 0 0 1-1.807-8.348c-.438-2.107-.711-4.27-1.012-6.377 0-.548 0-1.095-.22-1.642v-.137a196.62 196.62 0 0 1-.875-6.186v-.794c-.247-1.806-.465-3.585-.712-5.474v-.191a2.102 2.102 0 0 1 0-.41c0-.493-.164-.959-.246-1.37a.822.822 0 0 0 0-.273c-.438.63-.821 1.286-1.204 1.916l-1.04 1.834c-.52 1.012-1.013 1.916-1.424 2.737l-1.15 2.326-2.025 4.352-.328.684-1.724 3.668c-.63 1.259-1.26 2.545-1.916 3.777a101.268 101.268 0 0 1-2.108 3.75 160.872 160.872 0 0 0-2.025 3.503l-.274.465c-.274.52-.575 1.04-.821 1.56s-.657 1.396-.958 2.081v.164c-.192.465-.356.93-.52 1.396a21.826 21.826 0 0 0-.465 1.587c0 .52-.247 1.15-.356 1.807-.11.656-.164 1.067-.246 1.587v7.335c0 1.122.191 2.217.328 3.339.141 1.159.342 2.311.602 3.449.301 1.423.575 2.6.821 3.64v.493c.52 2.162 1.068 4.406 1.67 6.596v.411c.191.629.383 1.286.63 1.915.246.63.574 1.451.848 2.163.273.711.63 1.341 1.012 2.08.384.739.767 1.423 1.15 2.053.383.629.903 1.423 1.368 2.107l.904 1.396 1.806 2.737c.383.575.657 1.122 1.013 1.697a301.49 301.49 0 0 1 1.67 2.737v-.356c0-.41-.192-.794-.302-1.204v-.657a43.812 43.812 0 0 1-.793-3.394 16.65 16.65 0 0 1-.274-1.943c0-.684 0-1.369-.137-2.08a75.056 75.056 0 0 1 .74-16.97c.245-1.286.52-2.737.902-4.352.165-.821.356-1.614.548-2.408.191-.794.3-1.259.438-1.889v-.328c.136-.575.273-1.204.383-1.807.11-.602.274-1.423.383-2.134.219-1.177.356-2.354.493-3.504v-5.912c0-1.834.137-3.503.191-5.145v.629c.137 1.204.274 2.436.383 3.64 0 .712.137 1.396.192 2.053.055.657 0 1.314 0 1.971V139.144c-.048.597-.13 1.191-.246 1.779 0 .712-.247 1.396-.384 2.053-.136.657-.246 1.259-.383 1.834-.3 1.286-.602 2.736-.876 3.886v.164c-.246 1.205-.52 2.436-.738 3.668a77.352 77.352 0 0 0-.575 3.695l-.247 2.518c0 .848 0 1.724-.164 2.6v8.841c0 .684 0 1.395.164 2.08h.247a.513.513 0 0 1 .328 0c.222.216.35.511.356.821a70.493 70.493 0 0 0 1.368 6.76l1.78 7.335.492 2.026v.219c.247.766.52 1.56.766 2.408v.165c0 .164.274.93.384 1.423l.328 1.149v-1.724c0-1.587.247-2.901.438-4.106 0-.656.246-1.313.383-1.998.137-.684.356-1.395.575-2.107.093-.325.203-.645.329-.958.383-1.15.793-2.272 1.259-3.366l.437-1.068.931-2.244.246-.63a1.89 1.89 0 0 1 0-.356 1.13 1.13 0 0 1 .438-.739c.329-.958.657-1.943.986-2.983l.93-3.312c.548-.793.821-1.943 1.04-3.12v-.082Zm17.68 44.394v-1.204c0-.383-.164-1.67-.3-2.737-.138-1.067-.22-1.314-.33-1.889-.109-.574-.218-1.149-.328-1.669l-.41-1.724a93.193 93.193 0 0 1-.493-1.889v-.301c0-.219 0-.465-.246-.712a1.78 1.78 0 0 0 0-.356 6.894 6.894 0 0 0-.246-.684v-.301l-.247-.629-.192-.438-.218-.52c-.602-1.369-1.26-2.737-1.971-4.297-.712-1.56-1.478-2.737-2.272-4.161v-.246l-.657-1.04-.93-1.314-.849-.958-.876-.876c-.629-.574-1.286-1.177-1.997-1.724l-.603-.383-.739-.438-.492-.274-.849-.438-.958-.438-1.177-.383-1.122-.301h-.164l-.41.986-.466 1.04v.301a94.087 94.087 0 0 0-1.45 3.339c-.466 1.122-.767 2.217-1.095 3.366a28.87 28.87 0 0 0-.41 1.998c-.11.657-.192 1.177-.275 1.752v.164c0 .876-.164 1.588-.191 2.245-.028.656 0 1.45 0 2.107v2.08c0 .602 0 1.533.191 2.327.137 1.286.329 2.572.493 3.832v.41c.164 1.122.329 2.135.52 3.093l.301.985c.794.383 1.67.767 2.737 1.177l2.217.821 2.272.684h.383l1.314.356 1.341.383.739.219.766.219.958.274 2.737.739.548.137 1.095.246h.3l1.588.274h.41l1.123.191c-.63-1.012-1.369-2.216-2.19-3.393l-1.341-1.889a34.69 34.69 0 0 0-1.478-1.971V206.036l-.246-.328-1.314-1.615-1.286-1.615-1.15-1.368a29.24 29.24 0 0 0-1.177-1.423l-2.217-2.737c-.657-.794-1.286-1.615-1.943-2.464l-1.369-1.752-1.642-1.997-.93-1.177-.165-.192-.3-.383c0-.164-.247-.329-.357-.52a2.216 2.216 0 0 1-.218-1.259.824.824 0 0 1 0-.274h.273c.445.027.868.2 1.205.493l.41.438.438.52 1.177 1.313c.766.876 1.587 1.78 2.354 2.737l1.697 2.053 1.642 1.971 1.204 1.396 2.272 2.737a137.004 137.004 0 0 1 3.421 4.297c1.067 1.396 2.272 3.065 3.175 4.461.493.739.985 1.533 1.588 2.518l.492.821.219.356v.137-1.15c0-.328-1.314-1.368-1.314-1.779v-.082Zm-5.665 45.243c.766 1.478 1.56 2.929 2.326 4.379.767 1.451 1.341 2.737 1.97 4.161 1.178 2.572 2.273 5.172 3.45 7.773.875 1.916 1.779 3.804 2.736 5.72.411.712.822 1.451 1.26 2.162 1.259 2.217 2.545 4.462 3.749 6.706 1.205 2.244 2.737 4.762 3.996 7.116.986 1.615 1.971 3.257 3.038 4.845l1.697 2.408.876 1.177c-.52-1.724-1.013-3.449-1.423-5.2-.547-2.327-1.122-4.653-1.642-7.007-.52-2.354-1.04-4.571-1.506-6.87-.465-2.299-.875-4.68-1.259-7.061-.383-2.382-.684-4.653-1.012-7.007-.301-1.998-.548-4.023-.794-6.049a524.125 524.125 0 0 1-1.67-14.533 150.34 150.34 0 0 1-.602-7.856.487.487 0 0 1-.246-.355c-.164-.931-.438-1.834-.684-2.737-.247-.904-.548-1.971-.794-2.929-.219-.63-.383-1.286-.602-1.916-.219-.629-.438-1.341-.685-1.971l-.492-1.286c0-.246-.164-.493-.274-.739-.3-.684-.602-1.341-.876-2.025-.273-.685-.684-1.506-1.04-2.245-.356-.739-.794-1.669-1.177-2.49-.383-.821-.848-1.643-1.259-2.491l-1.314-2.409c-.41-.766-.875-1.505-1.313-2.271v-.192H85.643l-2.272-.274c-1.751-.246-3.53-.492-5.282-.793l-2.737-.575-1.341-.356-1.451-.438c1.122 3.695 2.217 7.363 3.23 11.085.711 2.737 1.423 5.255 2.08 7.883l.41 1.669c.794 2.6 1.588 5.173 2.518 7.719a67.65 67.65 0 0 0 1.424 3.53l1.478 3.449c.684 1.505 1.395 2.983 2.107 4.461a104.013 104.013 0 0 0 1.97 3.914v-.082Zm-86.052-102.2c0 .63 0 1.259.22 1.861v.602l.163 1.095.165.958c.191 1.15.41 2.327.684 3.504.273 1.176.63 2.737 1.095 4.434.657 2.271 1.395 4.543 2.107 6.76V172.836c.192.63.41 1.259.63 1.862l.602 1.751c.328.876.684 1.752 1.04 2.6l.219.493.191.438c.384.848.767 1.697 1.205 2.518.438.821 1.067 2.025 1.642 2.956s1.56 2.381 2.518 3.668a96.847 96.847 0 0 1 2.737 3.886c.575.794 1.15 1.642 1.724 2.464 1.15 1.614 2.3 3.284 3.558 4.871l.602.739c.794.986 1.615 1.971 2.382 2.984l1.095 1.478c.52.739 1.067 1.478 1.67 2.217l.41.492.63.821c.793.931 1.641 1.78 2.408 2.601l.356.328.766.684.575.493.602.465.274.219c.271.207.555.399.848.575l1.286.794.603.328.602.329c.284.153.576.29.876.41l.41.192c.657.328 1.341.575 2.026.848l.602.247c1.45.547 2.9 1.204 4.817 2.107.63.301 1.313.63 2.135 1.068h.164c.328.156.648.33.958.519l.356.192c.274.148.539.313.793.493.767.492 1.478.958 2.163 1.478l1.204.958-.63-.739c-.82-.958-1.67-1.916-2.573-2.737 0-.164-.3-.301-.437-.438l-.438-.411-.822-.903-.465-.493-.355-.383a10.891 10.891 0 0 1-.822-1.013c-.438-.602-.793-1.231-1.176-1.861l-.165-.301-.356-.575c-.273-.52-.574-1.04-.875-1.532l-.165-.274-.164-.246c-.164-.274-.328-.575-.52-.849l-.602-.903-.438-.629c-.438-.63-.848-1.232-1.286-1.78l-.74-.848-.656-.684-.74-.876-.903-.739-.93-.684-.602-.466c-.602-.41-1.15-.875-1.67-1.286-.52-.411-.985-.821-1.423-1.232l-1.067-1.012-.384-.411-.164-.164-.3-.329c-.247-.301-.52-.602-.767-.93l-.821-1.15a40.49 40.49 0 0 1-1.369-2.189l-.219-.356-1.095-1.861-.438-.739-.246-.383a3.609 3.609 0 0 1-.274-.411l-.355-.575-.247-.383-.875-1.314c-.247-.383-.52-.766-.822-1.177l-.985-1.286-1.095-1.314-1.56-1.861c-.794-1.013-1.615-2.053-2.49-3.23-.466-.657-1.013-1.396-1.506-2.135a42.235 42.235 0 0 1-1.45-2.381c-.822-1.45-1.67-2.928-2.464-4.406l-.246-.438-.986-1.861c-.438-.822-.848-1.643-1.258-2.464-.411-.821-.685-1.423-1.013-2.107v-.274a35.283 35.283 0 0 1-.548-1.232 10.916 10.916 0 0 1-.465-1.012v-.657l-.137-.329v-.52c-.657-1.505-1.231-3.038-1.806-4.516-.22-.574-.438-1.177-.684-1.751-.247-.575-.712-1.916-1.095-2.874v-.247l-.247-.602-.3-.602-.165-.246a.355.355 0 0 1 0-.164h.137l.246.273.192.219.164.247c.192.246.41.547.657.93v.247l.547.821v.164c.411.684.822 1.368 1.205 2.08l.164.274c.383.657.766 1.368 1.122 2.052l.438.849.849 1.669c1.806 3.586 3.284 6.46 4.707 9.087l.438.794 2.053 3.859.328.657c.684 1.287 1.396 2.737 2.135 3.914a59.32 59.32 0 0 0 3.75 5.474l.274.356v.164c.194.268.404.523.629.766l.356.438 1.15 1.396a37.192 37.192 0 0 1 1.943 2.737l.383.575c.575.903 1.122 1.752 1.587 2.518l.192.329v.246l.164.246v.356l.247.383c.383.63.738 1.205 1.122 1.779.383.575.547.821.848 1.205.301.383.465.629.712.957l.766.876.849.821.273.247a46.717 46.717 0 0 0 3.093 2.573l.903.711.247.192c.627.47 1.23.973 1.806 1.505l.93.931c.247.273.52.575.794.93a38.987 38.987 0 0 1 2.929 4.297c.493.794.985 1.643 1.45 2.464.466.821.794 1.341 1.205 2.025.41.684.328.548.492.794l.493.657.41.492.33.411.41.52.273.356c.411.465.849.903 1.26 1.341l.437.438-.164-.274c-.3-.657-.602-1.286-.93-2.053a34.035 34.035 0 0 1-1.752-4.68c-.438-1.56-.794-3.175-1.15-4.735-.355-1.56-.684-3.093-1.122-4.625v-.493c-.657-2.162-1.314-4.434-1.806-6.678-.22-.931-.41-1.862-.602-2.737-.301-1.369-.575-2.737-.93-4.161a22.838 22.838 0 0 0-.85-2.354 58.64 58.64 0 0 0-1.614-3.202 60.758 60.758 0 0 0-1.04-1.806l-.712-1.205a37.673 37.673 0 0 1-2.107-4.68l-.74-1.888a46.217 46.217 0 0 0-2.189-4.215c-.438-.712-.876-1.314-1.314-1.916l-.985-1.095-1.341-1.122-1.725-1.095-2.217-1.067-2.518-1.013-.52-.219-2.463-.958a19.282 19.282 0 0 1-2.162-.931 14.521 14.521 0 0 1-2.053-1.313c-.52-.356-1.013-.767-1.478-1.15l-.52-.383c-.63-.52-1.286-1.013-1.943-1.506l-2.436-1.97-1.26-1.013-.957-.766-.849-.657-.574-.465-1.232-.986a28.839 28.839 0 0 0-2.244-1.396 4.404 4.404 0 0 0-.74-.355h-.519c0 .191 0 .383-.192.602-.192.219 0 .273 0 .41v1.205c0 .437-.41 1.395-.356 1.97v-.082Z" fill="#C8D4E1"/></svg>