<svg xmlns="http://www.w3.org/2000/svg" width="224" height="438" fill="none"><path d="M155.323 61.306C111.299 20.155 56.268.075-8.118.57c-64.386.496-118.949 21.402-163.029 63.352-43.529 41.813-65.321 93.954-64.853 157.003.467 63.049 23.085 114.722 67.247 155.873 44.713 41.152 99.578 61.232 163.992 60.598 64.413-.634 118.949-21.402 162.506-63.214 44.024-41.84 65.844-93.982 65.376-157.003-.468-63.021-23.113-114.722-67.798-155.873ZM-4.789 435.908c-113.143.882-129.817-123.949-130.505-215.947-.633-82.964 11.309-217.022 127.176-217.903 112.62-.854 129.845 124.39 130.533 215.92.633 82.44-11.887 216.994-127.204 217.875v.055Z" fill="#E9EDF3"/></svg>