<svg xmlns="http://www.w3.org/2000/svg" width="204" height="433" viewBox="0 0 204 433" fill="none"><path d="M203.935 152.436C203.935 152.162 203.935 151.889 203.935 151.615C203.964 151.278 203.964 150.939 203.935 150.602C203.896 150.175 203.813 149.754 203.689 149.343C203.53 148.713 203.151 148.16 202.621 147.783C202.403 147.682 202.164 147.63 201.924 147.63C201.683 147.63 201.445 147.682 201.226 147.783C200.537 148.052 199.869 148.372 199.228 148.741C198.543 149.124 197.887 149.507 197.23 149.945L195.314 151.368L193.507 152.764L189.785 155.802C188.499 156.87 187.267 157.965 185.953 158.977L184.804 159.744C183.353 160.51 181.766 161.085 180.233 161.714C178.57 162.302 176.943 162.987 175.361 163.767C174.601 164.143 173.869 164.573 173.171 165.054C172.488 165.474 171.855 165.97 171.283 166.532C170.697 167.072 170.166 167.668 169.695 168.311C169.171 168.994 168.687 169.707 168.245 170.445C167.383 171.867 166.606 173.339 165.918 174.852C165.207 176.385 164.55 177.972 163.701 179.45C163.373 179.943 163.072 180.436 162.743 180.901C160.656 183.56 159.045 186.56 157.981 189.769C157.105 192.944 156.366 196.146 155.49 199.321V199.595C154.97 201.511 154.341 203.372 153.848 205.288C153.355 207.204 152.945 208.791 152.452 210.515C151.96 212.24 151.686 213.252 151.221 214.429C150.755 215.606 150.29 216.728 149.77 217.878C148.921 219.821 147.991 221.71 147.033 223.571C146.075 225.432 144.871 227.457 143.749 229.373C143.393 229.948 143.064 230.55 142.681 231.125C142.298 231.7 142.052 231.672 141.778 231.973C140.539 233.175 139.37 234.445 138.275 235.778C137.144 237.146 136.085 238.571 135.1 240.048C134.662 240.759 134.224 241.444 133.813 242.155L132.417 243.907C131.979 244.454 131.514 245.029 131.049 245.549C128.668 248.286 126.122 251.023 123.631 253.76L120.347 257.346C121.195 255.594 122.017 253.842 122.81 252.063C123.85 249.682 124.781 247.273 125.684 244.81C126.122 243.661 126.533 242.538 126.916 241.361L128.065 237.475C128.832 234.738 129.571 232.001 130.31 229.264C131.049 226.527 131.815 223.79 132.554 221.053C133.293 218.316 134.005 215.332 134.716 212.459L135.127 210.762C135.864 210.424 136.57 210.021 137.234 209.557C138.035 208.973 138.769 208.303 139.424 207.559C140.081 206.848 140.71 206.109 141.34 205.397C143.776 202.598 146.016 199.635 148.046 196.529C149.078 194.947 149.993 193.291 150.783 191.575C151.166 190.727 151.549 189.851 151.877 188.975C152.206 188.099 152.507 187.223 152.781 186.238C153.054 185.253 153.355 184.486 153.602 183.501C153.848 182.516 154.094 181.777 154.368 180.901C154.943 179.122 155.572 177.343 156.147 175.564C156.722 173.785 157.297 172.115 157.844 170.363C158.391 168.612 158.939 166.942 159.404 165.218L159.651 164.342C159.668 164.255 159.664 164.166 159.641 164.081C159.618 163.996 159.576 163.918 159.518 163.852C159.46 163.785 159.387 163.734 159.306 163.7C159.224 163.666 159.136 163.652 159.048 163.658C158.765 163.666 158.486 163.731 158.227 163.849L157.461 164.205L156.612 164.643L155.134 165.519C154.624 165.822 154.154 166.19 153.739 166.614C153.496 166.875 153.267 167.149 153.054 167.435C153.107 167.302 153.171 167.174 153.246 167.052L154.067 165.163C154.286 164.588 154.532 163.986 154.724 163.384C155.189 161.988 155.6 160.647 155.928 159.114C156.257 157.582 156.558 156.377 156.859 155.009C157.16 153.64 157.433 152.272 157.652 151.122C157.871 149.973 158.145 148.194 158.309 146.743C158.474 145.292 158.501 144.006 158.528 142.72V141.816C158.546 140.245 158.482 138.674 158.337 137.109C158.337 136.342 158.173 135.576 158.063 134.837C157.959 134.117 157.813 133.404 157.625 132.702C157.433 131.963 157.215 131.252 156.996 130.54C156.777 129.828 156.722 129.828 156.612 129.5C156.501 129.201 156.373 128.908 156.229 128.624C155.698 127.43 155.095 126.269 154.423 125.148C153.027 122.739 151.522 120.386 150.153 117.95C149.195 116.143 148.292 114.309 147.416 112.476C146.54 110.642 145.719 108.562 144.871 106.618C143.803 104.128 142.736 101.637 141.504 99.2285C140.875 97.9968 140.245 96.7378 139.506 95.5609L138.931 94.7124C138.742 94.4413 138.522 94.1933 138.275 93.9734C138.106 93.8125 137.899 93.6992 137.672 93.645C137.417 93.5483 137.134 93.5483 136.879 93.645C136.67 93.7613 136.506 93.9444 136.413 94.165C136.311 94.4677 136.238 94.7792 136.194 95.0956C135.674 97.641 135.264 100.241 134.88 102.814C134.662 104.155 134.47 105.551 134.224 106.783C133.977 108.014 133.704 109.52 133.457 110.861C133.211 112.202 132.965 113.598 132.691 114.884C132.417 116.171 132.061 117.621 131.678 119.099C130.967 121.836 130.2 124.409 129.461 127.091V126.872C128.722 129.609 127.983 132.127 127.299 134.782C126.615 137.437 125.958 140.256 125.493 142.993C125.219 144.499 125 146.031 124.808 147.537V148.385V149.425V151.423C124.676 154.285 124.804 157.152 125.192 159.99C125.592 162.763 126.177 165.506 126.943 168.201C127.661 170.819 128.519 173.395 129.516 175.919L128.558 176.166H128.284H128.449C127.707 176.333 126.982 176.571 126.286 176.877C125.575 177.206 124.863 177.589 124.179 177.972L123.084 178.656L121.989 179.505C121.25 180.134 120.566 180.791 119.882 181.448C119.222 182.099 118.618 182.804 118.075 183.556C117.555 184.295 117.063 185.061 116.57 185.855C116.565 185.919 116.565 185.983 116.57 186.046L116.351 186.402C115.11 188.506 114.013 190.692 113.067 192.944L112.683 193.82C112.045 195.275 111.514 196.775 111.096 198.308C110.685 199.923 110.384 201.565 110.111 203.207C110.111 204.111 109.892 205.014 109.81 205.944C109.727 206.875 109.81 207.86 109.81 208.818C109.81 209.776 109.81 210.625 109.974 211.555C109.974 212.021 109.974 212.459 110.165 212.897C110.357 213.334 110.165 213.854 110.384 214.32V214.156C110.384 214.156 110.384 214.155 110.384 214.292C110.056 214.867 109.727 215.442 109.426 216.017C109.125 216.591 108.551 217.659 108.167 218.48C107.784 219.301 107.319 220.15 106.936 220.971L105.759 223.708C105.403 224.556 105.047 225.405 104.719 226.28L104.062 227.95C104.062 228.306 103.816 228.662 103.679 229.045C103.542 229.428 103.432 229.811 103.295 230.194C103.159 230.578 102.994 231.317 102.83 231.864L102.529 232.986C102.529 233.397 102.31 233.807 102.228 234.218C102.146 234.628 101.982 235.258 101.872 235.778C101.872 235.258 101.872 234.738 101.872 234.218C101.872 231.864 101.735 229.483 101.599 227.129C101.462 224.775 101.379 222.284 101.352 219.848C101.352 218.726 101.352 217.604 101.352 216.482V216.29C101.352 214.895 101.352 213.553 101.352 212.103C101.352 209.722 101.352 207.313 101.352 204.932C101.352 202.551 101.352 200.197 101.352 197.843C101.352 193.217 101.352 188.592 101.352 183.966V178.711C101.352 178.438 101.352 178.136 101.352 177.863V178.054C101.352 177.48 101.352 176.932 101.352 176.357V175.837C101.352 174.907 101.352 173.976 101.352 173.1V173.319C101.352 171.02 101.352 168.721 101.516 166.422C101.516 165.793 101.516 165.19 101.516 164.561L101.681 162.645C101.681 161.605 101.9 160.565 102.009 159.525L102.173 158.348C102.502 156.021 102.885 153.722 103.268 151.396C103.651 149.069 104.007 146.551 104.472 144.17C105.348 139.517 106.498 134.974 107.757 130.485C108.113 129.281 108.468 128.077 108.852 126.872C109.235 125.668 109.645 124.382 110.056 123.15L111.342 121.672L112.875 119.838C113.45 119.181 114.052 118.524 114.654 117.895C115.256 117.265 115.776 116.745 116.324 116.171L117.172 115.377C118.322 114.282 119.553 113.242 120.812 112.202L124.726 109.109L125.684 108.315L126.806 107.33L127.71 106.454C127.979 106.203 128.235 105.938 128.476 105.66C128.75 105.387 129.023 105.113 129.27 104.812L130.255 103.662L130.556 103.252L131.076 102.568L131.733 101.664L132.362 100.734L133.102 99.5569L133.84 98.2979L134.306 97.4768C135.182 95.8893 136.058 94.3019 136.879 92.7144L138.001 90.5795C138.192 90.1964 138.357 89.7858 138.548 89.3752C138.74 88.9647 138.877 88.7184 139.013 88.3899L139.643 86.9119C139.643 86.5835 139.917 86.2277 140.026 85.8992L140.437 84.8318L140.929 83.3264C141.176 82.478 141.395 81.6295 141.641 80.781C141.887 79.9326 142.024 79.2209 142.216 78.4272C142.407 77.6335 142.571 76.8945 142.736 76.1281C142.9 75.3618 143.092 74.5954 143.229 73.8017C143.365 73.0079 143.584 72.1047 143.721 71.2289C143.858 70.353 144.05 69.4224 144.186 68.4918C144.46 66.8496 144.679 65.2348 144.925 63.5926C144.925 63.0726 145.062 62.5525 145.117 62.0599C145.309 60.445 145.5 58.8302 145.664 57.188C145.664 56.3669 145.856 55.5458 145.911 54.6973C145.911 54.2868 145.911 53.8762 145.911 53.493C145.897 53.256 145.897 53.0184 145.911 52.7814C145.924 52.5261 145.924 52.2703 145.911 52.015C145.911 52.015 145.911 51.7687 145.911 51.6319V51.2487C145.879 51.1357 145.824 51.0309 145.748 50.9412C145.672 50.8515 145.579 50.779 145.473 50.7286C145.382 50.6887 145.284 50.668 145.185 50.668C145.086 50.668 144.989 50.6887 144.898 50.7286C144.695 50.7275 144.495 50.7845 144.323 50.8929C144.175 50.9871 144.037 51.0972 143.913 51.2213L142.763 52.234L141.641 53.192L139.096 55.2995C137.782 56.3395 136.359 57.4069 135.154 58.4744L131.24 61.7588C129.954 62.8263 128.64 63.8663 127.326 64.9064L126.396 65.618L125.356 66.4117L123.303 67.9171L120.977 69.5593L119.471 70.5993L118.24 71.5026L117.829 71.831L117.473 72.1047L116.789 72.7069C116.351 73.1448 115.94 73.5827 115.53 74.048C114.938 74.6954 114.389 75.3812 113.888 76.1007C113.422 76.6755 112.984 77.305 112.547 77.9072C111.616 79.2757 110.704 80.6715 109.81 82.0948L108.687 83.9559C107.828 85.4089 107.087 86.9282 106.47 88.4994C105.892 90.0564 105.408 91.6467 105.02 93.2618C104.609 94.7945 104.253 96.3546 103.925 97.9147C103.543 99.5554 103.268 101.219 103.104 102.896C103.104 103.772 103.104 104.62 102.967 105.496C102.83 106.372 102.967 107.221 102.967 108.069C102.967 108.917 102.967 109.711 102.967 110.505C103.025 111.34 103.125 112.171 103.268 112.996C103.405 113.789 103.597 114.583 103.788 115.349C103.98 116.116 104.199 116.964 104.418 117.758C104.637 118.552 104.91 119.482 105.184 120.495C105.458 121.508 105.649 121.973 105.841 122.739C105.979 123.262 106.089 123.792 106.169 124.327V124.491C105.239 127.228 104.308 129.965 103.432 132.702C102.392 136.342 101.407 139.983 100.695 143.65C100.12 146.387 99.6553 148.987 99.2173 151.67C99.0257 150.876 98.8614 150.082 98.6151 149.316C98.3688 148.549 97.8215 147.099 97.3836 146.031C96.4256 143.76 95.4128 141.488 94.3454 139.271C93.8253 138.204 93.278 137.191 92.7032 136.178C92.4295 135.685 92.1832 135.22 91.8822 134.755C91.6085 133.085 91.3074 131.443 91.0611 129.774C90.7327 127.611 90.4315 125.449 90.0757 123.287C89.7198 121.125 89.3366 119.318 88.844 117.347C88.5703 116.171 88.2966 115.021 87.9955 113.871C87.6944 112.722 87.5302 111.873 87.3113 110.861L86.9828 109.273L86.7366 108.042C86.545 106.892 86.3259 105.743 86.107 104.593L85.0397 99.119C85.0397 98.599 85.2038 98.1063 85.3133 97.5863C85.5049 96.4915 85.6965 95.424 85.8607 94.3292C86.1071 92.3859 86.3533 90.4427 86.627 88.4994C86.627 87.8425 86.8187 87.1583 86.9556 86.474C87.0924 85.7898 87.2292 85.0781 87.3934 84.3665C87.5577 83.6549 87.6945 83.0801 87.8861 82.4506C88.0777 81.8211 88.2145 81.1916 88.4061 80.5347C88.5977 79.8778 88.5977 79.8778 88.7071 79.522C89.019 78.482 89.3845 77.4588 89.802 76.4566L91.1157 73.2269C92.0189 71.1194 92.8126 68.9845 93.6337 66.8496C93.8253 66.3022 94.0444 65.7548 94.236 65.2348C94.4276 64.7148 94.6192 64.14 94.8108 63.62C95.0024 63.0999 95.1666 62.4978 95.3308 61.9504C95.4951 61.403 95.6318 60.8008 95.7687 60.2261C95.9055 59.6513 95.9876 59.2408 96.0971 58.7481C96.2066 58.2554 96.2886 57.8175 96.3707 57.3522L96.7814 55.2173C96.7814 54.752 96.9729 54.2594 97.055 53.7941C97.2466 52.5625 97.4656 51.3582 97.6572 50.1265C97.672 49.9261 97.672 49.7248 97.6572 49.5244C97.6572 49.1412 97.6572 48.758 97.6572 48.3748C97.6572 47.9916 97.6572 47.28 97.6572 46.7326C97.6572 46.1852 97.6572 45.5831 97.6572 45.0357C97.6572 44.4883 97.6572 43.8861 97.6572 43.3387C97.6572 42.1892 97.4656 41.0396 97.3288 39.8901C97.0551 37.7005 96.5077 35.5382 96.0151 33.376C95.5224 31.2138 95.057 28.942 94.7286 26.6977C94.4002 24.4533 94.1264 22.2364 93.8253 20.0194C93.6611 18.8699 93.4969 17.7477 93.3053 16.6255C93.1137 15.5033 92.9496 14.4633 92.7306 13.3685L92.4022 11.6989C92.2654 11.1241 92.1284 10.522 91.9642 9.91985C91.8 9.31771 91.718 8.85239 91.5537 8.30499C91.3895 7.75758 91.28 7.23756 91.1157 6.69016C90.7599 5.62273 90.4042 4.52793 89.9662 3.48786C89.9662 3.13205 89.6652 2.77624 89.501 2.42043C89.3898 2.15704 89.2618 1.90106 89.1178 1.65407C89.0044 1.45515 88.8664 1.27125 88.7071 1.10668C88.5834 0.976243 88.4235 0.885709 88.2479 0.8467C88.0724 0.807692 87.8892 0.821979 87.7219 0.887712C87.5852 0.978011 87.4725 1.10012 87.3934 1.24354C87.2961 1.45361 87.2226 1.67393 87.1744 1.90039C86.9643 2.60071 86.7084 3.28645 86.4082 3.95315C85.7786 5.34902 85.0943 6.69017 84.4374 8.11342L83.4521 10.1662C83.2879 10.522 83.1237 10.8778 82.9321 11.2336L82.7679 11.6168C82.4121 12.2189 82.0562 12.7937 81.673 13.3685L79.8393 16.1055C79.5108 16.5708 79.1825 17.0361 78.8814 17.5287C78.5803 18.0214 78.2244 18.4867 77.9233 19.0067L77.3761 19.9647C77.2505 20.1562 77.1405 20.3576 77.0475 20.5668L76.2264 22.1269L74.8033 25.1102C73.8179 27.163 72.8326 29.1884 72.0663 31.2685C71.2999 33.3486 70.3146 35.4561 69.3292 37.5363C68.3439 39.6164 67.4954 41.806 66.5922 43.9683C66.4006 44.4609 66.1816 44.9536 66.0174 45.4462C65.8532 45.9389 65.6068 46.5958 65.4426 47.1706C65.2784 47.7453 65.0868 48.2927 64.9499 48.8948L64.5395 50.7286C64.5395 51.3581 64.2931 51.9877 64.1563 52.6172L63.9099 54.1225C63.8011 54.6288 63.719 55.1404 63.6636 55.6553L63.4994 56.8869V57.3522V58.447V59.186C63.4994 59.7334 63.4994 60.3082 63.4994 60.8556C63.4994 61.403 63.4994 61.4851 63.4994 61.8135C63.4857 62.0505 63.4857 62.2882 63.4994 62.5252C63.4994 63.0726 63.4994 63.6474 63.4994 64.1948C63.4994 64.7422 63.4994 65.399 63.6636 66.0012C63.8278 66.6033 63.6635 67.2055 63.8825 67.8076C64.0193 68.875 64.2109 69.9425 64.4299 70.9825C64.4299 71.5026 64.6489 72.05 64.7857 72.57L65.1141 73.7469L65.2784 74.2669L65.9352 76.1281L66.1816 76.7029C66.3185 77.0587 66.4826 77.3871 66.6195 77.743C67.0848 78.7556 67.5776 79.741 68.125 80.6989C68.6724 81.6569 69.1923 82.6422 69.7945 83.4359C70.0682 83.8739 70.3419 84.3118 70.643 84.7223L71.8472 86.4466C72.1483 86.9119 72.5041 87.3225 72.8599 87.7878L73.7358 88.8826L75.0221 90.3879C75.4327 90.8806 75.8707 91.3459 76.3086 91.8385C76.7465 92.3312 77.7045 93.3986 78.3613 94.1924L80.6603 96.9294L81.7552 98.2431L82.8227 99.5569L83.0415 99.8854L83.2879 101.746C83.4248 102.759 83.5616 103.772 83.7258 104.785C83.89 105.797 84.0542 107.029 84.2458 108.151C84.2458 108.589 84.2459 109.027 84.4648 109.465C84.6838 109.903 84.629 110.423 84.7385 110.915C85.0122 111.983 85.2312 113.078 85.5049 114.145C86.0797 116.253 86.6818 118.36 87.2292 120.495V120.331L87.8041 122.63C87.9957 123.369 88.1325 124.081 88.2967 124.792C88.4609 125.504 88.7346 126.708 88.9536 127.666C89.1725 128.624 89.2272 128.898 89.3914 129.527L88.5977 127.967C88.1051 127.091 87.585 126.215 87.065 125.23C86.545 124.245 85.9975 123.588 85.4501 122.767C84.4374 121.207 83.3153 119.729 82.2205 118.223C81.3234 116.921 80.3549 115.669 79.3192 114.474L78.7446 113.844L78.1697 113.269L77.0202 112.229C76.2539 111.572 75.4328 110.97 74.6117 110.368C73.7906 109.766 73.161 109.355 72.3947 108.863L69.9313 107.166C68.3409 106.068 66.666 105.098 64.9225 104.265L64.4025 104.046L64.1563 103.745C63.8552 103.361 63.5815 102.978 63.3078 102.568L62.3225 101.227C62.0214 100.789 61.6929 100.378 61.3918 99.9675L60.9812 99.4474L60.5708 98.9548L59.8317 98.1063C59.7465 97.9757 59.6454 97.8562 59.5307 97.7505V97.5863V97.4494V97.2852L59.2569 96.9841L59.0927 96.7925L58.9012 96.5736C58.9012 96.5736 58.9011 96.5736 58.7643 96.4367L58.1348 96.4641L57.3958 95.7525L56.6021 95.0135C56.301 94.7124 55.9452 94.4387 55.6168 94.165L54.823 93.5081L54.0841 92.9607L53.7009 92.687L52.5786 91.9206L51.6755 91.4006L50.3616 90.689C49.3237 90.1689 48.2432 89.7386 47.132 89.4026C46.0118 89.0574 44.8685 88.7922 43.7107 88.6089C41.9043 88.3352 40.0705 88.1983 38.2367 88.0614L35.9651 87.8972H34.788H33.5017C33.088 87.925 32.6766 87.9799 32.27 88.0614L30.7647 88.2531L28.4655 88.9647C26.9876 89.4573 25.5097 89.9774 24.0044 90.3879L22.6631 90.6616L21.2126 90.8806C20.5557 90.8806 19.9261 91.0175 19.2692 91.0448H17.2165C15.6564 91.0448 14.0964 91.0448 12.5089 91.3459L7.74653 91.8659L5.22836 92.0849H4.13365H3.4768H2.49135C2.20166 92.0988 1.91981 92.1834 1.67028 92.3312C1.43772 92.4405 1.23905 92.6108 1.09544 92.8239C0.960227 93.0218 0.867138 93.2454 0.82181 93.4808C0.780751 93.707 0.780751 93.9388 0.82181 94.165C0.890271 94.7316 1.06681 95.2798 1.34185 95.7798C1.53026 96.1832 1.74035 96.5761 1.97131 96.9567L3.203 98.9821C4.13358 100.405 5.06416 101.719 5.94 103.252L7.30851 105.305C7.55484 105.66 7.8012 106.016 8.02016 106.372C8.1047 106.496 8.19601 106.614 8.29379 106.728L8.78644 107.357L9.60767 108.425C9.93611 108.835 10.2919 109.219 10.6477 109.602C11.0095 110.023 11.3932 110.425 11.7972 110.806C13.4384 112.419 15.2778 113.817 17.2713 114.966C18.3059 115.543 19.3754 116.055 20.4735 116.499C22.6577 117.422 24.9464 118.074 27.2886 118.442C28.3106 118.616 29.3449 118.708 30.3815 118.716H33.1185H34.2408L35.2534 118.579L36.2935 118.442L36.9778 118.305L38.0725 118.086C38.8662 117.922 39.6327 117.703 40.399 117.484C40.8085 117.395 41.211 117.276 41.6033 117.128L42.5612 116.855L45.2982 116.061L47.3784 115.432L50.1154 114.61L52.3871 113.844C53.9199 113.351 55.48 112.914 57.0127 112.476L59.0107 112.038L60.8992 111.709H61.6383H62.3771C65.0681 111.75 67.7546 111.942 70.424 112.284C70.9492 112.355 71.47 112.456 71.9841 112.585H72.2851L72.9693 112.941L73.8178 113.516C74.1463 113.735 74.4475 113.981 74.8033 114.173C75.1005 114.337 75.4119 114.474 75.7338 114.583L77.5949 117.046L79.593 119.783C80.9615 121.699 82.33 123.643 83.6985 125.504L85.7513 128.241L87.9955 130.978L88.9809 132.428C89.3094 132.894 89.583 133.386 89.884 133.879C90.1851 134.372 90.1852 134.481 90.3495 134.782C90.7053 135.603 91.0883 136.424 91.4442 137.273L91.8822 138.176L92.2106 139.709C92.2106 140.147 92.4569 140.585 92.5664 141.05C92.6759 141.515 92.8675 142.145 93.0865 142.692C93.127 142.774 93.1894 142.843 93.2667 142.891C93.344 142.939 93.4331 142.965 93.5243 142.966H93.7159C94.0991 143.979 94.4822 144.964 94.838 146.004C95.4949 147.81 96.0425 149.644 96.5351 151.478C96.7541 152.463 97.0004 153.449 97.1646 154.461C97.3288 155.474 97.493 156.432 97.6298 157.417C97.7667 158.403 97.6298 158.731 97.8214 159.361C97.8475 159.698 97.8475 160.036 97.8214 160.373V161.386C97.8535 161.72 97.9177 162.05 98.013 162.371C98.0002 162.544 98.0002 162.718 98.013 162.891C98.013 163.357 98.013 163.822 98.013 164.315C98.013 165.546 98.013 166.778 98.013 168.037C98.013 170.528 98.1772 173.018 98.2867 175.536C98.3962 178.054 98.5058 180.353 98.5879 182.762C98.8616 192.159 98.9528 201.538 98.8615 210.898C98.8615 212.486 98.8615 214.101 98.8615 215.688V215.825C98.8615 216.099 98.8615 216.373 98.8615 216.674C98.8615 218.754 98.8615 220.861 98.8615 222.969C98.8615 225.076 98.8615 226.91 99.0531 228.881C99.2447 230.851 99.0531 232.63 99.0531 234.519C99.0531 237.749 98.889 240.978 98.5879 244.208C98.1226 249.025 97.5751 253.815 97.0004 258.605C96.4256 263.394 95.8235 268.02 95.1666 272.728C94.8655 274.726 94.5643 276.724 94.1812 278.694C93.798 280.665 93.3874 282.608 92.9495 284.551C92.101 288.246 91.1431 291.941 90.2125 295.499C89.4735 298.017 88.5978 300.481 87.8041 302.971C87.2019 304.805 86.627 306.612 85.9427 308.446C84.629 310.06 83.3427 311.703 82.1384 313.4L79.7845 316.766C79.0181 317.888 78.2518 319.038 77.4581 320.16C76.2812 321.829 75.1043 323.472 73.9 325.114V324.758C74.2832 323.116 74.5842 321.446 74.8579 319.777C75.1316 318.107 75.4054 316.492 75.6517 314.877C76.1718 311.511 76.637 308.117 76.938 304.723C77.1023 303.026 77.2392 301.329 77.3761 299.605C77.5129 297.881 77.595 296.211 77.6771 294.514C77.8413 291.202 78.0329 287.891 78.3339 284.579C78.635 281.267 78.7171 277.928 78.854 274.616C78.854 272.919 78.854 271.222 79.0182 269.525C79.0182 268.759 79.0182 268.02 79.0182 267.281C79.1614 267.28 79.3032 267.251 79.4348 267.195C79.5665 267.138 79.6853 267.056 79.7845 266.952C79.9879 266.721 80.1209 266.436 80.1677 266.131C80.1677 265.912 80.1677 265.693 80.1677 265.502C80.1677 265.31 80.1677 264.79 80.3045 264.434L80.4687 262.929C80.6056 261.78 80.7425 260.63 80.9067 259.48C81.2352 257.373 81.5636 255.293 81.9468 253.185C82.33 251.078 82.7953 248.341 83.2879 245.932C83.7806 243.524 84.2185 241.444 84.7933 239.227L85.0397 238.433C85.0397 238.186 85.1764 237.94 85.2585 237.721C85.3406 237.502 85.6691 236.736 85.8607 236.216C86.7092 234.3 87.6398 232.411 88.5977 230.523C89.1451 229.401 89.6926 228.306 90.1852 227.184C90.4323 226.667 90.6515 226.137 90.8421 225.596C90.9681 225.311 91.0778 225.018 91.1705 224.72C91.2557 224.515 91.3288 224.305 91.3895 224.091C91.5538 223.489 91.7453 222.914 91.8822 222.284C91.9748 221.99 92.039 221.688 92.0738 221.381L92.2652 220.368C92.2652 219.766 92.4295 219.164 92.4842 218.562C92.539 217.96 92.4842 217.522 92.6211 217.002C92.7579 216.482 92.6211 215.743 92.6211 215.113C92.6211 214.484 92.6211 214.539 92.6211 214.238C92.6211 213.937 92.6211 213.635 92.6211 213.362C92.5253 212.162 92.3332 210.972 92.0464 209.804C91.9095 209.229 91.7453 208.627 91.5537 208.025C91.217 207.155 90.7952 206.321 90.2947 205.534C89.6378 204.494 88.9535 203.454 88.3787 202.386C88.0757 201.84 87.8106 201.273 87.5851 200.689C87.3435 200.092 87.1422 199.48 86.9828 198.856L86.7366 197.925C86.7366 197.46 86.5449 196.994 86.4628 196.529C86.3807 196.064 86.3261 195.763 86.2439 195.38C86.2439 194.559 85.9976 193.765 85.8881 192.944C85.7786 192.123 85.6965 191.411 85.5597 190.645C85.4228 189.878 85.5596 189.714 85.3407 189.276L85.0943 187.908C85.0943 187.388 84.8481 186.84 84.7112 186.32C84.5942 185.781 84.4386 185.25 84.2458 184.733C84.0542 184.131 83.8353 183.528 83.6164 182.926C83.3974 182.324 83.1237 181.749 82.9047 181.175C82.6857 180.6 82.4942 180.244 82.2752 179.806C81.8315 178.93 81.3381 178.08 80.7973 177.261C79.9997 176.181 79.1407 175.149 78.2245 174.168C76.6371 172.389 75.0495 170.61 73.5168 168.694L71.1904 165.957C70.4788 165.108 69.7124 164.26 68.9734 163.439C68.2344 162.618 67.468 161.742 66.7017 160.921C66.3394 160.508 65.9558 160.116 65.5522 159.744C65.1147 159.365 64.658 159.008 64.1837 158.676C63.2531 158.047 62.2678 157.472 61.2824 156.897C60.9739 156.7 60.6041 156.622 60.2424 156.678H59.9412H59.6949C59.5921 156.714 59.5002 156.775 59.4283 156.857C59.3563 156.938 59.3067 157.037 59.2843 157.144L59.1201 157.8C59.1201 158.211 58.9286 158.622 58.8465 159.032L58.2716 161.578C57.8611 163.357 57.4232 165.136 56.9579 167.052C56.7937 167.544 56.6569 168.064 56.4927 168.584C56.3284 169.104 56.1641 169.597 55.9999 170.09C55.8356 170.582 55.6714 171.048 55.5072 171.513L54.823 173.182C54.7384 173.351 54.6654 173.524 54.6041 173.703C54.5895 173.747 54.5895 173.795 54.6041 173.839V174.031V174.277C54.4125 174.715 54.2209 175.126 54.0019 175.564C53.0166 177.644 51.9492 179.724 50.9912 181.831C50.4438 183.036 49.9238 184.24 49.4311 185.444C48.9932 186.512 48.5826 187.634 48.1994 188.729C47.8163 189.823 47.4604 190.809 47.132 191.849C46.8035 192.889 46.393 194.23 46.0919 195.434C45.7908 196.639 45.6267 197.788 45.4624 198.965C45.2982 200.142 45.1613 201.374 45.0792 202.605C44.9971 203.837 45.0792 204.959 45.0792 206.163C45.1116 207.372 45.2122 208.579 45.3804 209.776C45.5446 210.926 45.7635 212.048 46.0099 213.198C46.2562 214.347 46.5299 215.469 46.8309 216.591C47.4331 218.863 48.0626 221.162 48.8563 223.379C49.2395 224.501 49.6775 225.596 50.1428 226.691C50.6081 227.786 51.0733 228.908 51.6207 229.948C51.9947 230.652 52.4444 231.313 52.9618 231.919C53.2508 232.267 53.5617 232.596 53.8925 232.904C54.2761 233.315 54.6877 233.699 55.1242 234.054C55.6168 234.437 56.0821 234.847 56.6021 235.231L58.1896 236.407C59.0928 237.064 60.0781 237.694 60.9266 238.323C61.7751 238.953 62.7878 239.637 63.6636 240.321L64.9773 241.443L66.2364 242.675L67.1123 243.66L67.9333 244.701C68.7027 245.77 69.4063 246.885 70.0407 248.04C70.3965 248.697 70.6977 249.353 71.0262 250.038C71.3546 250.722 71.8746 252.118 72.3399 253.158C72.8052 254.198 73.2978 255.265 73.8178 256.305C74.3378 257.346 74.9401 258.358 75.4601 259.371C75.9802 260.384 76.3907 261.342 76.8012 262.354C76.7977 262.418 76.7977 262.482 76.8012 262.546V262.683C76.9654 264.325 77.1023 265.967 77.1844 267.637C77.2666 269.306 77.1844 270.702 77.1844 272.207C77.1844 273.713 77.1844 275.437 77.1844 277.025C77.1844 278.612 77.1844 280.336 76.9654 281.951C76.7465 283.566 76.6096 285.4 76.3906 287.124C75.9801 290.409 75.6517 293.72 75.2411 297.032C74.9127 299.304 74.5294 301.576 74.1462 303.82C73.5988 307.323 73.0516 310.854 72.5589 314.357C72.0662 317.861 71.8472 320.926 71.4092 324.211C71.1355 326.209 70.7797 328.207 70.3966 330.177L68.0428 333.599C66.4553 335.898 64.8405 338.197 63.2804 340.496C62.4867 341.673 61.7202 342.822 60.9812 343.999C60.2422 345.176 59.5581 346.326 58.9012 347.503C58.5454 348.077 58.2168 348.68 57.8884 349.282C55.5072 353.387 53.5093 357.684 51.4839 361.981C49.9512 365.266 48.5553 368.605 47.269 371.999C47.269 371.342 47.2688 370.685 47.4878 370.001C47.7068 369.317 47.6795 368.386 47.7342 367.592C47.7889 366.799 47.7342 365.923 47.9258 365.102C48.1721 361.899 48.5826 358.697 49.0479 355.495V355.139V355.002C49.3764 352.867 49.6774 350.76 49.9238 348.625C50.1701 346.49 50.4164 344.328 50.7174 342.193C50.7174 341.426 50.9364 340.66 51.0733 339.894C51.6604 336.625 52.0716 333.326 52.305 330.013C52.4147 328.391 52.4147 326.763 52.305 325.141C52.305 324.265 52.3049 323.39 52.0859 322.404V321.255C52.0915 320.701 52.0271 320.15 51.8943 319.612C51.8607 319.543 51.8083 319.485 51.743 319.444C51.6776 319.403 51.6021 319.381 51.525 319.381C51.4479 319.381 51.3722 319.403 51.3068 319.444C51.2415 319.485 51.1891 319.543 51.1555 319.612C51.1066 319.675 51.0801 319.752 51.0801 319.831C51.0801 319.911 51.1066 319.988 51.1555 320.05V320.598C51.1555 321.72 51.1555 322.842 51.1555 323.992V327.167C51.1555 328.645 51.1554 330.095 50.9091 331.546C50.6627 332.997 50.5806 334.283 50.389 335.597C49.9237 338.58 49.3764 341.563 48.9111 344.547C48.6374 346.244 48.3637 347.941 48.0352 349.61C47.7068 351.28 47.3783 352.867 46.9952 354.482C46.612 356.097 46.2289 357.739 45.8731 359.381C45.5172 361.023 45.1066 362.447 44.7782 364.007C44.4497 365.567 44.1213 367.154 43.7381 368.714C43.3549 370.275 42.9444 371.835 42.616 373.422C42.2876 375.01 42.0685 376.789 41.8496 378.486C41.6306 380.183 41.3844 381.688 41.2749 383.303C41.1791 384.98 41.1791 386.662 41.2749 388.339C41.2749 389.789 41.4938 391.24 41.6033 392.691C41.4391 393.703 41.2475 394.716 41.0559 395.729C40.618 398.055 40.0705 400.354 39.4958 402.626C38.921 404.898 38.3736 406.95 37.9631 409.14C37.5525 411.33 37.2514 413.738 36.8682 416.037C36.485 418.336 36.1293 420.663 35.7735 422.962C35.6051 424.241 35.5319 425.531 35.5545 426.821C35.5689 427.512 35.6515 428.199 35.8009 428.874V429.257C35.8889 429.754 36.0749 430.229 36.3481 430.653C36.7214 431.29 37.2734 431.804 37.9357 432.131C38.4622 432.425 39.0568 432.576 39.66 432.569C39.8964 432.596 40.1352 432.596 40.3716 432.569C41.2327 432.401 42.0139 431.953 42.5933 431.295C43.1727 430.636 43.5175 429.804 43.5739 428.929C43.5739 428.518 43.5739 428.108 43.5739 427.697V426.411C43.5739 424.714 43.7655 422.989 43.9571 421.292C44.1487 419.595 44.4772 417.351 44.6962 415.38C44.9151 413.41 45.0792 410.755 45.2708 408.428C45.4624 406.102 45.7087 403.721 45.9551 401.394C45.9551 399.998 46.2014 398.657 46.3109 397.207C46.3109 396.933 46.3109 396.659 46.3109 396.386C46.5846 394.579 46.913 392.773 47.2962 390.912C47.6794 389.05 48.1448 387.162 48.6101 385.273C49.4859 381.688 50.3891 378.102 51.3471 374.544C51.5934 373.668 51.867 372.793 52.1407 371.807L53.2082 368.714C53.8651 366.908 54.604 365.129 55.3156 363.24L55.9999 361.735C56.0219 361.688 56.0333 361.637 56.0333 361.585C56.0333 361.533 56.0219 361.481 55.9999 361.434C56.7115 359.819 57.4505 358.204 58.2442 356.617L59.0927 355.002L59.4485 354.591C59.7094 354.34 59.9836 354.102 60.2697 353.88L61.1182 353.196C61.3902 352.988 61.6734 352.797 61.9667 352.621L62.8424 352.101L65.8806 350.568C66.8933 350.103 67.8513 349.555 68.8092 349.035C69.7672 348.515 70.6977 347.941 71.5462 347.393L74.2832 345.806C76.117 344.793 77.9508 343.835 79.7572 342.85L82.4943 341.344H82.33L83.4247 340.77H83.6164L86.0797 339.483H86.4082L86.627 339.346L86.9282 339.1L87.0924 338.963L90.3221 337.266L96.9182 333.79L100.203 332.121L103.843 330.205C104.938 329.603 106.005 328.946 107.073 328.316L110.111 326.592L111.999 325.552C114.271 324.375 116.543 323.225 118.76 321.994C119.389 321.638 119.964 321.255 120.566 320.871L121.278 320.735L123.084 320.461H123.96L124.754 320.324H124.589H125.411C127.107 320.187 128.832 320.133 130.529 320.05L135.127 319.777C136.714 319.777 138.274 319.366 139.834 319.092L141.86 318.709L144.296 318.189L145.445 317.916L146.841 317.532L147.69 317.259L148.867 316.875H149.168L149.524 316.711L150.153 316.465H150.536L151.385 316.082L152.096 315.781L153.93 315.425L155.956 314.412L157.105 313.81L158.145 313.153C159.43 312.303 160.631 311.331 161.731 310.252L161.922 310.088L164.659 307.515L167.232 304.997C168.337 303.919 169.388 302.786 170.38 301.603C170.927 300.973 171.42 300.344 171.912 299.687L172.624 298.702L173.253 297.744L173.582 297.196C173.582 297.06 173.746 296.923 173.801 296.786C173.856 296.649 174.157 296.102 174.321 295.746C174.485 295.39 174.978 294.268 175.251 293.501C175.799 291.996 176.291 290.491 176.784 288.958C177.277 287.425 177.687 286.029 178.125 284.551C178.563 283.073 179.056 281.65 179.576 280.2C180.096 278.749 180.561 277.463 181.054 275.985C181.547 274.507 182.094 273.083 182.641 271.66C183.736 268.732 184.886 265.83 185.981 262.902C186.501 261.451 187.021 260 187.513 258.55C187.961 257.177 188.327 255.779 188.608 254.362C188.661 254.256 188.689 254.139 188.689 254.02C188.689 253.901 188.661 253.784 188.608 253.678C188.524 253.584 188.416 253.514 188.296 253.476C188.175 253.437 188.047 253.431 187.924 253.459C187.778 253.494 187.645 253.57 187.541 253.678L187.103 254.034L186.364 254.636L184.667 255.895L183.517 256.689L182.176 257.455C181.492 257.838 180.78 258.194 180.069 258.55C179.357 258.906 178.125 259.535 177.14 259.946C176.155 260.356 175.607 260.411 174.868 260.657L173.719 260.904C173.341 261.003 172.957 261.076 172.569 261.123L170.516 261.478L169.422 261.643L168.245 261.834C167.319 261.995 166.405 262.214 165.508 262.491C163.811 263.146 162.23 264.07 160.827 265.228C160.171 265.693 159.541 266.213 158.884 266.706L157.132 268.047C156.777 268.294 156.448 268.567 156.065 268.786L154.943 269.525L154.368 269.881L153.821 270.21L152.753 270.784L150.673 271.934C149.961 272.317 149.305 272.727 148.62 273.138C148.303 273.313 148.001 273.515 147.717 273.74C147.423 273.934 147.14 274.145 146.869 274.37C146.565 274.583 146.273 274.811 145.993 275.054L145.007 275.957L144.077 276.888L143.42 277.545L142.599 278.421L141.723 279.406C139.643 281.787 137.672 284.278 135.756 286.768L134.388 288.657C133.923 289.286 133.485 289.916 133.047 290.573L132.581 291.339C132.363 291.695 132.116 292.023 131.925 292.407C131.733 292.79 131.158 293.72 130.83 294.405C130.501 295.089 130.474 295.062 130.31 295.417L129.708 296.704L129.297 297.634L128.859 298.647C128.257 300.152 127.655 301.685 127.08 303.19L125.575 307.241C125.274 308.035 124.973 308.856 124.644 309.65L123.823 311.675L123.139 313.263C122.509 314.741 121.852 316.219 121.195 317.669L120.894 317.916L118.978 319.229C118.322 319.64 117.637 320.05 116.926 320.434H117.117L116.159 320.954L110.029 324.211H109.837H109.591C106.854 325.771 104.117 327.495 101.215 329.083C98.8067 330.369 96.3709 331.601 93.9623 332.86L94.0991 332.723C94.6739 332.011 95.2487 331.245 95.7961 330.506L97.3836 328.398L99.9016 325.032L102.392 321.857L104.938 318.463C105.731 317.368 106.553 316.301 107.264 315.124L107.456 314.795L107.647 314.467L108.222 313.482L110.138 309.951C110.327 309.65 110.501 309.339 110.658 309.02C110.859 308.709 111.007 308.367 111.096 308.008C111.215 307.436 111.148 306.841 110.904 306.311C110.46 306.524 110.067 306.832 109.755 307.214C109.612 307.369 109.492 307.544 109.399 307.734L109.153 308.172C109.153 308.446 108.852 308.719 108.715 309.02L107.729 310.854C107.073 312.031 106.416 313.235 105.759 314.385C105.43 314.932 105.102 315.425 104.746 315.945L103.569 317.587C102.803 318.682 101.982 319.749 101.161 320.817C100.339 321.884 99.491 323.034 98.6425 324.129C97.794 325.223 97.0551 326.291 96.2887 327.386C94.6465 329.657 93.0864 331.984 91.3621 334.173L84.8754 337.704C82.6858 338.936 80.5236 340.222 78.3613 341.536C76.1991 342.85 74.0369 344.109 71.902 345.477C69.7672 346.846 67.9059 348.214 65.7984 349.364L63.992 350.376L62.5413 351.198L61.7203 351.718L60.9266 352.265L61.4192 351.389C62.1582 350.185 62.9245 348.981 63.7182 347.804L66.0174 344.465C67.6322 342.111 69.2745 339.73 70.862 337.348C72.4494 334.967 73.8999 332.75 75.5147 330.506C77.1296 328.261 78.8266 326.127 80.5235 323.992C82.6037 321.419 84.7112 318.846 86.764 316.273C88.3788 314.303 89.9661 312.332 91.581 310.389C93.1958 308.445 94.6192 306.639 95.9877 304.641C97.712 302.178 99.3267 299.66 100.832 297.06C102.337 294.459 103.569 291.914 105.02 289.286L107.1 285.29C107.784 284.004 108.496 282.718 109.18 281.404C110.494 278.667 111.725 276.121 112.902 273.412C114.079 270.702 114.955 268.649 115.968 266.268C116.488 265.037 117.063 263.805 117.637 262.573L117.856 262.135L118.486 261.314C119.17 260.466 119.854 259.617 120.593 258.824C121.332 258.03 121.688 257.647 122.208 257.044L124.507 254.554C127.025 251.817 129.571 249.08 132.089 246.343C134.607 243.606 136.304 241.252 138.548 238.789C139.725 237.475 140.957 236.188 142.134 234.875C143.239 233.609 144.263 232.274 145.199 230.879L146.376 230.003L151.85 225.897C152.534 225.405 153.246 224.885 153.958 224.447C154.669 224.009 155.436 223.571 156.202 223.133L159.897 221.326C161.128 220.752 162.36 220.232 163.592 219.712C164.824 219.192 166.329 218.672 167.56 218.097C168.272 217.768 168.984 217.413 169.668 217.029C170.442 216.606 171.191 216.14 171.912 215.634C172.651 215.141 173.363 214.621 174.074 214.073C174.786 213.526 175.333 213.061 175.936 212.513L177.852 210.652C178.536 209.968 179.193 209.256 179.85 208.545C180.917 207.395 181.957 206.218 183.079 205.123C184.202 204.029 185.625 202.77 186.802 201.483C187.979 200.197 189.128 198.746 190.25 197.515C191.372 196.283 192.413 194.996 193.453 193.71C194.055 192.971 194.657 192.205 195.232 191.438L195.971 190.398C196.217 189.988 196.491 189.577 196.71 189.139C196.929 188.701 197.503 187.743 197.832 187.004L198.981 184.267C199.292 183.464 199.565 182.671 199.802 181.886C200.076 181.038 200.35 180.189 200.569 179.313C200.788 178.438 200.979 177.671 201.171 176.85C201.363 176.029 201.527 175.126 201.691 174.25L202.101 171.759C202.101 170.966 202.348 170.172 202.457 169.378V169.214V168.584V168.803C202.457 168.803 202.457 168.557 202.457 168.447V168.283V167.955C202.813 165.574 203.087 163.138 203.333 160.729C203.333 159.47 203.607 158.211 203.689 156.925C203.771 155.638 203.853 154.708 203.853 153.613V153.284V152.354L203.935 152.436ZM106.251 118.743C106.115 118.196 106.005 117.676 105.868 117.156C105.731 116.636 105.731 116.526 105.677 116.225C105.622 115.924 105.677 115.869 105.677 115.705C105.485 114.775 105.348 113.817 105.211 112.968C105.211 112.202 105.047 111.381 105.02 110.587C104.992 109.793 105.02 108.753 105.02 107.85C105.02 106.892 105.02 105.825 105.02 104.785C105.02 103.745 105.239 102.65 105.376 101.664C105.376 101.254 105.376 100.871 105.567 100.487L106.06 97.9695C106.251 97.1484 106.416 96.3272 106.607 95.5609V95.205C106.936 93.8092 107.237 92.4681 107.62 90.9901L108.03 89.731L108.55 88.3352C108.852 87.6509 109.098 87.1035 109.372 86.6108C109.645 86.1182 109.919 85.5708 110.247 84.996C110.959 83.7096 111.698 82.478 112.273 81.5474L112.547 81.0547L114.107 78.6462L115.147 77.1682L116.269 75.6902L117.09 74.7049L117.829 73.9385L118.021 73.7743L118.404 73.4458L118.978 72.9805L119.608 72.5153L120.019 72.2142L120.758 71.6941L120.922 71.5573H121.113L123.221 70.052L125.137 68.6561H125.274L126.341 67.8349L128.366 66.2749L129.352 65.5085L133.293 62.2788C134.497 61.2661 135.756 60.1987 137.015 59.2134L138.712 57.8722L138.959 57.6807V57.8722V58.0365C138.439 58.9944 137.891 59.9524 137.344 60.7735C136.796 61.5946 136.632 61.923 136.194 62.5525C135.373 63.7021 134.552 64.9064 133.786 66.0559C132.144 68.4918 130.447 71.0099 128.613 73.3364C127.983 74.1027 127.299 74.8964 126.587 75.6628L125.684 76.5934L125.547 76.7302L125.274 76.9766L124.452 77.8524V78.0166C124.292 78.1772 124.146 78.3512 124.015 78.5367L123.522 79.2209C123.166 79.7683 122.892 80.2063 122.674 80.6168C122.154 81.52 121.633 82.5054 121.113 83.6549L120.867 84.2023C120.675 84.6128 120.484 85.0234 120.32 85.4613C120.131 85.8899 119.967 86.3285 119.827 86.7751L119.334 88.2804V88.5541L119.17 89.0742V89.43C119.145 89.538 119.145 89.6503 119.17 89.7584C119.204 89.8073 119.249 89.8476 119.301 89.8761C119.353 89.9046 119.412 89.9205 119.471 89.9226C119.58 89.8548 119.671 89.7626 119.737 89.6533C119.804 89.544 119.844 89.4207 119.854 89.2931C119.854 89.2931 119.854 89.2931 119.854 89.1289C119.854 88.9647 119.991 88.7183 120.046 88.4994V88.1983C120.21 87.6783 120.402 87.1582 120.593 86.6656C120.824 86.0847 121.089 85.518 121.387 84.9687C121.688 84.3939 122.017 83.8465 122.318 83.2991C122.619 82.7517 122.947 82.259 123.276 81.7664C123.604 81.2737 123.878 80.9452 124.179 80.5621L124.316 80.3979V80.2336C124.48 80.0147 124.672 79.8231 124.863 79.6041C125.032 79.4082 125.215 79.2252 125.411 79.0567L126.724 77.8798L128.12 76.6481C129.078 75.7723 129.954 74.8417 130.693 73.9111C131.432 72.9805 132.226 72.2142 133.019 71.1741L133.704 70.3804L135.1 68.7656L137.234 66.0285C137.365 65.8344 137.512 65.6513 137.672 65.4811C138.192 64.7969 138.74 64.1126 139.205 63.3736C139.827 62.3983 140.385 61.3835 140.875 60.3356C141.422 59.186 141.915 58.1459 142.325 57.188C142.531 56.7323 142.714 56.2664 142.873 55.7921C142.885 55.6281 142.885 55.4635 142.873 55.2995C142.885 55.1355 142.885 54.9708 142.873 54.8068C142.901 54.5796 142.901 54.3497 142.873 54.1225L143.557 53.5478V53.7667C143.557 54.451 143.557 55.1352 143.365 55.7921V56.0658C143.365 56.9143 143.174 57.7354 143.064 58.5839V58.8302L142.654 61.8683L142.407 63.7021V63.62L142.161 65.2348L142.024 66.0559L141.86 67.3149V67.4792C141.86 67.7529 141.86 68.0266 141.723 68.3003C141.586 68.574 141.723 69.1487 141.531 69.5593C141.367 70.4077 141.23 71.2836 141.094 72.2963C140.792 73.9385 140.464 75.5533 140.053 77.4692C140.053 78.0166 139.835 78.564 139.698 79.1115L139.533 79.9052C139.533 80.3978 139.287 80.8631 139.178 81.3558C139.068 81.8484 139.041 81.8758 138.959 82.1221C138.877 82.3685 138.74 82.9433 138.603 83.3264V83.7644C138.603 84.1475 138.357 84.5033 138.247 84.8591V85.0508V85.2971C138.247 85.6529 138.001 86.0087 137.864 86.3645L137.617 86.9393C137.617 87.2404 137.344 87.5688 137.234 87.8699L137.015 88.3078L136.824 88.7457V89.0468C136.744 89.2435 136.652 89.4354 136.55 89.6216L136.222 90.3058L135.483 91.7017L134.251 94.0829C133.813 94.8766 133.375 95.6704 132.91 96.4641C132.445 97.2578 132.28 97.5863 131.952 98.161L131.788 98.4347L131.405 99.0095L131.021 99.6116C130.873 99.8594 130.708 100.097 130.529 100.323V100.46V100.679C130.365 100.898 130.228 101.117 130.063 101.309L129.817 101.637L129.27 102.321L128.613 103.088L128.394 103.361L127.737 104.073V104.237L127.08 104.867L126.149 105.77L125.547 106.317C125.417 106.403 125.297 106.504 125.192 106.618L123.823 107.412L122.29 108.616L121.798 109.027L121.414 109.301C120.292 110.204 119.115 111.107 117.993 112.038L116.023 113.762C115.393 114.309 114.818 114.912 114.243 115.459C113.723 115.979 113.176 116.526 112.601 117.156L111.452 118.47C111.452 118.141 111.671 117.785 111.753 117.457C112.382 115.459 112.984 113.434 113.559 111.463C113.915 110.286 114.244 109.136 114.599 107.987C114.955 106.837 115.201 106.016 115.475 105.058C115.749 104.1 116.159 102.841 116.488 101.719C116.953 100.132 117.473 98.4621 118.021 96.4914C118.212 95.8346 118.404 95.1503 118.623 94.4387C118.662 94.2307 118.662 94.0172 118.623 93.8092C118.604 93.6053 118.539 93.4085 118.431 93.2344C118.225 92.9141 117.9 92.6879 117.528 92.6049H117.254C116.941 92.6074 116.639 92.7242 116.406 92.9334C116.148 93.1322 115.965 93.4117 115.886 93.7271C115.585 94.9314 115.256 96.163 114.928 97.3947L114.271 99.6664L114.107 100.159L113.696 101.555C113.422 102.513 113.121 103.471 112.82 104.292L112.601 104.921L111.616 107.96L110.549 111.162L108.085 118.798L107.073 121.836V121.426C107.02 121.046 106.937 120.671 106.826 120.303V119.948C106.498 119.647 106.388 119.209 106.251 118.743ZM85.0943 84.6949V85.1602C85.0943 85.516 85.0944 85.8992 84.8754 86.2551V86.6108C84.8754 87.0761 84.7385 87.5414 84.6564 88.0067C84.5743 88.472 84.6564 88.8826 84.4648 89.3478C84.2732 89.8131 84.4648 90.3332 84.2458 90.908C84.2458 90.5248 84.2458 90.1416 84.109 89.7584V89.0194C84.109 87.5688 83.808 86.2824 83.6438 84.8318C83.6438 83.9286 83.3974 82.998 83.2879 82.0948L83.1237 80.6989C82.9048 78.9199 82.7131 77.0313 82.5215 74.7596C82.5215 74.2122 82.5215 73.6374 82.3847 73.09C82.3847 71.831 82.1657 70.5172 82.0014 69.2035L81.673 65.9738C81.673 65.0432 81.673 64.0579 81.673 62.9084C81.673 61.7588 81.673 60.6366 81.5088 59.7882C81.5088 58.5018 81.2626 57.4343 81.0984 56.449V56.7227C81.0984 57.0238 80.9615 57.3248 80.9067 57.6259C80.852 57.927 80.5782 59.1039 80.4687 59.8429C80.3592 60.5819 80.3046 60.8008 80.2499 61.2935V61.4304C80.2499 61.9504 80.2499 62.4704 80.2499 62.9905C80.196 64.0298 80.196 65.0713 80.2499 66.1107C80.2499 66.9044 80.4414 67.6981 80.5235 68.4918V69.313V69.614C80.7699 71.7489 80.9341 73.9111 81.0984 76.0186V76.2102C81.2626 78.2904 81.4541 80.3431 81.673 82.5874C81.892 84.8318 82.029 86.8846 82.1658 89.0194V90.1416C82.1658 91.8659 82.3846 93.645 82.5215 95.3967C82.5215 96.0535 82.5215 96.7104 82.7131 97.34C82.4941 97.0389 82.2752 96.7104 82.0288 96.4093C81.4267 95.6156 80.7973 94.8219 80.0857 93.946C79.3741 93.0702 78.635 92.167 77.7865 91.209L76.4728 89.6763C76.0622 89.1837 75.6791 88.7457 75.3233 88.2804C74.9675 87.8151 74.3379 87.0488 73.8726 86.4193L73.3526 85.735L72.9693 85.1602C72.5314 84.5581 72.121 83.9286 71.7104 83.2991L71.464 82.9159L70.8346 81.9306L70.4787 81.3284L70.0407 80.5621C69.8218 80.1241 69.5754 79.6862 69.3565 79.2209C69.1375 78.7556 69.0829 78.6735 68.946 78.3998V78.0987C68.7818 77.7703 68.6176 77.4145 68.4808 77.0861L67.9059 75.7723V75.5807L67.6595 74.8417V74.5406C67.5499 74.2132 67.55 74.2132 67.4402 73.8839C67.4406 73.5553 67.249 73.2542 67.1669 72.9258L66.3458 71.831L66.0174 70.3256C66.0174 69.9698 66.0174 69.5867 65.8258 69.2309C65.8258 68.4371 65.5794 67.5613 65.4426 66.4938V66.1107V65.2348C65.4426 65.2348 65.4426 64.9337 65.4426 64.7695C65.4426 64.6053 65.4426 64.1674 65.4426 63.8389C65.4558 63.6841 65.4558 63.5285 65.4426 63.3736C65.4426 63.0452 65.4426 62.6894 65.4426 62.3609V60.883V59.925V59.6787C65.4426 59.5144 65.4426 59.3502 65.4426 59.186V58.447C65.4426 58.1186 65.4426 57.7901 65.4426 57.4617V57.2975V56.9691C65.4426 56.3669 65.6069 55.7374 65.7164 55.1352V54.752L66.1268 52.4803C66.3184 51.5497 66.5101 50.6192 66.729 49.7433C66.948 48.8675 67.0301 48.5117 67.1943 47.9095V47.499L67.4953 46.6231L67.7417 45.8842L68.0702 44.9535V44.7346C68.426 43.7767 68.7819 42.8187 69.165 41.8608C69.5482 40.9028 69.904 39.8901 70.2871 38.9321C70.6703 37.9742 71.1355 36.7152 71.5734 35.6204L71.7377 35.1551C72.0935 34.2792 72.4219 33.4034 72.7777 32.4181C73.1336 31.4328 73.7084 30.1737 74.1736 29.1063C74.1736 28.8599 74.3926 28.641 74.4747 28.422L75.9528 25.2745L76.5002 24.1249C76.856 23.3586 77.2391 22.5374 77.6497 21.7437C77.8413 21.3879 78.0055 21.0321 78.1971 20.7037L78.3887 20.3479L78.9088 19.4446L79.2644 18.8698L79.8393 17.9667L80.4415 17.0361L80.7973 16.5434L81.372 15.6675C81.8099 15.0654 82.2479 14.4085 82.6585 13.779L83.5616 12.301C83.8353 11.8084 84.0816 11.3431 84.3006 10.8778L85.0397 9.31771C85.2586 8.79768 85.505 8.27762 85.7513 7.75759L87.2566 4.44583C87.6863 3.50757 88.0432 2.53763 88.3241 1.54461C88.4036 1.6341 88.4681 1.73571 88.5155 1.84564C88.7619 2.28356 88.9536 2.77624 89.1726 3.2689V3.54261L89.3094 3.8984C89.3094 4.22684 89.5831 4.55528 89.6926 4.88372V5.34905C89.8266 5.66881 89.9364 5.99818 90.021 6.33438C90.3221 7.40181 90.623 8.44186 90.8967 9.48192C91.1704 10.522 91.3348 11.2883 91.5264 12.2189C91.9643 14.2717 92.32 16.4339 92.6758 18.8151C92.8401 20.1563 93.0317 21.5521 93.1959 22.8111C93.1959 23.7144 93.4149 24.6176 93.5517 25.5482C93.8528 27.8472 94.2359 30.1737 94.7012 32.3907C94.7012 33.1844 95.0024 33.9508 95.1666 34.7445L95.4129 35.8941C95.6044 36.8794 95.7686 37.8921 95.9055 38.8774V39.0963C95.9055 39.5069 95.9055 39.8901 96.0423 40.2733V40.4922C96.0423 40.7659 96.0423 41.067 96.0423 41.3407V41.6144C96.0423 41.9702 96.0423 42.2987 96.0423 42.6545V43.9956C96.0423 44.5156 96.0423 44.9809 96.0423 45.4736V46.3494V46.6231L95.7961 48.8127V49.1686L95.6045 50.3181C95.6045 51.0297 95.3307 51.7413 95.2212 52.453L94.8108 54.3963V55.1352C94.6192 56.0658 94.4001 56.9964 94.1812 57.8722V58.0365C94.1812 58.3649 94.017 58.7207 93.9075 59.0765V59.5145L93.6065 60.5545L93.4423 61.0472L93.1139 62.0599L92.7853 62.9631L92.6211 63.3736C92.4021 64.0032 92.1285 64.6327 91.8822 65.2348L91.581 65.9738C91.3894 66.4665 91.1705 66.9591 90.9789 67.4792C90.4863 68.6834 89.9936 69.9151 89.4736 71.1194C88.9536 72.3237 88.762 72.7342 88.4335 73.5279L87.5851 75.526C87.2566 76.3197 86.9281 77.1134 86.627 77.9345L86.1344 79.4125C85.9428 80.0147 85.7787 80.6168 85.5871 81.2189C85.3955 81.8211 85.2585 82.3959 85.1217 82.998C85.0633 83.1677 85.0176 83.3416 84.9849 83.518V83.6823C85.0002 83.7729 85.0002 83.8653 84.9849 83.9559C84.9921 84.2057 85.0288 84.4538 85.0943 84.6949ZM70.0681 110.97L67.7691 110.779H67.2217L65.3605 110.642H64.8405C64.1836 110.642 63.5267 110.642 62.8698 110.642H61.5013H60.3518C59.5307 110.642 58.6822 110.888 57.7516 111.08L55.5072 111.572H55.261L53.044 112.12L50.307 112.859L49.4859 113.105C48.09 113.516 46.6121 113.926 44.6962 114.419L41.4937 115.295L39.7694 115.76L37.9083 116.225L36.9504 116.39L36.0745 116.554H35.5545H35.226H34.5692H34.3228H32.4342H30.7647C29.9162 116.554 28.9856 116.554 28.0277 116.307C26.9373 116.151 25.8584 115.922 24.798 115.623C23.4904 115.257 22.21 114.8 20.9662 114.255C19.887 113.777 18.8362 113.238 17.8187 112.64C16.8637 112.064 15.9493 111.424 15.0817 110.724C14.1215 109.977 13.2075 109.173 12.3447 108.315C11.9341 107.877 11.5508 107.467 11.195 107.029L10.7298 106.427L10.3193 105.907L9.71709 105.168L8.92342 104.046L8.73181 103.772C8.32126 103.197 7.9381 102.622 7.55491 102.02L7.33591 101.719L5.94 99.639L5.09154 98.38L4.5441 97.6136C4.5441 97.3947 4.2979 97.2031 4.16105 96.9841L4.02406 96.7652C3.75036 96.3272 3.4493 95.8346 3.1756 95.3419V95.1777C3.0406 94.9302 2.92174 94.6742 2.81977 94.4113V94.1376H3.39461L8.26656 93.8092L10.3466 93.6723L13.0836 93.4808C14.4794 93.4808 15.8207 93.3439 17.8461 93.3165H18.0923C18.804 93.3165 19.5155 93.3165 20.2545 93.3165C20.9935 93.3165 21.979 93.3165 22.7727 93.0702C23.5945 92.9589 24.408 92.7943 25.2085 92.5775C25.9475 92.3859 26.6866 92.167 27.3982 91.9206L28.3835 91.6196C29.5331 91.2364 30.7373 90.8259 31.9416 90.4974C32.4616 90.4974 32.927 90.2785 33.3649 90.2237C34.0485 90.1828 34.734 90.1828 35.4177 90.2237H36.0471C37.0872 90.2237 38.1547 90.2237 39.2221 90.2237H39.8516H41.1107H41.3569C42.2054 90.2237 43.1086 90.3606 44.0939 90.4974C45.0162 90.6259 45.9302 90.8087 46.8309 91.0448C47.7631 91.3043 48.6774 91.6243 49.5679 92.0028L50.6628 92.5228L51.4565 92.906H51.6207L51.9491 93.0976H52.1407L52.4144 93.2618L52.825 93.5081L53.3724 93.8639L53.5914 94.0282H53.8103L54.2757 94.3292L54.6861 94.6577L55.6988 95.424L56.4379 96.0536L57.0399 96.5736L57.8064 97.2578L58.1074 97.5589C58.4085 97.8326 58.737 98.1337 59.0381 98.4621L59.4759 98.9274L60.215 99.6937C60.516 100.022 60.7897 100.351 61.0908 100.652L61.4466 101.09L62.1855 101.938L62.4593 102.267C62.4593 102.431 62.7603 102.595 62.8972 102.787L62.3497 102.595L61.5013 102.349L61.0634 102.212L60.4886 102.075H60.2424H60.0233H59.5855H59.2023C58.4359 101.911 57.6422 101.747 56.8485 101.637L53.8103 101.336L51.2649 101.199L48.2816 101.008C46.3657 100.843 44.4498 100.597 42.6434 100.378L38.4009 99.858L36.8682 99.6937L33.9123 99.3927L31.1753 99.2011H29.7794H28.0277C27.611 99.2341 27.1985 99.3074 26.796 99.4201C26.4013 99.556 26.0171 99.7206 25.6465 99.9127C26.1544 100.467 26.8094 100.866 27.5351 101.062C27.7715 101.089 28.0102 101.089 28.2467 101.062H29.2868H29.6972H31.3942L34.2954 101.254L37.0324 101.555L38.6473 101.719L42.616 102.157H42.917C44.6413 102.376 46.4478 102.595 48.2268 102.759H49.7596H50.9365L52.4144 102.896L53.7557 103.06L55.6442 103.361L56.3284 103.498L57.0947 103.69H57.3137L59.6127 104.374C60.2696 104.566 60.8992 104.839 61.5287 105.086H61.7751H62.0213C62.6235 105.332 63.2257 105.633 63.8004 105.934L64.1563 106.126L64.8679 106.509L65.7438 107.056C66.7838 107.713 67.8239 108.425 68.8092 109.082L69.9861 109.875L70.0681 110.97ZM76.8012 252.474C76.637 251.653 76.4454 250.831 76.2812 250.01L75.7886 247.547V247C75.7886 246.315 75.5148 245.631 75.3505 244.919C75.1863 244.208 74.94 243.168 74.6663 242.319C74.6663 241.964 74.3927 241.58 74.2284 241.197C74.0642 240.814 73.8726 240.431 73.6536 240.02C73.4346 239.61 72.8873 238.515 72.5041 237.694C72.1209 236.873 71.9294 236.435 71.683 235.805V235.449V235.313V235.121L71.4914 234.601C71.2451 233.917 70.9987 233.232 70.725 232.548C70.4513 231.864 70.0955 230.769 69.7671 229.811C69.4387 228.853 68.8639 227.375 68.426 226.198L68.0428 225.076L67.4679 223.516C67.0847 222.503 66.7016 221.436 66.3458 220.368C65.99 219.301 65.7985 218.699 65.5522 217.905L64.9225 215.634C64.5161 213.734 64.2056 211.816 63.992 209.886L63.773 208.216C63.6088 206.875 63.4172 205.479 63.253 204.193V203.782V203.372C63.1161 202.195 62.9246 200.963 62.7604 199.786C62.7604 199.266 62.7603 198.719 62.5413 198.199C62.3224 196.173 62.1582 194.531 62.0487 193.053C61.9392 191.575 61.8571 189.495 61.8297 187.798V184.295C61.8297 183.747 61.8297 183.173 61.8297 182.598C61.7393 180.959 61.5197 179.33 61.1728 177.726C60.7568 179.155 60.4818 180.622 60.3518 182.105C60.3518 182.68 60.3518 183.255 60.3518 183.829V184.322C60.3518 184.787 60.3518 185.28 60.3518 185.773V186.785V187.004C60.3518 188.044 60.3518 189.112 60.3518 190.179C60.3518 190.59 60.3518 190.973 60.3518 191.384C60.3518 192.697 60.5159 194.121 60.6254 195.462C60.6254 196.858 60.9265 198.199 61.1454 199.868C61.1454 200.388 61.1455 200.908 61.3645 201.401C61.5834 201.894 61.6108 203.043 61.7203 203.864L62.2951 207.97V208.736C62.5141 210.351 62.7603 211.993 63.0614 213.608C63.719 216.806 64.6343 219.946 65.7984 222.996C66.2911 224.337 66.7564 225.733 67.2217 227.074L67.4407 227.649C67.6597 228.333 67.9059 228.99 68.1522 229.674C68.3985 230.359 68.8366 231.59 69.1376 232.548L69.5207 233.67C69.9039 234.847 70.3145 236.079 70.7798 237.283C71.2451 238.488 71.4915 239.008 71.8746 239.801V239.993C72.1757 240.622 72.4768 241.252 72.7505 241.909C73.0242 242.566 73.0515 242.867 73.1884 243.332C73.5442 244.865 73.8179 246.425 74.0642 247.93V248.231C74.3927 250.092 74.7211 251.844 75.0495 253.514V253.952L74.8305 253.514L74.5843 252.966L74.42 252.556C74.2285 252.145 74.0368 251.707 73.8452 251.215C73.3799 250.147 72.9146 249.08 72.4219 248.067C71.9293 247.054 71.3819 246.069 70.7524 245.029V244.865C70.6422 244.707 70.5416 244.542 70.4513 244.372C70.294 244.097 70.1203 243.832 69.9313 243.578L69.7397 243.305L69.3018 242.675L68.727 241.964C68.4259 241.58 68.0976 241.225 67.7691 240.869L67.5501 240.65C67.1396 240.212 66.7017 239.801 66.209 239.336C65.7164 238.871 65.3878 238.597 64.9225 238.241C64.4572 237.885 63.9921 237.502 63.4994 237.119L61.5013 235.751L60.6254 235.176L59.0381 234.054C58.7096 233.835 58.4085 233.588 58.1348 233.369L57.8064 233.123L57.4506 232.822L56.9031 232.384C56.2959 231.891 55.72 231.361 55.1788 230.796C54.8829 230.497 54.6085 230.177 54.3577 229.839C54.1661 229.565 54.0019 229.291 53.8377 229.017C53.537 228.503 53.2629 227.973 53.0166 227.43L52.4418 226.198L52.2776 225.815C51.7575 224.72 51.3196 223.68 50.9091 222.668C50.1153 220.505 49.3763 218.097 48.6647 215.36C48.4184 214.347 48.1995 213.307 47.9532 212.185C47.7069 211.063 47.5699 210.023 47.4604 209.065C47.3509 208.107 47.4604 207.97 47.4604 207.45C47.4604 206.93 47.4604 206.382 47.4604 205.862C47.4604 205.342 47.4604 203.946 47.652 202.879C47.8436 201.812 47.871 200.772 47.9804 199.868C48.0899 198.965 48.3637 197.706 48.5553 196.666V196.365C48.7469 195.462 48.9932 194.559 49.2395 193.628C50.0059 190.891 50.7175 188.701 51.4291 186.621C51.6663 185.946 51.9127 185.289 52.1681 184.651C52.8798 182.789 53.6461 180.928 54.4125 179.177L54.9052 178C55.3157 177.042 55.7537 176.002 56.1368 174.934C56.3284 174.414 56.5473 173.839 56.7389 173.237C56.9305 172.635 57.1494 172.006 57.3684 171.321C57.5873 170.637 57.6147 170.5 57.7242 170.09V169.624L58.1348 167.955C58.4359 166.75 58.7096 165.519 58.9833 164.315V163.658C59.2022 162.754 59.3938 161.851 59.6127 160.921C59.8317 159.99 59.8317 159.881 59.9686 159.361C59.9839 159.27 59.9839 159.177 59.9686 159.087L60.1876 159.224H60.3518C61.3677 159.819 62.3458 160.478 63.2804 161.194C63.9883 161.807 64.6643 162.456 65.3058 163.138L65.99 163.849C67.1395 164.999 68.0701 165.929 68.8912 166.805L69.2197 167.134L69.5207 167.49C70.4786 168.475 71.3819 169.515 72.2577 170.528C73.1335 171.54 73.4895 171.923 74.119 172.635C74.7485 173.347 75.2958 173.949 75.898 174.578L76.637 175.372C77.5178 176.323 78.3491 177.319 79.1276 178.355C79.466 178.811 79.7768 179.286 80.0583 179.779C80.332 180.326 80.633 180.928 80.9067 181.53C81.1804 182.132 81.3995 182.68 81.6458 183.309V183.474C81.8374 184.048 82.0563 184.623 82.2478 185.225C82.4394 185.827 82.5762 186.43 82.7131 186.977V187.579L82.8773 188.373L83.0415 189.276V189.769C83.0415 190.508 83.2606 191.274 83.3427 192.013V192.205V192.889C83.5588 195.002 83.9245 197.096 84.4374 199.157C84.6016 199.759 84.7386 200.279 84.9028 200.771C85.0671 201.264 85.2585 201.757 85.4501 202.222L86.0523 203.426C86.2713 203.837 86.5449 204.275 86.846 204.768L87.8041 206.273V206.492C88.0855 206.905 88.3413 207.334 88.5703 207.778C88.7595 208.099 88.9153 208.438 89.0356 208.791C89.2545 209.366 89.4188 209.968 89.6104 210.652V210.789C89.6104 211.282 89.8293 211.774 89.9114 212.267C89.9936 212.76 90.0757 213.334 90.1304 213.854C90.117 213.945 90.117 214.037 90.1304 214.128C90.1441 214.374 90.1441 214.621 90.1304 214.867C90.1304 215.25 90.1304 215.606 90.1304 215.989C90.1304 216.865 90.1304 217.796 90.1304 218.726C90.1304 218.863 90.1304 219.027 90.1304 219.192V220.15C90.1304 220.451 90.1304 220.724 90.1304 221.025V221.491V221.71V222.175V222.421C90.1402 222.576 90.1402 222.732 90.1304 222.887L89.802 224.2C89.5831 224.857 89.3367 225.569 89.063 226.308C88.7893 227.047 88.543 227.594 88.2967 228.169C88.0504 228.744 87.3935 230.112 86.9556 231.07C86.5177 232.028 86.3808 232.275 86.0797 232.904L84.848 235.641C84.7112 235.969 84.5469 236.325 84.41 236.681C84.3992 236.79 84.3992 236.9 84.41 237.01C84.284 237.295 84.1743 237.587 84.0816 237.885L83.9174 238.351C83.9174 238.734 83.671 239.117 83.5616 239.528L83.3973 240.02L83.0689 241.252L82.1658 244.974C81.7279 246.89 81.2899 248.806 80.8793 250.749C80.8793 251.187 80.6604 251.598 80.5783 252.063C80.332 253.131 80.0856 254.253 79.8667 255.43C79.6477 256.606 79.4013 257.838 79.155 259.125L78.9088 260.548L78.6624 262.053C78.6624 261.725 78.4708 261.396 78.3613 261.068C78.115 259.125 77.7592 257.044 77.2939 254.663L76.8012 252.474ZM122.564 315.945L122.701 315.699L123.932 313.454C124.151 313.071 124.37 312.688 124.562 312.277C124.682 312.082 124.792 311.882 124.891 311.675C125.301 310.909 125.629 310.197 125.985 309.486C126.341 308.774 126.615 308.062 126.916 307.378V307.214C127.381 306.174 127.819 305.106 128.23 304.066L128.64 303.108C129.188 301.74 129.762 300.371 130.337 299.03V298.811C130.583 298.319 130.802 297.799 131.049 297.278C131.133 297.12 131.206 296.955 131.268 296.786L131.405 296.512V296.266L131.651 295.773L131.897 295.281L132.061 294.979V294.76L132.308 294.295L132.499 293.939L133.156 292.845L133.594 292.106L134.059 291.394C134.196 291.202 134.306 291.011 134.443 290.846L134.607 290.6L134.853 290.244L135.319 289.587L135.592 289.204L135.839 288.849L136.66 287.726L137.617 286.467L138.083 285.838C138.384 285.482 138.658 285.099 138.931 284.743L139.533 284.004L140.464 282.827L140.875 282.307L141.121 282.033L141.367 281.732L142.134 280.774L142.982 279.789L143.338 279.351C144.104 278.475 144.898 277.627 145.719 276.778L146.184 276.34L146.349 276.204C146.463 276.071 146.591 275.952 146.732 275.848L147.307 275.328L147.608 275.081L148.1 274.726L148.429 274.479L148.867 274.178L149.277 273.932L150.372 273.248L151.905 272.372L153.711 271.304C154.99 270.55 156.216 269.709 157.379 268.786L159.24 267.308L160.745 266.131L161.046 265.858L161.265 265.721L161.703 265.42L162.141 265.091L163.318 264.407L164.44 263.86L165.617 263.504H165.863L166.603 263.34H167.013H167.369H167.725L168.683 263.203H169.613H170.133L172.159 262.902H172.46L173.281 262.765H173.637L174.513 262.573H174.814L175.662 262.327C176.61 262.082 177.528 261.733 178.399 261.287L179.083 260.958L180.561 260.219L182.641 259.07C183.271 258.687 183.9 258.276 184.557 257.783L186.199 256.47V256.661C186.035 257.263 185.844 257.866 185.652 258.44L185.023 260.11L183.9 262.847L184.037 263.422C183.435 264.872 182.833 266.35 182.258 267.801C181.163 270.538 180.069 273.275 178.974 276.313C178.426 277.791 177.906 279.269 177.414 280.72C176.921 282.17 176.483 283.621 176.045 285.071L175.662 286.303C175.361 287.343 175.033 288.411 174.704 289.451L173.883 291.859C173.637 292.489 173.39 293.118 173.117 293.72V293.994L172.624 295.007L171.994 296.129L171.201 297.278L170.544 298.154L170.38 298.401L170.079 298.757L169.805 299.112C169.066 299.961 168.354 300.782 167.615 301.576C166.876 302.369 166.028 303.163 165.207 303.929L164.878 304.477L163.345 305.927L162.552 306.666L160.417 308.637C159.76 309.239 159.048 309.814 158.309 310.416L158.09 310.58L157.735 310.827C157.078 311.292 156.393 311.703 155.654 312.14L153.93 312.688L152.397 313.454L151.494 313.892L150.892 314.166L150.454 314.33L150.044 314.522L149.441 314.795L148.812 315.014L148.182 315.261L147.334 315.534H147.033L145.993 315.835H145.445L144.706 316.027L142.763 316.438L140.71 316.848L138.384 317.259L136.906 317.478H136.495H136.003C135.72 317.492 135.437 317.492 135.154 317.478H134.771H133.649H131.158H128.996H128.093H126.724H125.493H124.918L125.082 317.341L126.806 315.89L127.929 314.96L128.585 314.412L130.666 312.66C132.718 310.881 134.634 309.075 136.386 307.186C137.252 306.316 138.074 305.402 138.849 304.449C139.67 303.464 140.464 302.479 141.148 301.548L142.982 299.085C143.885 297.881 144.789 296.649 145.719 295.445C146.65 294.24 147.224 293.666 147.963 292.845C148.702 292.023 149.606 291.202 150.29 290.518L151.741 289.259C152.562 288.575 153.383 287.836 154.177 287.069C155.49 285.756 156.722 284.332 157.871 283.073C159.021 281.814 159.815 280.802 160.608 279.707C161.402 278.612 161.785 278.256 162.388 277.545C162.99 276.833 164.03 275.601 164.796 274.643L166.247 272.673L166.876 271.77L167.506 270.921L167.916 270.374V270.182L168.299 269.689V269.498C168.426 269.366 168.536 269.219 168.628 269.06C168.681 268.963 168.708 268.855 168.708 268.745C168.708 268.635 168.681 268.527 168.628 268.43C168.585 268.377 168.531 268.335 168.469 268.306C168.408 268.278 168.34 268.264 168.272 268.266C168.136 268.291 168.012 268.358 167.916 268.458L167.67 268.732L167.177 269.361L165.097 272.098L163.975 273.631L162.935 274.972C161.457 276.751 159.924 278.585 158.337 280.446C157.242 281.678 156.038 282.937 154.806 284.168L153.547 285.427L153.218 285.756L152.863 286.057C151.994 286.848 151.08 287.588 150.126 288.274L148.703 289.369L147.17 290.6C145.296 292.167 143.54 293.868 141.915 295.691C141.148 296.512 140.409 297.361 139.67 298.209C138.931 299.058 137.727 300.399 136.714 301.466C135.264 303.026 133.676 304.641 131.678 306.557L127.463 310.389L126.149 311.566L125.055 312.578L123.221 314.221L122.153 315.151L122.564 315.945ZM154.56 166.887C154.812 166.768 155.051 166.621 155.271 166.449L155.682 166.203L156.941 165.464H157.105L157.926 165.054C157.914 165.19 157.914 165.328 157.926 165.464C157.707 166.203 157.488 166.887 157.269 167.544C156.804 168.94 156.284 170.281 155.764 171.677L155.408 172.635C154.751 174.359 154.067 176.084 153.328 177.808C152.589 179.532 152.151 180.874 151.604 182.379L151.357 183.063L150.454 185.472C150.126 186.293 149.797 187.169 149.414 188.017C149.031 188.866 148.73 189.522 148.319 190.316C147.909 191.11 147.608 191.63 147.224 192.259L146.048 194.038C145.226 195.243 144.323 196.502 143.311 197.843C142.818 198.5 142.271 199.211 141.696 199.923L141.422 200.252L140.464 201.374L139.287 202.687L139.096 202.906C138.247 203.864 137.371 204.768 136.55 205.643L135.975 206.136L136.523 203.892C136.988 202.003 137.453 200.142 137.891 198.253V198.117C137.891 197.651 138.138 197.213 138.247 196.748V196.611C138.384 196.009 138.521 195.407 138.685 194.805C138.849 194.203 138.849 194.203 138.904 193.902V193.765V193.464C138.907 193.418 138.907 193.372 138.904 193.327C138.916 193.264 138.916 193.199 138.904 193.135C138.913 193.063 138.913 192.989 138.904 192.916V192.779L139.068 192.205V191.958C139.287 191.192 139.534 190.453 139.78 189.769C140.026 189.084 140.601 187.661 140.984 186.758L141.942 184.651L142.9 182.707C143.584 181.366 144.323 180.107 145.007 178.93L146.458 176.631L148.21 174.058L148.456 173.73L148.675 173.401C149.305 172.498 149.934 171.595 150.536 170.664C151.138 169.734 151.658 168.776 152.151 167.791C152.982 167.609 153.79 167.334 154.56 166.969V166.887ZM128.531 165.793C128.312 164.533 128.12 163.275 127.929 161.906V161.578C127.929 160.893 127.792 160.154 127.737 159.415C127.682 158.676 127.737 157.636 127.737 156.678C127.737 156.24 127.737 155.83 127.737 155.447C127.737 154.297 127.737 153.312 127.874 152.381C128.011 151.451 127.874 150.657 128.093 149.781C128.312 148.905 128.23 148.577 128.284 148.002V147.728C128.531 146.25 128.777 144.663 129.078 143.103C129.379 141.543 129.571 140.667 129.844 139.49V139.244V139.025C130.091 137.875 130.364 136.753 130.611 135.603L130.775 134.974C131.049 133.715 131.35 132.483 131.651 131.251L132.636 127.037C133.266 124.3 133.868 121.562 134.443 118.689C134.881 116.581 135.154 114.419 135.455 112.311C135.455 111.764 135.455 111.217 135.674 110.669V110.532C136.03 108.288 136.304 106.29 136.55 104.347V103.553C136.797 101.747 137.015 99.9675 137.262 98.0789V97.8873C137.275 97.7508 137.275 97.6133 137.262 97.4768C137.262 96.9841 137.426 96.5188 137.508 96.1083C137.493 96.0177 137.493 95.9252 137.508 95.8346C137.946 96.4641 138.329 97.121 138.712 97.7505L139.752 99.5843C140.272 100.597 140.765 101.5 141.176 102.321L142.325 104.648L144.351 109L144.679 109.684L146.403 113.351C147.033 114.611 147.662 115.897 148.319 117.128C148.976 118.36 149.715 119.674 150.427 120.878C151.138 122.083 151.795 123.205 152.452 124.382L152.726 124.847C153 125.367 153.301 125.887 153.547 126.407C153.793 126.927 154.204 127.803 154.505 128.487V128.651C154.697 129.117 154.861 129.582 155.025 130.047C155.189 130.512 155.353 131.115 155.49 131.635C155.49 132.155 155.737 132.784 155.846 133.441C155.956 134.098 156.01 134.509 156.092 135.029V135.165C156.092 135.74 156.092 136.452 156.092 137.109C156.092 137.766 156.092 138.286 156.092 138.86C156.092 140.092 156.092 141.242 156.092 142.364C156.092 143.486 155.901 144.581 155.764 145.703C155.623 146.862 155.422 148.013 155.162 149.152C154.861 150.575 154.587 151.752 154.341 152.792V153.284C153.821 155.447 153.273 157.691 152.671 159.881V160.291C152.479 160.921 152.288 161.578 152.042 162.207C151.795 162.837 151.467 163.658 151.193 164.369C150.919 165.081 150.564 165.71 150.18 166.449C149.797 167.188 149.414 167.873 149.031 168.502C148.648 169.132 148.128 169.925 147.662 170.61L146.759 172.006L144.953 174.743C144.569 175.317 144.296 175.865 143.94 176.44C143.584 177.014 142.763 178.355 142.27 179.177V178.821C142.27 178.41 142.462 178.027 142.571 177.616V176.96C142.873 175.865 143.146 174.715 143.365 173.566C143.495 172.924 143.586 172.275 143.639 171.622C143.639 170.938 143.639 170.254 143.776 169.542C144.172 163.876 143.925 158.183 143.037 152.573C142.791 151.286 142.517 149.836 142.134 148.221C141.969 147.4 141.778 146.606 141.586 145.812C141.395 145.019 141.285 144.553 141.148 143.924V143.595C141.012 143.021 140.875 142.391 140.765 141.789C140.656 141.187 140.491 140.366 140.382 139.654C140.163 138.477 140.026 137.3 139.889 136.151V135.439V134.782C139.889 134.207 139.889 133.578 139.889 132.976C139.889 132.374 139.889 131.197 139.889 130.239C139.889 128.405 139.752 126.735 139.698 125.093V125.723C139.561 126.927 139.424 128.159 139.314 129.363C139.314 130.075 139.178 130.759 139.123 131.416C139.068 132.073 139.123 132.729 139.123 133.386C139.123 134.043 139.123 134.344 139.123 134.837V135.439C139.123 135.904 139.123 136.37 139.123 136.835V137.328C139.123 137.793 139.123 138.231 139.123 138.696V139.161C139.171 139.759 139.253 140.353 139.369 140.941C139.369 141.652 139.616 142.336 139.752 142.993C139.889 143.65 139.999 144.252 140.136 144.827C140.437 146.113 140.738 147.564 141.012 148.714V148.878C141.258 150.082 141.531 151.314 141.75 152.545C141.969 153.777 142.188 155.146 142.325 156.24L142.571 158.758C142.571 159.607 142.571 160.483 142.736 161.359C142.736 163.083 142.736 164.78 142.736 166.833C142.736 167.188 142.736 167.544 142.736 167.9C142.736 168.475 142.736 169.104 142.736 169.734C142.736 169.898 142.736 170.035 142.736 170.199C142.736 170.883 142.736 171.595 142.571 172.279H142.325C142.219 172.244 142.103 172.244 141.997 172.279C141.775 172.495 141.647 172.79 141.641 173.1C141.313 175.29 140.847 177.589 140.272 179.861L138.493 187.196L138.001 189.221V189.44C137.754 190.207 137.481 191 137.234 191.849C137.234 191.849 137.234 191.849 137.234 192.013C137.234 192.177 136.961 192.944 136.851 193.436L136.523 194.586C136.523 193.984 136.523 193.409 136.523 192.862C136.523 191.274 136.276 189.96 136.085 188.756C136.085 188.099 135.839 187.442 135.702 186.758C135.565 186.074 135.346 185.362 135.127 184.651C135.034 184.326 134.924 184.006 134.798 183.693C134.415 182.543 134.005 181.421 133.539 180.326L133.102 179.259L132.171 177.014L131.925 176.385C131.936 176.266 131.936 176.147 131.925 176.029C131.904 175.883 131.854 175.743 131.779 175.616C131.704 175.489 131.605 175.378 131.487 175.29C131.158 174.332 130.83 173.347 130.501 172.307L129.571 168.995C129.023 168.201 128.75 167.052 128.531 165.875V165.793ZM110.85 210.187C110.85 209.776 110.85 209.366 110.85 208.983C110.85 208.599 111.014 207.313 111.151 206.246C111.288 205.178 111.37 204.932 111.479 204.357C111.589 203.782 111.698 203.207 111.808 202.687L112.218 200.963C112.382 200.361 112.547 199.731 112.711 199.075V198.774C112.711 198.555 112.711 198.308 112.957 198.062C112.945 197.944 112.945 197.824 112.957 197.706C113.027 197.474 113.109 197.245 113.203 197.022C113.203 197.022 113.203 196.83 113.203 196.721L113.45 196.091L113.641 195.653L113.86 195.133C114.462 193.765 115.119 192.396 115.831 190.836C116.543 189.276 117.309 188.099 118.103 186.676V186.43L118.76 185.39L119.69 184.076L120.539 183.118L121.414 182.242C122.044 181.667 122.701 181.065 123.412 180.518L124.015 180.135L124.754 179.697L125.246 179.423L126.095 178.985L127.053 178.547L128.23 178.164L129.352 177.863H129.516L129.927 178.848L130.392 179.888V180.189C130.885 181.257 131.377 182.406 131.842 183.528C132.308 184.651 132.609 185.745 132.937 186.895C133.102 187.579 133.238 188.236 133.348 188.893C133.457 189.55 133.539 190.07 133.622 190.645V190.809C133.622 191.685 133.786 192.396 133.813 193.053C133.841 193.71 133.813 194.504 133.813 195.161V195.434C133.813 196.037 133.813 196.639 133.813 197.241C133.813 197.843 133.813 198.774 133.622 199.567C133.485 200.854 133.293 202.14 133.129 203.399V203.81C132.965 204.932 132.8 205.945 132.609 206.902L132.308 207.888C131.514 208.271 130.638 208.654 129.571 209.065L127.354 209.886L125.082 210.57H124.699L123.385 210.926L122.044 211.309L121.305 211.528L120.539 211.747L119.581 212.021L116.844 212.76L116.296 212.897L115.201 213.143H114.9L113.313 213.417H112.902L111.78 213.608C112.41 212.595 113.149 211.391 113.97 210.214L115.311 208.326C115.767 207.669 116.26 207.012 116.789 206.355V206.191V206.054L117.035 205.726L118.349 204.111L119.635 202.496L120.785 201.127C121.168 200.635 121.551 200.169 121.962 199.704L124.179 196.967C124.836 196.173 125.465 195.352 126.122 194.504L127.491 192.752L129.133 190.754L130.063 189.577L130.228 189.386L130.529 189.002C130.529 188.838 130.775 188.674 130.885 188.482C131.08 188.093 131.156 187.655 131.103 187.223C131.119 187.133 131.119 187.04 131.103 186.95H130.83C130.385 186.977 129.962 187.15 129.625 187.442L129.215 187.88L128.777 188.4L127.6 189.714C126.834 190.59 126.013 191.493 125.246 192.451L123.549 194.504L121.907 196.474L120.703 197.87L118.431 200.607C117.227 202.058 116.077 203.509 115.01 204.904C113.943 206.3 112.738 207.97 111.835 209.366C111.342 210.105 110.85 210.898 110.247 211.884L109.755 212.705L109.536 213.061V213.198V213.006C109.536 212.677 109.536 212.376 109.536 212.048C109.536 211.72 110.85 210.679 110.85 210.269V210.187ZM116.515 255.43C115.749 256.908 114.955 258.358 114.189 259.809C113.422 261.259 112.848 262.546 112.218 263.969C111.041 266.542 109.946 269.142 108.769 271.742C107.894 273.658 106.99 275.547 106.032 277.463C105.622 278.174 105.211 278.913 104.773 279.625C103.514 281.842 102.228 284.086 101.024 286.33C99.8194 288.575 98.2868 291.093 97.0278 293.447C96.0424 295.062 95.057 296.704 93.9896 298.291L92.2926 300.7L91.4168 301.877C91.9368 300.152 92.4295 298.428 92.8401 296.676C93.3875 294.35 93.9623 292.023 94.4824 289.67C95.0024 287.316 95.5224 285.099 95.9877 282.8C96.453 280.501 96.8634 278.119 97.2466 275.738C97.6298 273.357 97.9308 271.085 98.2593 268.732C98.5604 266.733 98.8068 264.708 99.0531 262.683C99.6826 257.838 100.23 252.994 100.723 248.149C100.996 245.549 101.188 242.921 101.325 240.294C101.39 240.257 101.446 240.206 101.489 240.145C101.532 240.083 101.56 240.012 101.571 239.938C101.735 239.008 102.009 238.104 102.255 237.201C102.502 236.298 102.803 235.23 103.049 234.273C103.268 233.643 103.432 232.986 103.651 232.357C103.87 231.727 104.089 231.015 104.336 230.386L104.828 229.1C104.828 228.853 104.992 228.607 105.102 228.361C105.403 227.676 105.704 227.019 105.978 226.335C106.251 225.651 106.662 224.83 107.018 224.091C107.374 223.352 107.811 222.421 108.195 221.6C108.578 220.779 109.043 219.958 109.454 219.109L110.767 216.701C111.178 215.935 111.643 215.196 112.081 214.429V214.238H114.408C115.037 214.238 115.667 214.238 116.269 214.238H117.665H118.65L120.922 213.964C122.673 213.718 124.453 213.471 126.204 213.17L128.941 212.595L130.282 212.24L131.733 211.802C130.611 215.497 129.516 219.164 128.503 222.887C127.792 225.624 127.08 228.142 126.423 230.769L126.013 232.439C125.219 235.039 124.425 237.612 123.495 240.157C123.057 241.361 122.564 242.538 122.071 243.688L120.593 247.136C119.909 248.642 119.197 250.12 118.486 251.598C117.774 253.076 117.227 254.171 116.515 255.512V255.43ZM202.567 153.23C202.567 153.859 202.567 154.489 202.348 155.091V155.693L202.184 156.788L202.019 157.746C201.828 158.895 201.609 160.072 201.335 161.249C201.061 162.426 200.706 163.986 200.24 165.683C199.583 167.955 198.845 170.227 198.133 172.444V172.662V172.854C197.941 173.484 197.722 174.113 197.503 174.715L196.901 176.467C196.573 177.343 196.217 178.219 195.861 179.067L195.642 179.56L195.451 179.998C195.067 180.846 194.684 181.695 194.246 182.516C193.808 183.337 193.179 184.541 192.604 185.472C192.029 186.402 191.044 187.853 190.086 189.139C189.128 190.426 188.115 191.876 187.349 193.026C186.774 193.82 186.2 194.668 185.625 195.489C184.475 197.104 183.326 198.773 182.067 200.361L181.464 201.1C180.671 202.085 179.85 203.071 179.083 204.083L177.988 205.561C177.468 206.3 176.921 207.039 176.319 207.778L175.908 208.271L175.279 209.092C174.485 210.023 173.637 210.871 172.87 211.692L172.514 212.021L171.748 212.705L171.173 213.198L170.571 213.663L170.297 213.882C170.025 214.089 169.742 214.281 169.449 214.457L168.163 215.25L167.56 215.579L166.958 215.907C166.674 216.06 166.382 216.198 166.082 216.318L165.672 216.509C165.015 216.838 164.331 217.084 163.646 217.358L163.044 217.604C161.594 218.152 160.143 218.808 158.227 219.712C157.598 220.013 156.913 220.341 156.092 220.779H155.928C155.6 220.936 155.28 221.11 154.97 221.299L154.614 221.491C154.34 221.639 154.075 221.803 153.821 221.983C153.054 222.476 152.343 222.941 151.658 223.461L150.454 224.419L151.084 223.68C151.905 222.722 152.753 221.764 153.657 220.943C153.657 220.779 153.958 220.642 154.094 220.505L154.532 220.095L155.353 219.192L155.819 218.699L156.174 218.316C156.468 217.995 156.742 217.657 156.996 217.303C157.434 216.701 157.789 216.071 158.172 215.442L158.337 215.141L158.693 214.566C158.966 214.046 159.267 213.526 159.568 213.033L159.733 212.76L159.897 212.513C160.061 212.24 160.225 211.939 160.417 211.665L161.019 210.762L161.457 210.132C161.895 209.503 162.305 208.9 162.743 208.353L163.482 207.505L164.139 206.82L164.878 205.944L165.781 205.206L166.712 204.521L167.314 204.056C167.916 203.645 168.464 203.18 168.984 202.77C169.504 202.359 169.969 201.948 170.407 201.538L171.474 200.525L171.858 200.115L172.022 199.95L172.323 199.622C172.569 199.321 172.843 199.02 173.089 198.691L173.91 197.542C174.403 196.803 174.868 196.064 175.279 195.352L175.498 194.996L176.593 193.135L177.031 192.396L177.277 192.013C177.378 191.883 177.469 191.746 177.551 191.603L177.906 191.028L178.153 190.645L179.028 189.331C179.275 188.948 179.548 188.564 179.85 188.154L180.835 186.868L181.93 185.554L183.49 183.693C184.284 182.68 185.105 181.64 185.981 180.463C186.446 179.806 186.993 179.067 187.486 178.328C187.979 177.589 188.499 176.713 188.936 175.947C189.758 174.496 190.606 173.018 191.4 171.54L191.646 171.102L192.632 169.241C193.069 168.42 193.48 167.599 193.89 166.778C194.301 165.957 194.575 165.355 194.903 164.67V164.397C195.122 163.931 195.286 163.548 195.451 163.165C195.623 162.836 195.778 162.498 195.916 162.152V161.961V161.796V161.495L196.053 161.167V160.893V160.647C196.71 159.142 197.284 157.609 197.859 156.131C198.078 155.556 198.297 154.954 198.543 154.379C198.79 153.804 199.255 152.463 199.638 151.505V151.259L199.884 150.657L200.186 150.055L200.35 149.808C200.363 149.754 200.363 149.698 200.35 149.644H200.213L199.967 149.918L199.775 150.137L199.611 150.383C199.419 150.63 199.2 150.931 198.954 151.314V151.56L198.407 152.381V152.545C197.996 153.23 197.585 153.914 197.202 154.626L197.038 154.899C196.655 155.556 196.272 156.268 195.916 156.952L195.478 157.8L194.629 159.47C192.823 163.056 191.345 165.929 189.922 168.557L189.484 169.351L187.431 173.21L187.103 173.867C186.418 175.153 185.707 176.604 184.968 177.781C183.821 179.674 182.569 181.501 181.218 183.255L180.944 183.61V183.775C180.75 184.042 180.54 184.298 180.315 184.541L179.959 184.979L178.81 186.375C178.153 187.223 177.496 188.127 176.866 189.112L176.483 189.687C175.908 190.59 175.361 191.438 174.896 192.205L174.704 192.533V192.779L174.54 193.026V193.217V193.382L174.294 193.765C173.91 194.394 173.555 194.969 173.171 195.544C172.788 196.119 172.624 196.365 172.323 196.748C172.022 197.131 171.858 197.378 171.611 197.706L170.845 198.582L169.996 199.403L169.723 199.649C168.737 200.553 167.697 201.401 166.63 202.222L165.727 202.934L165.48 203.125C164.853 203.596 164.25 204.098 163.674 204.631L162.743 205.561C162.497 205.835 162.223 206.136 161.95 206.492C160.879 207.857 159.9 209.293 159.021 210.789C158.528 211.583 158.036 212.431 157.57 213.252C157.105 214.073 156.777 214.593 156.366 215.278C155.956 215.962 156.038 215.825 155.873 216.071L155.381 216.728L154.97 217.221L154.642 217.631L154.231 218.152L153.958 218.507C153.547 218.973 153.109 219.411 152.698 219.848L152.261 220.286L152.425 220.013C152.726 219.356 153.027 218.726 153.355 217.96C154.053 216.445 154.639 214.881 155.107 213.28C155.545 211.72 155.901 210.105 156.257 208.545C156.612 206.985 156.941 205.452 157.379 203.919V203.755V203.426C158.036 201.264 158.692 198.993 159.185 196.748C159.404 195.818 159.596 194.887 159.787 194.011C160.088 192.643 160.362 191.274 160.718 189.851C160.957 189.051 161.241 188.266 161.566 187.497C162.059 186.457 162.579 185.39 163.181 184.295C163.51 183.693 163.866 183.09 164.221 182.488L164.933 181.284C165.741 179.774 166.445 178.21 167.04 176.604L167.779 174.715C168.437 173.274 169.168 171.867 169.969 170.5C170.407 169.789 170.845 169.186 171.283 168.584L172.268 167.49L173.609 166.367L175.334 165.273L177.551 164.205L180.069 163.192L180.589 162.973L183.052 162.016C183.791 161.75 184.513 161.439 185.214 161.085C185.934 160.705 186.621 160.266 187.267 159.771C187.787 159.415 188.28 159.005 188.745 158.622L189.265 158.238C189.894 157.718 190.551 157.226 191.208 156.733L193.644 154.762L194.903 153.75L195.861 152.983L196.71 152.326L197.284 151.861L198.516 150.876C199.2 150.411 199.967 149.918 200.76 149.48C200.995 149.339 201.243 149.22 201.499 149.124H201.691H202.019C202.019 149.316 202.019 149.507 202.211 149.726C202.403 149.945 202.211 150 202.211 150.137C202.211 150.274 202.211 150.903 202.211 151.341C202.211 151.779 202.622 152.737 202.567 153.312V153.23Z" fill="#C8D4E1"></path></svg>